<svg xmlns="http://www.w3.org/2000/svg" xmlns:xlink="http://www.w3.org/1999/xlink" viewBox="0 0 2000 1000"><defs><linearGradient id="linear-gradient" x1="996" y1="259.293" x2="2007.1378" y2="259.293" gradientUnits="userSpaceOnUse"><stop offset="0" stop-color="#b11435"/><stop offset="0.089" stop-color="#9b1232"/><stop offset="0.174" stop-color="#8e1130"/><stop offset="0.2507" stop-color="#89112f"/><stop offset="0.2892" stop-color="#8c112f"/><stop offset="0.7373" stop-color="#a71333"/><stop offset="1" stop-color="#b11435"/></linearGradient><radialGradient id="radial-gradient" cx="1349.1401" cy="381.7033" r="501.035" gradientUnits="userSpaceOnUse"><stop offset="0" stop-color="#cb272d"/><stop offset="0.0754" stop-color="#c8252e"/><stop offset="0.6046" stop-color="#b71833"/><stop offset="1" stop-color="#b11435"/></radialGradient><radialGradient id="radial-gradient-2" cx="1215.6418" cy="380.0603" r="109.2848" gradientUnits="userSpaceOnUse"><stop offset="0" stop-color="#b11d2d"/><stop offset="0.3464" stop-color="#c43937"/><stop offset="0.7433" stop-color="#d75641"/><stop offset="0.9118" stop-color="#d65440"/></radialGradient><radialGradient id="radial-gradient-3" cx="1306.3893" cy="238.1828" r="116.0992" gradientTransform="matrix(1, 0.0011, -0.0011, 1, 0.2634, -1.3755)" gradientUnits="userSpaceOnUse"><stop offset="0" stop-color="#b11d2d"/><stop offset="1" stop-color="#d75641"/></radialGradient><radialGradient id="radial-gradient-4" cx="1230.89" cy="311.6227" r="114.3276" gradientTransform="matrix(-0.6869, 0.7268, -0.4735, -0.4475, 2223.9422, -443.4679)" gradientUnits="userSpaceOnUse"><stop offset="0.2032" stop-color="#ffa343"/><stop offset="0.5471" stop-color="#ea7b42"/><stop offset="0.832" stop-color="#dc6041"/><stop offset="1" stop-color="#d75641"/></radialGradient><radialGradient id="radial-gradient-5" cx="1360.3846" cy="274.3626" r="193.1767" gradientTransform="matrix(1, 0, 0, 1, 0, 0)" xlink:href="#radial-gradient-3"/><radialGradient id="radial-gradient-6" cx="1634.1429" cy="196.1648" r="148.4044" gradientTransform="matrix(1, 0, 0, 1, 0, 0)" xlink:href="#radial-gradient-3"/><radialGradient id="radial-gradient-7" cx="1503.8571" cy="249.044" r="161.7355" gradientTransform="matrix(1, 0, 0, 1, 0, 0)" xlink:href="#radial-gradient-4"/><radialGradient id="radial-gradient-8" cx="1562.7038" cy="155.9933" r="24.3111" gradientTransform="matrix(1, 0, 0, 1, 0, 0)" xlink:href="#radial-gradient-3"/><radialGradient id="radial-gradient-9" cx="1613.8352" cy="130.8901" r="34.5585" gradientTransform="matrix(1, 0, 0, 1, 0, 0)" xlink:href="#radial-gradient-3"/><radialGradient id="radial-gradient-10" cx="1519.2198" cy="165.2599" r="18.5829" gradientTransform="matrix(1, 0, 0, 1, 0, 0)" xlink:href="#radial-gradient-3"/><radialGradient id="radial-gradient-11" cx="1529.4821" cy="153.4396" r="13.9885" gradientTransform="matrix(1, 0, 0, 1, 0, 0)" xlink:href="#radial-gradient-3"/><radialGradient id="radial-gradient-12" cx="1518.7253" cy="165.3484" r="24.14" gradientTransform="matrix(1, 0, 0, 1, 0, 0)" xlink:href="#radial-gradient-4"/><radialGradient id="radial-gradient-13" cx="1549.8495" cy="125.6683" r="31.1019" gradientTransform="matrix(1, 0, 0, 1, 0, 0)" xlink:href="#radial-gradient-4"/><radialGradient id="radial-gradient-14" cx="1575.6243" cy="140.4396" r="14.3372" gradientTransform="matrix(1, 0, 0, 1, 0, 0)" xlink:href="#radial-gradient-3"/><radialGradient id="radial-gradient-15" cx="1585.9517" cy="120.7033" r="25.113" gradientTransform="matrix(1, 0, 0, 1, 0, 0)" xlink:href="#radial-gradient-4"/><radialGradient id="radial-gradient-16" cx="1141.7473" cy="370.0989" r="33.8416" gradientTransform="matrix(1, 0, 0, 1, 0, 0)" xlink:href="#radial-gradient-3"/><radialGradient id="radial-gradient-17" cx="1129.9451" cy="425.6154" r="39.8035" gradientTransform="matrix(1, 0, 0, 1, 0, 0)" xlink:href="#radial-gradient-3"/><radialGradient id="radial-gradient-18" cx="1135.0879" cy="392.5824" r="29.1039" gradientTransform="translate(1805.9813 -558.2813) rotate(112.4697) scale(1 0.6535)" gradientUnits="userSpaceOnUse"><stop offset="0" stop-color="#ffa343"/><stop offset="0.9798" stop-color="#d75641"/></radialGradient><radialGradient id="radial-gradient-19" cx="1086.0989" cy="304.4286" r="71.9473" gradientUnits="userSpaceOnUse"><stop offset="0" stop-color="#522843"/><stop offset="0.2171" stop-color="#582845"/><stop offset="0.5084" stop-color="#69284b"/><stop offset="0.8404" stop-color="#852855"/><stop offset="1" stop-color="#95285b"/></radialGradient><linearGradient id="linear-gradient-2" x1="1014.2555" y1="281.441" x2="1111.6139" y2="281.441" gradientUnits="userSpaceOnUse"><stop offset="0" stop-color="#95285b"/><stop offset="0.1687" stop-color="#95284d"/><stop offset="0.3396" stop-color="#952843"/><stop offset="0.3945" stop-color="#952846"/><stop offset="0.7307" stop-color="#952856"/><stop offset="1" stop-color="#95285b"/></linearGradient><radialGradient id="radial-gradient-20" cx="1071.3297" cy="288.0769" fx="1111.8412604572632" fy="265.81331253654884" r="130.0388" gradientUnits="userSpaceOnUse"><stop offset="0" stop-color="#522843"/><stop offset="1" stop-color="#95285b"/></radialGradient><radialGradient id="radial-gradient-21" cx="981.1319" cy="532.8242" r="207.2276" gradientUnits="userSpaceOnUse"><stop offset="0.0348" stop-color="#522843"/><stop offset="0.6258" stop-color="#7e2853"/><stop offset="1" stop-color="#95285b"/></radialGradient><linearGradient id="linear-gradient-3" x1="889.14" y1="417.1588" x2="1019.0388" y2="417.1588" gradientUnits="userSpaceOnUse"><stop offset="0" stop-color="#95285b"/><stop offset="0.5134" stop-color="#95284b"/><stop offset="0.7353" stop-color="#952843"/><stop offset="0.8998" stop-color="#952850"/><stop offset="1" stop-color="#95285b"/></linearGradient><linearGradient id="linear-gradient-4" x1="1890" y1="-180.7749" x2="2901.1378" y2="-180.7749" gradientTransform="translate(2896.2778 554.8641) rotate(180)" gradientUnits="userSpaceOnUse"><stop offset="0" stop-color="#b11435"/><stop offset="0.0781" stop-color="#b11831"/><stop offset="0.2507" stop-color="#b11d2d"/><stop offset="1" stop-color="#b11435"/></linearGradient><radialGradient id="radial-gradient-22" cx="2243.9369" cy="-58.2967" r="500.4468" gradientTransform="translate(2896.2778 554.8641) rotate(180)" gradientUnits="userSpaceOnUse"><stop offset="0" stop-color="#89112f"/><stop offset="0.5477" stop-color="#a11333"/><stop offset="1" stop-color="#b11435"/></radialGradient><radialGradient id="radial-gradient-23" cx="732.1648" cy="653.8791" r="116.0302" gradientTransform="matrix(1, 0, 0, 1, 0, 0)" xlink:href="#radial-gradient-4"/><radialGradient id="radial-gradient-24" cx="606.7582" cy="746.4505" r="205.3736" gradientTransform="matrix(1, 0, 0, 1, 0, 0)" xlink:href="#radial-gradient-4"/><radialGradient id="radial-gradient-25" cx="842.1429" cy="904.6923" r="300.7312" gradientTransform="matrix(1, 0, 0, 1, 0, 0)" xlink:href="#radial-gradient-3"/><radialGradient id="radial-gradient-26" cx="634.5824" cy="719.022" r="122.687" gradientTransform="matrix(1, 0, 0, 1, 0, 0)" xlink:href="#radial-gradient-4"/><radialGradient id="radial-gradient-27" cx="387.989" cy="759.9011" r="176.9197" gradientTransform="matrix(1, 0, 0, 1, 0, 0)" xlink:href="#radial-gradient-4"/><radialGradient id="radial-gradient-28" cx="525.2637" cy="859.989" r="157.9824" gradientTransform="matrix(1, 0, 0, 1, 0, 0)" xlink:href="#radial-gradient-3"/><radialGradient id="radial-gradient-29" cx="2456.7038" cy="-284.0067" r="24.3111" gradientTransform="translate(2896.2778 554.8641) rotate(180)" xlink:href="#radial-gradient-4"/><radialGradient id="radial-gradient-30" cx="392.4725" cy="855.1099" r="30.9483" gradientTransform="matrix(1, 0, 0, 1, 0, 0)" xlink:href="#radial-gradient-4"/><radialGradient id="radial-gradient-31" cx="2413.2198" cy="-274.7401" r="18.5829" gradientTransform="translate(2896.2778 554.8641) rotate(180)" xlink:href="#radial-gradient-4"/><radialGradient id="radial-gradient-32" cx="472.3846" cy="837.967" r="13.3916" gradientTransform="matrix(1, 0, 0, 1, 0, 0)" xlink:href="#radial-gradient-4"/><radialGradient id="radial-gradient-33" cx="2412.7253" cy="-274.6516" r="24.14" gradientTransform="translate(2896.2778 554.8641) rotate(180)" xlink:href="#radial-gradient-3"/><radialGradient id="radial-gradient-34" cx="2443.8495" cy="-314.3317" r="31.1019" gradientTransform="translate(2896.2778 554.8641) rotate(180)" xlink:href="#radial-gradient-3"/><radialGradient id="radial-gradient-35" cx="424.1209" cy="851.5495" r="13.5285" gradientTransform="matrix(1, 0, 0, 1, 0, 0)" xlink:href="#radial-gradient-4"/><radialGradient id="radial-gradient-36" cx="2479.9517" cy="-319.2967" r="25.113" gradientTransform="translate(2896.2778 554.8641) rotate(180)" xlink:href="#radial-gradient-3"/><radialGradient id="radial-gradient-37" cx="822.3626" cy="619.4615" r="87.1138" gradientTransform="matrix(1, 0, 0, 1, 0, 0)" xlink:href="#radial-gradient-4"/><radialGradient id="radial-gradient-38" cx="850.0549" cy="569.6154" r="47.9482" gradientTransform="matrix(1, 0, 0, 1, 0, 0)" xlink:href="#radial-gradient-4"/><radialGradient id="radial-gradient-39" cx="895.1538" cy="624.6044" r="52.4112" gradientTransform="matrix(1, 0, 0, 1, 0, 0)" xlink:href="#radial-gradient-3"/><radialGradient id="radial-gradient-40" cx="1980.0989" cy="-135.5714" r="71.9473" gradientTransform="translate(2896.2778 554.8641) rotate(180)" gradientUnits="userSpaceOnUse"><stop offset="0.0348" stop-color="#952843"/><stop offset="0.0709" stop-color="#952844"/><stop offset="1" stop-color="#95285b"/></radialGradient><radialGradient id="radial-gradient-41" cx="995.3736" cy="776.5165" r="123.5187" gradientUnits="userSpaceOnUse"><stop offset="0.3503" stop-color="#522843"/><stop offset="0.4848" stop-color="#622849"/><stop offset="0.8212" stop-color="#872856"/><stop offset="1" stop-color="#95285b"/></radialGradient><radialGradient id="radial-gradient-42" cx="1965.3297" cy="-151.9231" fx="2005.8412604572632" fy="-174.18668746345116" r="130.0388" gradientTransform="translate(2896.2778 554.8641) rotate(180)" gradientUnits="userSpaceOnUse"><stop offset="0" stop-color="#952843"/><stop offset="1" stop-color="#95285b"/></radialGradient><radialGradient id="radial-gradient-43" cx="1875.1319" cy="92.8242" r="207.2276" xlink:href="#radial-gradient-40"/><radialGradient id="radial-gradient-44" cx="1132.5165" cy="656.2527" r="179.2765" xlink:href="#radial-gradient-41"/></defs><g id="Layer_1" data-name="Layer 1"><rect x="-172" y="-31" width="2255" height="1180" style="fill:#1a1a1a"/><rect x="2" y="10" width="2255" height="1180" style="fill:#292929"/><path d="M-33,1001,792,785l372-531,205-99L2016-2-48-26l1.8,871.8834Q-39.6,923.4417-33,1001Z" style="fill:#1a1a1a"/></g><g id="right_shape"><g id="red_copy_2" data-name="red copy 2"><path id="main_lower" d="M2007.1378.5861,1865.6224,40.4377q-70.7867,19.7243-141.426,39.9138c-23.5322,6.7858-47.1266,13.313-70.6726,20.0243l-70.6287,20.1427-70.5578,20.3663-35.2522,10.2671L1441.802,161.29c-23.5558,6.7036-46.8315,13.2756-69.62,20.536-12.7347,4.0572-22.93,7.6123-33.7544,11.6556-6.56,2.45-16.2181,6.0731-28.786,11.5176-14.4442,6.2573-24.9616,11.5546-27.95,13.071-3.73,1.8927-8.5457,4.3978-19.3744,10.3983C1249.0311,235.83,1237.92,241.9872,1223,251c-26.1946,15.8237-32.0431,21.0677-36,25-1.4384,1.4294-5.944,6.9651-15,18-14.6533,17.8553-25.2323,31.9438-29,37-8.311,11.1535-8.345,11.732-25.2523,35.0825-4.244,5.8614-6.3189,8.8261-7.5449,10.588l-.0016.0024c-9.5064,17.7585-18.996,36.87-28.2012,57.3271-13.27,29.4909-24.1069,57.6824-33,84l-53-21a840.4089,840.4089,0,0,1,70-127c17.0122-25.255,33.1556-45.9574,42-57,18.8561-23.5428,31.4762-39.3,47-54,33.7046-31.9169,68.803-46.2779,139-75a747.8081,747.8081,0,0,1,72-26c14.3246-4.3125,21.1816-5.8717,70-19,25.4137-6.8343,37.6527-10.2028,48-13,72.6272-19.6337,180.8888-45.9507,235-59,51.5916-12.4417,87.74-21.1592,139-33C1921.2074,19.3994,1973.0057,7.9928,2007.1378.5861Z" style="fill:url(#linear-gradient)"/><path id="main_upper" d="M2007.1378.5861q-143.0535,33.4889-285.655,68.88-142.59,35.4163-284.7232,72.6538c-23.6844,6.2126-47.3627,12.4861-70.7562,19.7316-17.4751,5.4125-30.23,10.0481-33.2164,11.1108C1321.3184,177.0441,1288.1833,189.0973,1246,209c-14.2533,6.7249-29.3347,13.8782-49,25-13.473,7.62-24,13-33,20-7,5-15.7329,17.2015-32,38-6.4153,8.2024-15.8812,20.0012-28,34,0,0-15.06,19.2964-31.844,44.586-33.536,50.5307-66.0742,116.5295-71.656,127.914L952,479c4.8683-11.8752,12.3473-28.8916,23-49,0,0,2.5707-4.8526,5.11-9.4259C994.492,394.67,1014.0939,367.8563,1027,351c0,0,39.72-55.6854,90-113a123.4143,123.4143,0,0,1,18-17,126.4994,126.4994,0,0,1,21-13c22.4531-11.3884,42.5237-19.6567,57-26,14.9006-6.5293,26.2122-11.5238,42-18,26.0608-10.69,38.837-15.0433,45.7838-17.3231,7.876-2.5848,14.3439-4.5192,18.5634-5.7488,12.3808-3.6079,24.7618-7,37.1049-9.955,12.3439-3.0849,24.6489-5.6617,36.851-8.3623l18.2289-3.8681,18.0991-3.7232,36.0858-7.3656,36.0424-7.5086,72.1126-14.8424,72.1489-14.6095,72.165-14.4515q72.1331-14.5332,144.34-28.5849Z" style="fill:url(#radial-gradient)"/></g><g id="orange_copy_2" data-name="orange copy 2"><path d="M1236,275c-1.4677-1.2693-3.4911-2.9829-5.9711-4.97-.3585.3315-.705.6567-1.0289.97-2.1892,2.118-10.3176,10.32-22,20-2.8019,2.3217-3.7283,3.0023-6,5-7.9438,6.9855-18,19-18,19a86.7068,86.7068,0,0,1-22,22,21.5966,21.5966,0,0,1,5.0366.4805,10.85,10.85,0,0,0-2.5549,2.1844A69.7631,69.7631,0,0,0,1160,346a101.1633,101.1633,0,0,0-4,10c-2.6073,7.1394-3.911,10.7092-4,11-2.1766,7.1089-1.6428,8.0168-3.7056,13.8325-.0949.2676-.3986,1.1188-.2944,1.1675.3264.1525,4.0155-7.8693,10-18,0,0,1.2394-2.1191,3-5,2.0726-3.3914,12.5283-20.5,24-33,19.6156-21.3734,54.1879-42.3831,55-43,.474-.36.8964-.7634.8965-.7634a1.34,1.34,0,0,0,.6192-.6447C1241.9609,280.4762,1240.3456,278.7585,1236,275Z" style="fill:url(#radial-gradient-2)"/><path d="M1309.024,223.0251c-2.4162,1.1428-5.039,2.3908-8.3623,4.02q-9.3534,4.5859-18.0324,9.2215c-30.9452,16.6844-45.4116,27.05-52.6266,33.7039,3.94,3.9526,7.8341,7.905,11.1964,11.8569l.9836-1.04,2.6563-2.8077,5.48-5.4593c3.7113-3.5863,7.4737-7.1555,11.3777-10.5737q11.6536-10.334,24.3882-19.6291c3.0507-2.2237,5.9257-4.2394,8.6314-6.0784,7.2581-4.9333,13.1535-8.543,17.792-11.32C1330.12,214.3779,1340.1917,209.3807,1340,209,1339.746,208.4955,1321.8889,216.9408,1309.024,223.0251Z" style="fill:url(#radial-gradient-3)"/><path id="shard_01_upper" d="M1148,382c.7362-5.3745,1.7134-11.0583,3-17a224.1586,224.1586,0,0,1,8-28c6.6707-10.2622,12.5386-18.7271,17-25,14.14-19.882,20.2678-25.6642,24-29,4.8169-4.3054,8.61-6.9288,16-12,18.1851-12.4791,27.9386-17.7169,36-22,27.7246-14.73,87.7372-40.6071,88-40a63.888,63.888,0,0,1-6,3c-13.3469,6.4635-33.988,17.0234-66,35l0,0c-21.3478,14.6766-26.9021,19.6853-29.2587,22.1855-.0322.0342-.3268.3661-.7411.8143-1.5,1.6234-2.8722,2.9583-4,4-3.688,2.5792-18.0536,12.6989-30,23-6.8518,5.9082-11.1528,10.3542-12.5391,11.8073-1.4852,1.5568-3.5257,3.7582-6.4609,7.1927-4.1744,4.8846-10.0691,12.159-17,22-3.0254,5.2035-6.06,10.87-9,17A242.2036,242.2036,0,0,0,1148,382Z" style="fill:url(#radial-gradient-4)"/><path d="M1480.32,184.1223a317.5788,317.5788,0,0,0-64.5809,11.7838c-1.6054.46-2.7493.8018-3.7389,1.0939a438.2261,438.2261,0,0,0-71,28,299.3262,299.3262,0,0,0-32,19c-16.22,11.0489-29.1139,22.1667-28.9465,22.3831.11.1417,5.8925-4.29,10.8361-7.8454a293.3775,293.3775,0,0,1,50.7449-28.958l1.24-.5419,1.2824-.5518,2.5925-1.0907c1.733-.7247,3.4841-1.4237,5.2346-2.12,3.5038-1.3889,7.0379-2.7109,10.5769-4.0037q10.6345-3.8449,21.4243-7.071c7.1726-2.19,14.417-4.039,21.637-5.7849l5.4336-1.1931,2.7112-.5942,2.72-.5169,5.4278-1.0334,5.4309-.8656c7.1819-1.1774,14.5766-1.95,22.0038-2.6611l5.5621-.4817,2.74-.2079.083-.0056.1864-.0221.4267-.0543.34-.0181.68-.0363,1.3585-.0727,5.4207-.2931c.8675-.04,1.8658-.1159,2.8579-.19l2.9612-.2186c3.6189-.29,7.2586-.4791,10.8486-.9759C1482.95,193.7823,1481.6876,188.9392,1480.32,184.1223Z" style="fill:url(#radial-gradient-5)"/><path d="M1604,149c-26.5785,10.1095-49.4268,16.6918-61,20-23.6042,6.7471-44.345,11.56-61,15-.5474.0367-1.1193.0812-1.68.1223,1.3678,4.8169,2.6306,9.66,2.4944,14.8529.3252-.045.6526-.0774.9768-.128,3.848-.9461,7.6642-1.9984,11.4724-3.0576,3.8179-1.021,7.6-2.1547,11.3773-3.2844,1.8874-.5691,3.7814-1.109,5.6591-1.7018l5.6231-1.7974q22.4679-7.2121,44.2-15.9079,21.7058-8.7466,42.7479-18.6295c45.209-21.17,81.9648-42.8871,81.589-43.591C1686.1089,110.2191,1654.2954,129.8694,1604,149Z" style="fill:url(#radial-gradient-6)"/><path id="shard_02_upper" d="M1280.0536,266.3831l-.0062.0047a39.3,39.3,0,0,1,3.0709-2.8015c11.2851-9.6536,16.9277-14.48,24.769-20.3031a335.3479,335.3479,0,0,1,30.2342-19.9961l-.1938.13.4435-.2731,2.28-1.2812,2.5348-1.3834c1.6916-.9179,3.3961-1.8072,5.1024-2.6943,3.4143-1.77,6.8615-3.4734,10.3229-5.15q10.4-4.9962,21.0786-9.41c7.1017-2.9822,14.34-5.6411,21.6175-8.2074l5.5-1.8134,2.7517-.9051,2.7769-.831,5.5566-1.6621,5.6089-1.5009c7.4847-2.0347,15.0459-3.6148,22.605-5.1246l5.6834-1.0831,2.8573-.5165,2.7857-.4523c3.8373-.6145,7.6859-1.2265,11.3934-1.8857l5.6139-.9725,5.5955-1.0789c1.8739-.307,3.7579-.5569,5.63-.88l5.6175-.9676c3.7515-.6151,7.4829-1.3444,11.2166-2.07,1.8658-.3671,3.7381-.7048,5.6-1.0962l5.5813-1.1939q22.3239-4.8,44.3305-11.1488,21.9687-6.4049,43.5977-14.0294c51.0907-17.9567,84.5384-35.5834,84.8512-34.927.3256.6828-35.4485,20.6106-81.46,38.1224-18.5652,7.0658-38.9055,13.6688-43,15-6.1354,1.9948-22.0359,7.1027-43,13-14.447,4.064-27.2766,7.3714-38,10-5.6915.2784-13.61.8255-23,2-27.8937,3.4889-48.4341,9.9981-61,14a405.616,405.616,0,0,0-56,23,322.4473,322.4473,0,0,0-31,18c-3.2382,2.18-6.1287,4.1259-10,7C1293.5282,255.8046,1280.25,266.221,1280.0536,266.3831Z" style="fill:url(#radial-gradient-7)"/><path d="M1556,145a125.1713,125.1713,0,0,1-15,3,5.6165,5.6165,0,0,0,0,1,6.625,6.625,0,0,0,2,4,118.8493,118.8493,0,0,0,31-10l-3-3A125.168,125.168,0,0,1,1556,145Z" style="fill:url(#radial-gradient-8)"/><path d="M1615.067,122.5985l-.1216-.3244c-8.39,2.99-14.8491,5.2969-18.9454,6.7259-1.6949.5912-3.309,1.398-5,2-3.0852,1.0983-5.8722,1.844-6.0544,3.2782A2.3082,2.3082,0,0,0,1585,135a3.296,3.296,0,0,0,1.5724,2.0048q2.6175-1.2753,5.2522-2.5758,2.6223-1.2938,5.2352-2.6015Z" style="fill:url(#radial-gradient-9)"/><path d="M1513.6267,154.54c-1.8225.3924-3.9889.8682-7.0273,1.4121q-3.41.6106-6.5994,1.0477h0a37.4747,37.4747,0,0,0,7.655,1.0251c1.0985.0328,2.5409-.0461,5.38-.2209a93.5423,93.5423,0,0,0,12.1921-1.2291c1.1809-.2187,2.1442-.43,2.7732-.5751l-1-2-1-2C1520.6725,153.0452,1516.509,153.92,1513.6267,154.54Z" style="fill:url(#radial-gradient-10)"/><path d="M1526,150a4.5673,4.5673,0,0,0-1,2,8.929,8.929,0,0,0,0,1h0s.6434.8308.7207.93A11.7269,11.7269,0,0,0,1528,156a12.7467,12.7467,0,0,0-2-6Z" style="fill:url(#radial-gradient-11)"/><path d="M1522,151c-8.1783,2.0732-8.4576,2.32-15,4-1.7075.4384-3.2291.65-6.1793,1.5984-.7891.2535-.8267.3639-.8207.4016.032.2034,1.7827.0973,3,0a138.308,138.308,0,0,0,18-3c.8656-.2077,2.2645-.5488,4-1q.5-1.5,1-3C1525.04,150.2366,1523.6592,150.5794,1522,151Z" style="fill:url(#radial-gradient-12)"/><path d="M1558.35,140.8105l-16.8529,4.2061A8.2561,8.2561,0,0,0,1541,149c2.5431-.3828,5.9807-.9948,10-2,1.3014-.3255,5.1239-1.3006,10-3,2.8728-1.0012,6.2612-2.3055,10-4v-3c-1.9941.7835-4.1829,1.552-6.5571,2.2568C1562.3032,139.892,1560.2638,140.401,1558.35,140.8105Z" style="fill:url(#radial-gradient-13)"/><path d="M1571,137a7.1623,7.1623,0,0,0-.3058,1.6483c0,.0282,0,.277,0,.9991v.0009c0,.4805.5635.8259.7207.93A20.5185,20.5185,0,0,1,1574,143a9.4878,9.4878,0,0,0-3-6Z" style="fill:url(#radial-gradient-14)"/><path d="M1614.9454,122.2741l-.1214-.3245-20.8,7.4043q-4.4895,1.552-8.9954,3.054A3.9522,3.9522,0,0,0,1585,135Z" style="fill:url(#radial-gradient-15)"/><path d="M1136,388c.2574-4.8256.7295-8.1406.7295-8.1406a154.8436,154.8436,0,0,1,4.67-19.5083A97.6462,97.6462,0,0,0,1130,390a8.2248,8.2248,0,0,0,6.0388,2.5473c-.0119-.1511-.0254-.3285-.0388-.5473A33.7635,33.7635,0,0,1,1136,388Z" style="fill:url(#radial-gradient-16)"/><path d="M1130,390c-1.68,2.1735-3.356,4.5045-5,7a115.8661,115.8661,0,0,0-12.79,26.0772l.2892.0968a143.67,143.67,0,0,1,9.5175-14.7648c1.7316-2.3582,3.5043-4.5712,5.353-6.8447a76.5528,76.5528,0,0,1,6.2006-6.4978l1.6378-1.5876.842-.7824c-.0034-.0409-.0078-.1-.0117-.1494a20.8081,20.8081,0,0,1-5.8581-3.3867C1130.12,389.4407,1130.0569,389.7249,1130,390Z" style="fill:url(#radial-gradient-17)"/><path id="shard_04_upper" d="M1141.3993,360.3511A82.5758,82.5758,0,0,0,1131,390c-1.0494,1.2173-2.4489,2.9088-4,5a91.2619,91.2619,0,0,0-8,13,111.4362,111.4362,0,0,0-6.519,15.2178l-.2891-.0967A153.1729,153.1729,0,0,1,1116,407c1.4119-4.8077,2.7153-8.2453,3-9a125.2238,125.2238,0,0,1,8-17A132.3113,132.3113,0,0,1,1141.3993,360.3511Z" style="fill:url(#radial-gradient-18)"/></g><g id="purple_copy_2" data-name="purple copy 2"><path id="shard_02_lower" d="M1111.6139,224.6179l.008-.0058s-.0751.06-.222.1781c-10.6835,8.5757-26.901,25.9377-26.9011,25.9377-9.7951,10.523-15.85,17.0285-23.4988,26.2721-6.2961,7.6094-7.199,9.2513-13.0632,16.1247,0,0-5.114,6.0388-8.7179,10.96-1.3472,1.84-2.344,3.2769-2.9726,4.1809-.2275.3273-.3964.57-.42.6037-.9839,1.4182-6.7233,9.3592-21.8264,30.1308l4-10c.1984-.8536.5367-2.2683,1-4a127.3711,127.3711,0,0,1,30-54c1.6868-1.7651,3.02-3.0546,4-4,4.9037-4.7317,11.37-10.3566,27-21C1085.4722,242.2737,1111.5505,224.6656,1111.6139,224.6179Z" style="fill:url(#radial-gradient-19)"/><path id="shard_02_upper-2" data-name="shard_02_upper" d="M1111.6139,224.6179C1098.4636,233.3544,1087.5271,241.41,1079,248c-19.1862,14.8282-27.1406,22.9857-34,33-1.0892,1.59-2.2789,3.4142-5,8a542.97,542.97,0,0,0-25.7445,49.264c2.9921-16.1155,5.418-28.3434,6.7445-34.264a111.7343,111.7343,0,0,1,5-17,105.7858,105.7858,0,0,1,5-11,33.1649,33.1649,0,0,1,6-9c.3289-.3544.6639-.6864,1-1a263.9212,263.9212,0,0,1,73.6139-41.3821Z" style="fill:url(#linear-gradient-2)"/><path d="M986.4064,319.6947c-10.1383,12.8434-16.2564,20.5775-20.0932,25.6819,10.4185,3.1534,21.9836,2.3436,31.67,6.6442L998,352q1-5.5,2-11c1.6652-9.1584,3.9137-20.2239,5-25,1.8149-7.98,5.5356-20.4252,14-37C1011.1663,288.6381,999.8857,302.619,986.4064,319.6947Z" style="fill:url(#radial-gradient-20)"/><path d="M963.7368,348.8889a407.7744,407.7744,0,0,0-36.9255,63.9522q-7.7473,16.7855-14.0452,34.1953c-4.215,11.5894-7.7236,23.4214-10.9339,35.3285q-4.7479,17.8832-7.8714,36.1621c-2.1846,12.1542-3.7376,24.4256-4.8208,36.7451l2.6515.178c3.4228-12.0783,6.8529-23.94,10.9-35.528,1.984-5.7978,4.0159-11.5423,6.2247-17.2056.8329-2.1357,3.646-9.523,6.7724-16.821C920.8468,473.8547,925.4855,465.1523,932,453c2.4677-4.6033,8.49-15.7195,17-30,5.233-8.7816,10.5445-17.6949,18.3868-29.3651C977.0593,379.2415,985.6863,367.9393,991,361c2.8524-3.7251,5.2679-6.8076,6.9836-8.9792-9.6868-4.3006-21.2519-3.4908-31.67-6.6442C965.3116,346.7092,964.4568,347.8725,963.7368,348.8889Z" style="fill:url(#radial-gradient-21)"/><path id="shard_01_upper-2" data-name="shard_01_upper" d="M1019,279c.557.51-4.981,6.21-10.062,12.76A140.0546,140.0546,0,0,0,991,323c-.0879.2044-.7131,1.7643-1.9712,4.8809C985.7831,335.9214,985.431,336.8131,985,338a93.372,93.372,0,0,0-3,10,66.22,66.22,0,0,0-9.199,9.03s-.4015.4772-.801.97c-19.7512,24.38-38,61-38,61a446.2431,446.2431,0,0,0-26,62,434.9643,434.9643,0,0,0-17.5343,74.3611l-1.3257-.089c.852-12.335,2.1754-24.6433,4.1344-36.8547,0,0,2.8-18.0328,7.2384-36.3887C920.8163,398.0656,953,350,953,350c16.0932-24.14,38.7537-49.8257,62.812-69.0813C1016.571,280.3112,1018.64,278.67,1019,279Z" style="fill:url(#linear-gradient-3)"/></g></g><g id="right_shape_copy" data-name="right_shape copy"><g id="red_copy_3" data-name="red copy 3"><path id="main_lower-2" data-name="main_lower" d="M-4.86,994.278l141.5153-39.8517q70.7868-19.7241,141.4261-39.9137c23.5322-6.7859,47.1265-13.313,70.6726-20.0244l70.6286-20.1427,70.5579-20.3663,35.2522-10.2671,35.2831-10.1377c23.5558-6.7036,46.8315-13.2756,69.62-20.536,12.7348-4.0573,22.93-7.6124,33.7544-11.6556,6.56-2.45,16.2182-6.0732,28.786-11.5176,14.4442-6.2574,24.9617-11.5546,27.95-13.071,3.73-1.8928,8.5456-4.3978,19.3744-10.3983,13.2857-7.362,24.3969-13.519,39.3169-22.5318,26.1946-15.8238,32.0431-21.0678,36-25,1.4383-1.4294,5.9439-6.9652,15-18,14.6533-17.8553,25.2323-31.9438,29-37,8.311-11.1535,8.3449-11.7321,25.2523-35.0825,4.244-5.8614,6.3188-8.8262,7.5449-10.588l.0016-.0024c9.5078-17.718,19.0028-36.83,28.2012-57.3271C933.51,531.3784,944.2448,503.2224,953,477l53.2778,20.864a840.4059,840.4059,0,0,1-70,127c-17.0122,25.255-33.1557,45.9574-42,57-18.8561,23.5428-31.4762,39.2995-47,54-33.7046,31.9168-68.803,46.2779-139,75a747.8354,747.8354,0,0,1-72,26c-14.3246,4.3125-21.1817,5.8717-70,19-25.4137,6.8342-37.6527,10.2027-48,13-72.6272,19.6336-180.8888,45.9506-235,59-51.5916,12.4417-87.74,21.1592-139,33C81.07,975.4647,29.272,986.8713-4.86,994.278Z" style="fill:url(#linear-gradient-4)"/><path id="main_upper-2" data-name="main_upper" d="M-4.86,994.278q143.0535-33.4889,285.655-68.88,142.59-35.4163,284.7231-72.6537c23.6845-6.2126,47.3628-12.4861,70.7563-19.7316,17.4751-5.4126,30.23-10.0481,33.2164-11.1108,11.4686-4.0816,44.6036-16.1347,86.787-36.0374,14.2533-6.725,29.3347-13.8782,49-25,13.473-7.62,24-13,33-20,7-5,15.7329-17.2015,32-38,6.4153-8.2024,15.8812-20.0012,28-34,0,0,15.06-19.2965,31.844-44.586,33.536-50.5307,66.0741-116.53,71.656-127.9141L1049,517a337.5593,337.5593,0,0,1-23.7222,51.8641c-1.3965,2.4883-2.4331,4.2706-3.11,5.4262-6.2792,10.7187-17.443,28.29-46.89,69.5738,0,0-39.72,55.6853-90,113a123.4253,123.4253,0,0,1-18,17,126.5131,126.5131,0,0,1-21,13c-22.4532,11.3883-42.5237,19.6566-57,26-14.9007,6.5292-26.2122,11.5238-42,18-26.0608,10.69-38.8371,15.0432-45.7838,17.3231-7.876,2.5848-14.3439,4.5192-18.5634,5.7487-12.3809,3.6079-24.7618,7-37.105,9.955-12.3438,3.0849-24.6488,5.6617-36.8509,8.3624l-18.2289,3.8681-18.0991,3.7231L536.5609,887.21l-36.0424,7.5087-72.1127,14.8423-72.1488,14.61-72.165,14.4516q-72.1332,14.5332-144.34,28.5849Z" style="fill:url(#radial-gradient-22)"/></g><g id="orange_copy_3" data-name="orange copy 3"><path d="M766.3256,719.9027c1.4688,1.2679,3.4939,2.98,5.9757,4.9643.3582-.3317.7045-.6573,1.028-.9709,2.1873-2.12,10.308-10.3294,21.9813-20.0206,2.8-2.3243,3.7254-3.0058,5.9953-5.0056,7.9373-6.993,17.9821-19.0168,17.9822-19.0169a86.7119,86.7119,0,0,1,21.9794-22.0206,21.5914,21.5914,0,0,1-5.0371-.4758,10.85,10.85,0,0,0,2.5529-2.1868,69.759,69.759,0,0,0,3.4757-6.3383,101.1361,101.1361,0,0,0,3.9907-10.0038c2.6006-7.1418,3.9009-10.7128,3.99-11.0037,2.17-7.1109,1.6353-8.0183,3.6926-13.8359.0947-.2678.3976-1.1192.2933-1.1678-.3266-.1523-4.0081,7.873-9.9831,18.0093,0,0-1.2374,2.12-2.9953,5.0028-2.0695,3.3934-12.5092,20.5121-23.9691,33.0225-19.5956,21.3917-54.1482,42.4339-54.96,43.0515-.4737.3605-.8957.7642-.8958.7643a1.34,1.34,0,0,0-.6186.6453C760.36,714.432,761.9765,716.1482,766.3256,719.9027Z" style="fill:url(#radial-gradient-23)"/><path d="M693.2537,771.8389c2.4163-1.1427,5.0391-2.3907,8.3623-4.02q9.3534-4.586,18.0325-9.2214c30.9452-16.6844,45.4116-27.05,52.6266-33.704-3.94-3.9525-7.8341-7.9049-11.1964-11.8568l-.9837,1.0395-2.6562,2.8078-5.48,5.4593c-3.7113,3.5862-7.4738,7.1555-11.3777,10.5736q-11.6538,10.3341-24.3882,19.6292c-3.0508,2.2237-5.9258,4.2393-8.6315,6.0784-7.258,4.9332-13.1534,8.543-17.792,11.32-17.6118,10.5421-27.6832,15.5394-27.4915,15.92C662.5318,786.3686,680.3889,777.9233,693.2537,771.8389Z" style="fill:url(#radial-gradient-24)"/><path id="shard_01_upper-3" data-name="shard_01_upper" d="M854.2778,612.8641c-.7362,5.3745-1.7134,11.0582-3,17a224.1977,224.1977,0,0,1-8,28c-6.6707,10.2622-12.5386,18.7271-17,25-14.14,19.8819-20.2679,25.6641-24,29-4.8169,4.3053-8.61,6.9288-16,12-18.1851,12.4791-27.9386,17.7169-36,22-27.7246,14.73-87.7372,40.607-88,40a63.84,63.84,0,0,1,6-3c13.3469-6.4636,33.988-17.0234,66-35l0,0c21.3478-14.6766,26.9021-19.6853,29.2587-22.1855.0322-.0342.3268-.3661.7411-.8143,1.5-1.6235,2.8722-2.9584,4-4,3.688-2.5793,18.0536-12.6989,30-23,6.8518-5.9082,11.1528-10.3543,12.539-11.8073,1.4853-1.5568,3.5258-3.7582,6.461-7.1927,4.1744-4.8846,10.0691-12.159,17-22,3.0254-5.2035,6.06-10.87,9-17A242.2114,242.2114,0,0,0,854.2778,612.8641Z" style="fill:url(#radial-gradient-25)"/><path d="M521.9579,810.7418a317.574,317.574,0,0,0,64.581-11.7839c1.6053-.46,2.7492-.8018,3.7389-1.0938a438.239,438.239,0,0,0,71-28,299.343,299.343,0,0,0,32-19c16.22-11.0489,29.1139-22.1668,28.9465-22.3832-.11-.1416-5.8926,4.29-10.8362,7.8455a293.3706,293.3706,0,0,1-50.7449,28.9579l-1.24.5419-1.2823.5519-2.5925,1.0907c-1.7331.7247-3.4842,1.4237-5.2346,2.12-3.5038,1.3888-7.0379,2.7108-10.577,4.0036q-10.6345,3.845-21.4243,7.071c-7.1726,2.19-14.417,4.039-21.6369,5.7849l-5.4336,1.1931-2.7112.5942-2.7205.5169-5.4277,1.0335-5.4309.8656c-7.1819,1.1773-14.5767,1.95-22.0038,2.661l-5.5621.4817-2.74.2079-.083.0057-.1864.022-.4266.0544-.34.0181-.68.0362-1.3586.0727-5.4206.2932c-.8676.04-1.8659.1159-2.8579.19l-2.9612.2185c-3.6189.2895-7.2587.4791-10.8486.9759C519.3273,801.0818,520.59,805.9248,521.9579,810.7418Z" style="fill:url(#radial-gradient-26)"/><path d="M398.2778,845.8641c26.5785-10.11,49.4267-16.6919,61-20,23.6042-6.7472,44.3449-11.56,61-15,.5473-.0368,1.1192-.0813,1.68-.1223-1.3678-4.817-2.6306-9.66-2.4943-14.853-.3252.045-.6526.0774-.9768.128-3.8481.9462-7.6642,1.9985-11.4725,3.0577-3.8178,1.021-7.6,2.1546-11.3773,3.2844-1.8873.5691-3.7813,1.1089-5.659,1.7018l-5.6231,1.7973q-22.4679,7.2123-44.2,15.908-21.7058,8.7466-42.748,18.6294c-45.209,21.17-81.9647,42.8872-81.589,43.5911C316.1689,884.645,347.9824,864.9946,398.2778,845.8641Z" style="fill:url(#radial-gradient-27)"/><path id="shard_02_upper-3" data-name="shard_02_upper" d="M722.2242,728.4809l.0062-.0046a39.3546,39.3546,0,0,1-3.0709,2.8015c-11.2852,9.6536-16.9277,14.48-24.7691,20.303a335.3223,335.3223,0,0,1-30.2341,19.9962l.1937-.13-.4434.2732-2.2806,1.2812-2.5348,1.3833c-1.6915.918-3.3961,1.8072-5.1024,2.6944-3.4143,1.77-6.8614,3.4734-10.3228,5.15q-10.4,4.9962-21.0787,9.41c-7.1016,2.9822-14.3394,5.6411-21.6174,8.2075l-5.5,1.8134-2.7517.905-2.7769.8311-5.5566,1.6621-5.6089,1.5009c-7.4848,2.0346-15.0459,3.6148-22.605,5.1246l-5.6835,1.0831-2.8573.5165-2.7856.4522c-3.8373.6146-7.6859,1.2266-11.3934,1.8858l-5.6139.9724-5.5955,1.0789c-1.8739.307-3.7579.5569-5.63.88l-5.6176.9676c-3.7514.615-7.4829,1.3443-11.2165,2.07-1.8659.3671-3.7382.7047-5.6,1.0961l-5.5813,1.194q-22.3239,4.8-44.3305,11.1487-21.9688,6.405-43.5978,14.0295c-51.0907,17.9567-84.5383,35.5833-84.8512,34.927-.3255-.6828,35.4485-20.6107,81.46-38.1224,18.5652-7.0658,38.9055-13.6688,43-15,6.1353-1.9948,22.0359-7.1028,43-13,14.447-4.0641,27.2766-7.3715,38-10,5.6915-.2784,13.61-.8256,23-2,27.8936-3.4889,48.4341-9.9982,61-14a405.6214,405.6214,0,0,0,56-23,322.4717,322.4717,0,0,0,31-18c3.2381-2.18,6.1286-4.126,10-7C708.75,739.06,722.028,728.6431,722.2242,728.4809Z" style="fill:url(#radial-gradient-28)"/><path d="M446.2778,849.8641a125.1516,125.1516,0,0,1,15-3,5.6354,5.6354,0,0,0,0-1,6.6244,6.6244,0,0,0-2-4,118.8493,118.8493,0,0,0-31,10l3,3A125.15,125.15,0,0,1,446.2778,849.8641Z" style="fill:url(#radial-gradient-29)"/><path d="M387.2108,872.2655l.1215.3245c8.39-2.99,14.8492-5.297,18.9455-6.7259,1.6949-.5913,3.3089-1.398,5-2,3.0852-1.0983,5.8722-1.844,6.0544-3.2782a2.3145,2.3145,0,0,0-.0544-.7218,3.296,3.296,0,0,0-1.5724-2.0048q-2.6175,1.2752-5.2522,2.5758-2.6223,1.2937-5.2352,2.6014Z" style="fill:url(#radial-gradient-30)"/><path d="M488.6511,840.3238c1.8225-.3923,3.9889-.8681,7.0273-1.4121q3.41-.6105,6.5994-1.0476h0a37.4808,37.4808,0,0,0-7.6551-1.0252c-1.0985-.0327-2.5409.0461-5.38.221a93.5405,93.5405,0,0,0-12.1921,1.2291c-1.1809.2187-2.1442.43-2.7732.5751q.5,1,1,2t1,2C481.6053,841.8188,485.7687,840.9443,488.6511,840.3238Z" style="fill:url(#radial-gradient-31)"/><path d="M476.2778,844.8641a4.5684,4.5684,0,0,0,1-2,8.929,8.929,0,0,0,0-1h0s-.6435-.8309-.7207-.93a11.7268,11.7268,0,0,0-2.2793-2.07,12.7476,12.7476,0,0,0,2,6Z" style="fill:url(#radial-gradient-32)"/><path d="M480.2778,843.8641c8.1783-2.0732,8.4576-2.32,15-4,1.7075-.4384,3.2291-.65,6.1793-1.5984.7891-.2536.8267-.3639.8207-.4016-.032-.2034-1.7827-.0973-3,0a138.2858,138.2858,0,0,0-18,3c-.8656.2076-2.2646.5488-4,1q-.5,1.5-1,3C477.2377,844.6275,478.6186,844.2847,480.2778,843.8641Z" style="fill:url(#radial-gradient-33)"/><path d="M443.9278,854.0536l16.8529-4.2061a8.2561,8.2561,0,0,0,.4971-3.9834c-2.5431.3827-5.9807.9948-10,2-1.3014.3254-5.1239,1.3006-10,3-2.8728,1.0012-6.2613,2.3055-10,4v3c1.9941-.7835,4.1828-1.552,6.5571-2.2569C439.9745,854.9721,442.014,854.4631,443.9278,854.0536Z" style="fill:url(#radial-gradient-34)"/><path d="M431.2778,857.8641a7.1679,7.1679,0,0,0,.3058-1.6484c0-.0282,0-.2769,0-.9991v-.0009c0-.48-.5635-.8258-.7207-.93a20.5067,20.5067,0,0,1-2.5851-2.4219,9.4878,9.4878,0,0,0,3,6Z" style="fill:url(#radial-gradient-35)"/><path d="M387.3323,872.59l.1215.3245,20.8-7.4043q4.49-1.5522,8.9955-3.0541a3.952,3.952,0,0,0,.0286-2.592Z" style="fill:url(#radial-gradient-36)"/><path d="M866.2778,606.8641c-.2575,4.8255-.7295,8.14-.7295,8.1406a154.8622,154.8622,0,0,1-4.67,19.5083,97.6462,97.6462,0,0,0,11.3993-29.6489,8.2248,8.2248,0,0,0-6.0388-2.5473c.0119.151.0253.3284.0388.5473A33.7635,33.7635,0,0,1,866.2778,606.8641Z" style="fill:url(#radial-gradient-37)"/><path d="M872.2778,604.8641c1.68-2.1736,3.3559-4.5046,5-7a115.8616,115.8616,0,0,0,12.79-26.0773l-.2892-.0967a143.64,143.64,0,0,1-9.5174,14.7647c-1.7316,2.3582-3.5043,4.5713-5.353,6.8448a76.5528,76.5528,0,0,1-6.2006,6.4978l-1.6378,1.5875-.8421.7825c.0035.0408.0078.0995.0118.1494a20.8115,20.8115,0,0,1,5.8581,3.3866C872.1575,605.4233,872.2209,605.1391,872.2778,604.8641Z" style="fill:url(#radial-gradient-38)"/><path id="shard_04_upper-2" data-name="shard_04_upper" d="M860.8785,634.513a82.5758,82.5758,0,0,0,10.3993-29.6489c1.0494-1.2174,2.4488-2.9088,4-5a91.277,91.277,0,0,0,8-13,111.4436,111.4436,0,0,0,6.519-15.2179l.2891.0968a153.2041,153.2041,0,0,1-3.8081,16.1211c-1.4119,4.8077-2.7154,8.2453-3,9a125.2369,125.2369,0,0,1-8,17A132.3113,132.3113,0,0,1,860.8785,634.513Z" style="fill:url(#radial-gradient-39)"/></g><g id="purple_copy_3" data-name="purple copy 3"><path id="shard_02_lower-2" data-name="shard_02_lower" d="M890.6639,770.2462l-.0081.0058s.0752-.06.2221-.1781c10.6834-8.5758,26.901-25.9377,26.9011-25.9378,9.795-10.523,15.85-17.0284,23.4988-26.272,6.2961-7.6094,7.1989-9.2514,13.0632-16.1247,0,0,5.114-6.0388,8.7179-10.96,1.3472-1.84,2.344-3.2768,2.9725-4.1808.2276-.3273.3965-.57.42-.6037.9838-1.4183,6.7232-9.3592,21.8264-30.1308q-2,5-4,10c-.1984.8536-.5367,2.2683-1,4a127.3722,127.3722,0,0,1-30,54c-1.6868,1.765-3.02,3.0546-4,4-4.9037,4.7316-11.37,10.3565-27,21C916.8056,752.59,890.7272,770.1984,890.6639,770.2462Z" style="fill:url(#radial-gradient-40)"/><path id="shard_02_upper-4" data-name="shard_02_upper" d="M890.6639,770.2462c13.15-8.7365,24.0868-16.7919,32.6139-23.3821,19.1861-14.8282,27.1406-22.9858,34-33,1.0892-1.59,2.2789-3.4143,5-8A542.9888,542.9888,0,0,0,988.0223,656.6c-2.9921,16.1156-5.418,28.3435-6.7445,34.2641a111.7376,111.7376,0,0,1-5,17,105.8054,105.8054,0,0,1-5,11,33.1687,33.1687,0,0,1-6,9c-.3289.3544-.664.6864-1,1a263.9212,263.9212,0,0,1-73.6139,41.3821Z" style="fill:url(#radial-gradient-41)"/><path d="M1015.8713,675.1694c10.1384-12.8434,16.2565-20.5776,20.0932-25.6819-10.4184-3.1535-21.9835-2.3436-31.67-6.6442l-.0163.0208q-1,5.5-2,11c-1.6653,9.1584-3.9137,20.2239-5,25-1.815,7.98-5.5356,20.4252-14,37C991.1115,706.2259,1002.392,692.245,1015.8713,675.1694Z" style="fill:url(#radial-gradient-42)"/><path d="M1038.541,645.9752a407.78,407.78,0,0,0,36.9256-63.9522q7.7471-16.7856,14.0451-34.1953c4.2149-11.5894,7.7235-23.4214,10.9339-35.3286q4.7478-17.883,7.8713-36.1621c2.1846-12.1541,3.7377-24.4255,4.8209-36.7451l-2.6515-.178c-3.4228,12.0783-6.853,23.94-10.9,35.528-1.984,5.7979-4.016,11.5423-6.2247,17.2057-.833,2.1356-3.646,9.5229-6.7725,16.8209-5.1582,12.0409-9.7969,20.7433-16.3113,32.8956-2.4677,4.6032-8.49,15.72-17,30-5.233,8.7816-10.5445,17.6949-18.3869,29.365-9.6724,14.3935-18.3,25.6957-23.6131,32.635-2.8524,3.7251-5.268,6.8075-6.9837,8.9792,9.6869,4.3006,21.252,3.4907,31.6705,6.6442C1036.9662,648.1549,1037.821,646.9916,1038.541,645.9752Z" style="fill:url(#radial-gradient-43)"/><path id="shard_01_upper-4" data-name="shard_01_upper" d="M983.2778,715.8641c-.557-.5106,4.9809-6.21,10.062-12.76a140.061,140.061,0,0,0,17.938-31.24c.0879-.2044.7131-1.7643,1.9712-4.8809,3.2456-8.0405,3.5977-8.9322,4.0288-10.1191a93.3792,93.3792,0,0,0,3-10,66.226,66.226,0,0,0,9.199-9.03s.4015-.4772.801-.97c19.7512-24.38,38-61,38-61a446.2734,446.2734,0,0,0,26-62,434.9666,434.9666,0,0,0,17.5343-74.3611l1.3257.089c-.852,12.335-2.1754,24.6432-4.1344,36.8547,0,0-2.8,18.0328-7.2384,36.3886-20.3035,83.9632-52.4872,132.0287-52.4872,132.0288-16.0932,24.14-38.7537,49.8257-62.812,69.0813C985.7068,714.5529,983.6381,716.1943,983.2778,715.8641Z" style="fill:url(#radial-gradient-44)"/></g></g></svg>