<svg xmlns="http://www.w3.org/2000/svg" xmlns:xlink="http://www.w3.org/1999/xlink" viewBox="0 0 1000 2000"><defs><linearGradient id="linear-gradient" x1="698" y1="955.293" x2="1709.1378" y2="955.293" gradientTransform="matrix(0, 1, 1, 0, -694.8641, 291)" gradientUnits="userSpaceOnUse"><stop offset="0" stop-color="#b11435"/><stop offset="0.089" stop-color="#9b1232"/><stop offset="0.174" stop-color="#8e1130"/><stop offset="0.2507" stop-color="#89112f"/><stop offset="0.2892" stop-color="#8c112f"/><stop offset="0.7373" stop-color="#a71333"/><stop offset="1" stop-color="#b11435"/></linearGradient><radialGradient id="radial-gradient" cx="1051.1401" cy="1077.7033" r="501.035" gradientTransform="matrix(0, 1, 1, 0, -694.8641, 291)" gradientUnits="userSpaceOnUse"><stop offset="0" stop-color="#cb272d"/><stop offset="0.0754" stop-color="#c8252e"/><stop offset="0.6046" stop-color="#b71833"/><stop offset="1" stop-color="#b11435"/></radialGradient><radialGradient id="radial-gradient-2" cx="917.6418" cy="1076.0603" r="109.2848" gradientTransform="matrix(0, 1, 1, 0, -694.8641, 291)" gradientUnits="userSpaceOnUse"><stop offset="0" stop-color="#b11d2d"/><stop offset="0.3464" stop-color="#c43937"/><stop offset="0.7433" stop-color="#d75641"/><stop offset="0.9118" stop-color="#d65440"/></radialGradient><radialGradient id="radial-gradient-3" cx="1008.5988" cy="933.9665" r="116.0992" gradientTransform="matrix(0.0011, 1, 1, -0.0011, -695.7045, 291.7984)" gradientUnits="userSpaceOnUse"><stop offset="0" stop-color="#b11d2d"/><stop offset="1" stop-color="#d75641"/></radialGradient><radialGradient id="radial-gradient-4" cx="932.89" cy="1007.6227" r="114.3276" gradientTransform="matrix(0.7268, -0.6869, -0.4475, -0.4735, 85.7341, 2341.8156)" gradientUnits="userSpaceOnUse"><stop offset="0.2032" stop-color="#ffa343"/><stop offset="0.5471" stop-color="#ea7b42"/><stop offset="0.832" stop-color="#dc6041"/><stop offset="1" stop-color="#d75641"/></radialGradient><radialGradient id="radial-gradient-5" cx="1063.3714" cy="970.3626" r="195.5397" gradientTransform="matrix(0, 1, 1, 0, -694.8641, 291)" xlink:href="#radial-gradient-3"/><radialGradient id="radial-gradient-6" cx="1336.1429" cy="892.1648" r="148.4044" gradientTransform="matrix(0, 1, 1, 0, -694.8641, 291)" xlink:href="#radial-gradient-3"/><radialGradient id="radial-gradient-7" cx="1205.8571" cy="945.044" r="161.7355" gradientTransform="matrix(0, 1, 1, 0, -694.8641, 291)" xlink:href="#radial-gradient-4"/><radialGradient id="radial-gradient-8" cx="1264.7038" cy="851.9933" r="24.3111" gradientTransform="matrix(0, 1, 1, 0, -694.8641, 291)" xlink:href="#radial-gradient-3"/><radialGradient id="radial-gradient-9" cx="1315.8352" cy="826.8901" r="34.5585" gradientTransform="matrix(0, 1, 1, 0, -694.8641, 291)" xlink:href="#radial-gradient-3"/><radialGradient id="radial-gradient-10" cx="1221.2198" cy="861.2599" r="18.5829" gradientTransform="matrix(0, 1, 1, 0, -694.8641, 291)" xlink:href="#radial-gradient-3"/><radialGradient id="radial-gradient-11" cx="1231.4821" cy="849.4396" r="13.9885" gradientTransform="matrix(0, 1, 1, 0, -694.8641, 291)" xlink:href="#radial-gradient-3"/><radialGradient id="radial-gradient-12" cx="1220.7253" cy="861.3484" r="24.14" gradientTransform="matrix(0, 1, 1, 0, -694.8641, 291)" xlink:href="#radial-gradient-4"/><radialGradient id="radial-gradient-13" cx="1251.8495" cy="821.6683" r="31.1019" gradientTransform="matrix(0, 1, 1, 0, -694.8641, 291)" xlink:href="#radial-gradient-4"/><radialGradient id="radial-gradient-14" cx="1277.6243" cy="836.4396" r="14.3372" gradientTransform="matrix(0, 1, 1, 0, -694.8641, 291)" xlink:href="#radial-gradient-3"/><radialGradient id="radial-gradient-15" cx="1287.9517" cy="816.7033" r="25.113" gradientTransform="matrix(0, 1, 1, 0, -694.8641, 291)" xlink:href="#radial-gradient-4"/><radialGradient id="radial-gradient-16" cx="843.7473" cy="1066.0989" r="33.8416" gradientTransform="matrix(0, 1, 1, 0, -694.8641, 291)" xlink:href="#radial-gradient-3"/><radialGradient id="radial-gradient-17" cx="831.9451" cy="1121.6154" r="39.8035" gradientTransform="matrix(0, 1, 1, 0, -694.8641, 291)" xlink:href="#radial-gradient-3"/><radialGradient id="radial-gradient-18" cx="837.0879" cy="1088.5824" r="29.1039" gradientTransform="matrix(0.9241, -0.3822, -0.2498, -0.6039, -107.9383, 2105.3796)" gradientUnits="userSpaceOnUse"><stop offset="0" stop-color="#ffa343"/><stop offset="0.9798" stop-color="#d75641"/></radialGradient><radialGradient id="radial-gradient-19" cx="788.0989" cy="1000.4286" r="71.9473" gradientTransform="matrix(0, 1, 1, 0, -694.8641, 291)" gradientUnits="userSpaceOnUse"><stop offset="0" stop-color="#522843"/><stop offset="0.2171" stop-color="#582845"/><stop offset="0.5084" stop-color="#69284b"/><stop offset="0.8404" stop-color="#852855"/><stop offset="1" stop-color="#95285b"/></radialGradient><linearGradient id="linear-gradient-2" x1="716.2555" y1="977.441" x2="813.6139" y2="977.441" gradientTransform="matrix(0, 1, 1, 0, -694.8641, 291)" gradientUnits="userSpaceOnUse"><stop offset="0" stop-color="#95285b"/><stop offset="0.1687" stop-color="#95284d"/><stop offset="0.3396" stop-color="#952843"/><stop offset="0.3945" stop-color="#952846"/><stop offset="0.7307" stop-color="#952856"/><stop offset="1" stop-color="#95285b"/></linearGradient><radialGradient id="radial-gradient-20" cx="773.3297" cy="984.0868" fx="813.8677998418381" fy="961.8086541203315" r="130.124" gradientTransform="matrix(0, 1, 1, 0, -694.8641, 291)" gradientUnits="userSpaceOnUse"><stop offset="0" stop-color="#522843"/><stop offset="1" stop-color="#95285b"/></radialGradient><radialGradient id="radial-gradient-21" cx="683.1319" cy="1228.8242" r="207.2276" gradientTransform="matrix(0, 1, 1, 0, -694.8641, 291)" gradientUnits="userSpaceOnUse"><stop offset="0.0348" stop-color="#522843"/><stop offset="0.6258" stop-color="#7e2853"/><stop offset="1" stop-color="#95285b"/></radialGradient><linearGradient id="linear-gradient-3" x1="591.14" y1="1113.1588" x2="721.0388" y2="1113.1588" gradientTransform="matrix(0, 1, 1, 0, -694.8641, 291)" gradientUnits="userSpaceOnUse"><stop offset="0" stop-color="#95285b"/><stop offset="0.5134" stop-color="#95284b"/><stop offset="0.7353" stop-color="#952843"/><stop offset="0.8998" stop-color="#952850"/><stop offset="1" stop-color="#95285b"/></linearGradient><linearGradient id="linear-gradient-4" x1="1188" y1="123.2251" x2="2199.1378" y2="123.2251" gradientTransform="matrix(0, -1, -1, 0, 860, 2187.2778)" gradientUnits="userSpaceOnUse"><stop offset="0" stop-color="#b11435"/><stop offset="0.0781" stop-color="#b11831"/><stop offset="0.2507" stop-color="#b11d2d"/><stop offset="1" stop-color="#b11435"/></linearGradient><radialGradient id="radial-gradient-22" cx="1541.9369" cy="245.7033" r="500.4468" gradientTransform="matrix(0, -1, -1, 0, 860, 2187.2778)" gradientUnits="userSpaceOnUse"><stop offset="0" stop-color="#89112f"/><stop offset="0.5477" stop-color="#a11333"/><stop offset="1" stop-color="#b11435"/></radialGradient><radialGradient id="radial-gradient-23" cx="434.1648" cy="1349.8791" r="116.0302" gradientTransform="matrix(0, 1, 1, 0, -694.8641, 291)" xlink:href="#radial-gradient-4"/><radialGradient id="radial-gradient-24" cx="308.7582" cy="1442.4505" r="205.3736" gradientTransform="matrix(0, 1, 1, 0, -694.8641, 291)" xlink:href="#radial-gradient-4"/><radialGradient id="radial-gradient-25" cx="544.1429" cy="1600.6923" r="300.7312" gradientTransform="matrix(0, 1, 1, 0, -694.8641, 291)" xlink:href="#radial-gradient-3"/><radialGradient id="radial-gradient-26" cx="336.2001" cy="1415.022" r="122.9427" gradientTransform="matrix(0, 1, 1, 0, -694.8641, 291)" xlink:href="#radial-gradient-4"/><radialGradient id="radial-gradient-27" cx="89.989" cy="1455.9011" r="176.9197" gradientTransform="matrix(0, 1, 1, 0, -694.8641, 291)" xlink:href="#radial-gradient-4"/><radialGradient id="radial-gradient-28" cx="227.2637" cy="1555.989" r="157.9824" gradientTransform="matrix(0, 1, 1, 0, -694.8641, 291)" xlink:href="#radial-gradient-3"/><radialGradient id="radial-gradient-29" cx="1754.7038" cy="19.9933" r="24.3111" gradientTransform="matrix(0, -1, -1, 0, 860, 2187.2778)" xlink:href="#radial-gradient-4"/><radialGradient id="radial-gradient-30" cx="94.4725" cy="1551.1099" r="30.9483" gradientTransform="matrix(0, 1, 1, 0, -694.8641, 291)" xlink:href="#radial-gradient-4"/><radialGradient id="radial-gradient-31" cx="1711.2198" cy="29.2599" r="18.5829" gradientTransform="matrix(0, -1, -1, 0, 860, 2187.2778)" xlink:href="#radial-gradient-4"/><radialGradient id="radial-gradient-32" cx="174.3846" cy="1533.967" r="13.3916" gradientTransform="matrix(0, 1, 1, 0, -694.8641, 291)" xlink:href="#radial-gradient-4"/><radialGradient id="radial-gradient-33" cx="1710.7253" cy="29.3484" r="24.14" gradientTransform="matrix(0, -1, -1, 0, 860, 2187.2778)" xlink:href="#radial-gradient-3"/><radialGradient id="radial-gradient-34" cx="1741.8495" cy="-10.3317" r="31.1019" gradientTransform="matrix(0, -1, -1, 0, 860, 2187.2778)" xlink:href="#radial-gradient-3"/><radialGradient id="radial-gradient-35" cx="126.1209" cy="1547.5495" r="13.5285" gradientTransform="matrix(0, 1, 1, 0, -694.8641, 291)" xlink:href="#radial-gradient-4"/><radialGradient id="radial-gradient-36" cx="1777.9517" cy="-15.2967" r="25.113" gradientTransform="matrix(0, -1, -1, 0, 860, 2187.2778)" xlink:href="#radial-gradient-3"/><radialGradient id="radial-gradient-37" cx="524.3626" cy="1315.4615" r="87.1138" gradientTransform="matrix(0, 1, 1, 0, -694.8641, 291)" xlink:href="#radial-gradient-4"/><radialGradient id="radial-gradient-38" cx="552.0549" cy="1265.6154" r="47.9482" gradientTransform="matrix(0, 1, 1, 0, -694.8641, 291)" xlink:href="#radial-gradient-4"/><radialGradient id="radial-gradient-39" cx="597.1538" cy="1320.6044" r="52.4112" gradientTransform="matrix(0, 1, 1, 0, -694.8641, 291)" xlink:href="#radial-gradient-3"/><radialGradient id="radial-gradient-40" cx="1278.0989" cy="168.4286" r="71.9473" gradientTransform="matrix(0, -1, -1, 0, 860, 2187.2778)" gradientUnits="userSpaceOnUse"><stop offset="0.0348" stop-color="#952843"/><stop offset="0.0709" stop-color="#952844"/><stop offset="1" stop-color="#95285b"/></radialGradient><radialGradient id="radial-gradient-41" cx="697.3736" cy="1472.5165" r="123.5187" gradientTransform="matrix(0, 1, 1, 0, -694.8641, 291)" gradientUnits="userSpaceOnUse"><stop offset="0.3503" stop-color="#522843"/><stop offset="0.4848" stop-color="#622849"/><stop offset="0.8212" stop-color="#872856"/><stop offset="1" stop-color="#95285b"/></radialGradient><radialGradient id="radial-gradient-42" cx="1263.3297" cy="152.155" fx="1304.0503480271575" fy="129.77648276486926" r="130.7098" gradientTransform="matrix(0, -1, -1, 0, 860, 2187.2778)" gradientUnits="userSpaceOnUse"><stop offset="0" stop-color="#952843"/><stop offset="1" stop-color="#95285b"/></radialGradient><radialGradient id="radial-gradient-43" cx="1173.1319" cy="396.8242" r="207.2276" xlink:href="#radial-gradient-40"/><radialGradient id="radial-gradient-44" cx="834.5165" cy="1352.2527" r="179.2765" xlink:href="#radial-gradient-41"/></defs><g id="Layer_1" data-name="Layer 1"><rect x="-534.5" y="520.5" width="2255" height="1180" transform="translate(1703.5 517.5) rotate(90)" style="fill:#1a1a1a"/><path d="M1012-72Q920,308.5,828,689L721,867,265,1140,148,1350-17,2075Q-25,1004-33-67l871.8834,1.8Z" style="fill:#292929"/></g><g id="right_shape"><g id="red_copy_2" data-name="red copy 2"><path id="main_lower" d="M1.722,2000.1378l39.8517-141.5154q19.7241-70.7867,39.9137-141.426c6.7858-23.5322,13.313-47.1266,20.0243-70.6726l20.1428-70.6287,20.3663-70.5578,10.2671-35.2522,10.1377-35.2831c6.7036-23.5558,13.2756-46.8315,20.536-69.62,4.0572-12.7347,7.6124-22.93,11.6556-33.7544,2.45-6.56,6.0732-16.2181,11.5176-28.786,6.2573-14.4442,11.5546-24.9616,13.071-27.95,1.8928-3.73,4.3979-8.5457,10.3983-19.3744,7.362-13.2858,13.519-24.397,22.5318-39.3169,15.8237-26.1946,21.0678-32.0431,25-36,1.4294-1.4384,6.9652-5.944,18-15,17.8553-14.6533,31.9438-25.2323,37-29,11.1535-8.311,11.7321-8.345,35.0826-25.2523,5.8613-4.244,8.826-6.3189,10.5879-7.5449l.0025-.0016c17.7584-9.5064,36.87-18.996,57.327-28.2012,29.4909-13.27,57.6825-24.1069,84-33l-21-53a840.4089,840.4089,0,0,0-127,70c-25.255,17.0122-45.9574,33.1556-57,42-23.5428,18.8561-39.2995,31.4762-54,47-31.9168,33.7046-46.2779,68.803-75,139a747.8354,747.8354,0,0,0-26,72c-4.3125,14.3246-5.8717,21.1816-19,70-6.8342,25.4137-10.2027,37.6527-13,48-19.6336,72.6272-45.9506,180.8888-59,235-12.4417,51.5916-21.1592,87.74-33,139C20.5353,1914.2074,9.1287,1966.0057,1.722,2000.1378Z" style="fill:url(#linear-gradient)"/><path id="main_upper" d="M1.722,2000.1378q33.4889-143.0535,68.88-285.655,35.4164-142.59,72.6537-284.7232c6.2126-23.6844,12.4861-47.3627,19.7316-70.7562,5.4125-17.4751,10.0481-30.23,11.1108-33.2164,4.0816-11.4686,16.1347-44.6037,36.0374-86.787,6.725-14.2533,13.8782-29.3347,25-49,7.62-13.473,13-24,20-33,5-7,17.2015-15.7329,38-32,8.2024-6.4153,20.0012-15.8812,34-28,0,0,19.2965-15.06,44.586-31.844,50.5307-33.536,116.53-66.0742,127.914-71.656l-19.5-48.5c-11.8751,4.8683-28.8915,12.3473-49,23,0,0-4.8525,2.5707-9.4258,5.11-25.9038,14.3821-52.7178,33.984-69.5742,46.89,0,0-55.6854,39.72-113,90a123.42,123.42,0,0,0-17,18,126.5062,126.5062,0,0,0-13,21c-11.3883,22.4531-19.6566,42.5237-26,57-6.5292,14.9006-11.5238,26.2122-18,42-10.69,26.0608-15.0433,38.837-17.3231,45.7838-2.5848,7.876-4.5192,14.3439-5.7487,18.5634-3.6079,12.3808-7,24.7618-9.9551,37.1049-3.0848,12.3439-5.6616,24.6489-8.3623,36.851l-3.8681,18.2289-3.7231,18.0991-7.3656,36.0858-7.5087,36.0424-14.8423,72.1126-14.6095,72.1489-14.4516,72.165q-14.5332,72.1331-28.5849,144.34Q15.2575,1927.832,1.722,2000.1378Z" style="fill:url(#radial-gradient)"/></g><g id="orange_copy_2" data-name="orange copy 2"><path d="M276.1359,1229c-1.2693-1.4677-2.9829-3.4911-4.97-5.9711.3314-.3585.6566-.705.97-1.0289,2.1181-2.1892,10.32-10.3176,20-22,2.3217-2.8019,3.0024-3.7283,5-6,6.9856-7.9438,19-18,19-18a86.7068,86.7068,0,0,0,22-22,21.5921,21.5921,0,0,0,.4806,5.0366,10.8479,10.8479,0,0,1,2.1844-2.5549,69.7588,69.7588,0,0,1,6.335-3.4817,101.1633,101.1633,0,0,1,10-4c7.1394-2.6073,10.7092-3.911,11-4,7.1089-2.1766,8.0168-1.6428,13.8325-3.7056.2676-.0949,1.1188-.3986,1.1675-.2944.1526.3264-7.8693,4.0155-18,10,0,0-2.1191,1.2394-5,3-3.3914,2.0726-20.5,12.5283-33,24-21.3733,19.6156-42.3831,54.1879-43,55-.36.474-.7633.8964-.7634.8965a1.34,1.34,0,0,1-.6447.6192C281.6122,1234.9609,279.8944,1233.3456,276.1359,1229Z" style="fill:url(#radial-gradient-2)"/><path d="M224.1611,1302.024c1.1427-2.4162,2.3907-5.039,4.02-8.3623q4.5859-9.3534,9.2214-18.0324c16.6845-30.9452,27.05-45.4116,33.704-52.6266,3.9525,3.94,7.9049,7.8341,11.8568,11.1964l-1.0395.9836-2.8078,2.6563-5.4593,5.48c-3.5862,3.7113-7.1555,7.4737-10.5736,11.3777q-10.3341,11.6536-19.6291,24.3882c-2.2238,3.0507-4.24,5.9257-6.0785,8.6314-4.9332,7.2581-8.543,13.1535-11.32,17.792-10.5422,17.6118-15.5394,27.6833-15.92,27.4916C209.6314,1332.746,218.0767,1314.8889,224.1611,1302.024Z" style="fill:url(#radial-gradient-3)"/><path id="shard_01_upper" d="M383.1359,1141c-5.3745.7362-11.0582,1.7134-17,3a224.1636,224.1636,0,0,0-28,8c-10.2622,6.6707-18.7271,12.5386-25,17-19.8819,14.14-25.6641,20.2678-29,24-4.3053,4.8169-6.9288,8.61-12,16-12.4791,18.1851-17.7169,27.9386-22,36-14.73,27.7246-40.607,87.7372-40,88a63.857,63.857,0,0,0,3-6c6.4636-13.3469,17.0234-33.988,35-66l0,0c14.6766-21.3478,19.6853-26.9021,22.1855-29.2587.0342-.0322.3661-.3268.8143-.7411,1.6235-1.5,2.9584-2.8722,4-4,2.5793-3.688,12.6989-18.0536,23-30,5.9082-6.8518,10.3543-11.1528,11.8073-12.5391,1.5568-1.4852,3.7582-3.5257,7.1927-6.4609,4.8846-4.1744,12.159-10.0691,22-17,5.2035-3.0254,10.87-6.06,17-9A242.2114,242.2114,0,0,1,383.1359,1141Z" style="fill:url(#radial-gradient-4)"/><path d="M185.2582,1473.32a317.5732,317.5732,0,0,1,11.7839-64.5809c.46-1.6054.8018-2.7493,1.0938-3.7389a438.2354,438.2354,0,0,1,28-71,299.343,299.343,0,0,1,19-32c11.0489-16.22,22.1668-29.1139,22.3832-28.9465.1416.11-4.29,5.8925-7.8455,10.8361a293.3784,293.3784,0,0,0-28.9579,50.7449q-.2711.62-.5419,1.24l-.5519,1.2824-1.0907,2.5925c-.7247,1.733-1.4237,3.4841-2.12,5.2346-1.3888,3.5038-2.7108,7.0379-4.0036,10.5769q-3.845,10.6345-7.071,21.4243c-2.19,7.1726-4.039,14.417-5.7849,21.637l-1.1931,5.4336-.5942,2.7112-.5169,2.72-1.0335,5.4278-.8656,5.4309c-1.1773,7.1819-1.95,14.5766-2.661,22.0038l-.4817,5.5621-.2079,2.74-.0057.083-.022.1864c-.0219.1716-.0544.4267-.0544.4267l-.0181.34-.0362.68-.0727,1.3585-.2932,5.4207c-.04.8675-.1159,1.8658-.19,2.8579l-.2185,2.9612c-.29,3.6189-.4791,7.2586-.9759,10.8486-.3.2645-4.11,3.5068-8.9753,2.1858A9.879,9.879,0,0,1,185.2582,1473.32Z" style="fill:url(#radial-gradient-5)"/><path d="M150.1359,1597c10.1095-26.5785,16.6919-49.4268,20-61,6.7472-23.6042,11.56-44.345,15-61,.0368-.5474.0813-1.1193.1223-1.68,4.817,1.3678,9.66,2.6306,14.853,2.4944-.045.3252-.0774.6526-.128.9768-.9462,3.848-1.9985,7.6642-3.0577,11.4724-1.021,3.8179-2.1546,7.6-3.2844,11.3773-.5691,1.8874-1.1089,3.7814-1.7018,5.6591l-1.7973,5.6231q-7.2123,22.4679-15.908,44.2-8.7467,21.7058-18.6294,42.7479c-21.17,45.209-42.8872,81.9648-43.5911,81.589C111.355,1679.1089,131.0054,1647.2954,150.1359,1597Z" style="fill:url(#radial-gradient-6)"/><path id="shard_02_upper" d="M267.5191,1273.0536l.0046-.0062a39.3546,39.3546,0,0,0-2.8015,3.0709c-9.6536,11.2851-14.48,16.9277-20.303,24.769a335.3253,335.3253,0,0,0-19.9962,30.2342l.13-.1938-.2732.4435q-.6406,1.14-1.2812,2.28l-1.3833,2.5348c-.918,1.6916-1.8072,3.3961-2.6944,5.1024-1.77,3.4143-3.4734,6.8615-5.15,10.3229q-4.9962,10.4-9.41,21.0786c-2.9822,7.1017-5.6411,14.34-8.2075,21.6175l-1.8134,5.5-.905,2.7517-.8311,2.7769-1.6621,5.5566-1.5009,5.6089c-2.0346,7.4847-3.6148,15.0459-5.1246,22.605l-1.0831,5.6834-.5165,2.8573-.4522,2.7857c-.6146,3.8373-1.2266,7.6859-1.8858,11.3934l-.9724,5.6139-1.0789,5.5955c-.307,1.8739-.5569,3.7579-.8805,5.63l-.9676,5.6175c-.615,3.7515-1.3443,7.4829-2.07,11.2166-.3671,1.8658-.7047,3.7381-1.0961,5.6l-1.194,5.5813q-4.8,22.3239-11.1487,44.3305-6.405,21.9687-14.03,43.5977c-17.9567,51.0907-35.5833,84.5384-34.927,84.8512.6828.3256,20.6107-35.4485,38.1224-81.46,7.0658-18.5652,13.6688-38.9055,15-43,1.9948-6.1354,7.1028-22.0359,13-43,4.0641-14.447,7.3715-27.2766,10-38,.2784-5.6915.8256-13.61,2-23,3.4889-27.8937,9.9982-48.4341,14-61a405.616,405.616,0,0,1,23-56,322.4717,322.4717,0,0,1,18-31c2.18-3.2382,4.126-6.1287,7-10C256.9405,1286.5282,267.3569,1273.25,267.5191,1273.0536Z" style="fill:url(#radial-gradient-7)"/><path d="M146.1359,1549a125.1516,125.1516,0,0,0,3-15,5.6165,5.6165,0,0,1,1,0,6.6244,6.6244,0,0,1,4,2,118.8493,118.8493,0,0,1-10,31l-3-3A125.15,125.15,0,0,0,146.1359,1549Z" style="fill:url(#radial-gradient-8)"/><path d="M123.7345,1608.067l-.3245-.1216c2.99-8.39,5.297-14.8491,6.7259-18.9454.5913-1.6949,1.398-3.309,2-5,1.0983-3.0852,1.844-5.8722,3.2782-6.0544a2.3082,2.3082,0,0,1,.7218.0544,3.296,3.296,0,0,1,2.0048,1.5724q-1.2751,2.6175-2.5758,5.2522-1.2937,2.6223-2.6014,5.2352Z" style="fill:url(#radial-gradient-9)"/><path d="M155.6762,1506.6267c.3923-1.8225.8681-3.9889,1.4121-7.0273q.61-3.41,1.0476-6.5994h0a37.4807,37.4807,0,0,1,1.0252,7.655c.0327,1.0985-.0461,2.5409-.221,5.38a93.5423,93.5423,0,0,1-1.2291,12.1921c-.2187,1.1809-.43,2.1442-.5751,2.7732l-2-1-2-1C154.1812,1513.6725,155.0557,1509.509,155.6762,1506.6267Z" style="fill:url(#radial-gradient-10)"/><path d="M151.1359,1519a4.5673,4.5673,0,0,1,2-1,8.929,8.929,0,0,1,1,0h0s.8309.6434.93.7207a11.7236,11.7236,0,0,1,2.07,2.2793,12.7476,12.7476,0,0,1-6-2Z" style="fill:url(#radial-gradient-11)"/><path d="M152.1359,1515c2.0732-8.1783,2.32-8.4576,4-15,.4384-1.7075.65-3.2291,1.5984-6.1793.2536-.7891.3639-.8267.4016-.8207.2034.032.0973,1.7827,0,3a138.2893,138.2893,0,0,1-3,18c-.2076.8656-.5488,2.2645-1,4l-3,1C151.3725,1518.04,151.7153,1516.6592,152.1359,1515Z" style="fill:url(#radial-gradient-12)"/><path d="M141.9464,1551.35l4.2061-16.8529a8.2561,8.2561,0,0,1,3.9834-.4971c-.3827,2.5431-.9948,5.9807-2,10-.3254,1.3014-1.3006,5.1239-3,10-1.0012,2.8728-2.3055,6.2612-4,10h-3c.7835-1.9941,1.552-4.1829,2.2569-6.5571C141.0279,1555.3032,141.5369,1553.2638,141.9464,1551.35Z" style="fill:url(#radial-gradient-13)"/><path d="M138.1359,1564a7.1619,7.1619,0,0,1,1.6484-.3058h1c.48,0,.8258.5635.93.7207A20.5067,20.5067,0,0,0,144.1359,1567a9.4878,9.4878,0,0,1-6-3Z" style="fill:url(#radial-gradient-14)"/><path d="M123.41,1607.9454l-.3245-.1214,7.4043-20.8q1.5522-4.4895,3.0541-8.9954a3.952,3.952,0,0,1,2.592-.0286S131.7623,1588.2917,123.41,1607.9454Z" style="fill:url(#radial-gradient-15)"/><path d="M389.1359,1129c-4.8255.2574-8.14.7295-8.1406.7295a154.8436,154.8436,0,0,0-19.5083,4.67A97.6462,97.6462,0,0,1,391.1359,1123a8.2248,8.2248,0,0,1,2.5473,6.0388c-.151-.0119-.3284-.0254-.5473-.0388A33.7635,33.7635,0,0,0,389.1359,1129Z" style="fill:url(#radial-gradient-16)"/><path d="M391.1359,1123c2.1736-1.68,4.5046-3.356,7-5a115.8667,115.8667,0,0,1,26.0773-12.79l.0967.2892a143.6582,143.6582,0,0,0-14.7647,9.5175c-2.3582,1.7316-4.5713,3.5043-6.8448,5.353a76.5528,76.5528,0,0,0-6.4978,6.2006l-1.5875,1.6378-.7825.842c-.0408-.0034-.1-.0078-.1494-.0117a20.81,20.81,0,0,0-3.3866-5.8581C390.5767,1123.12,390.8609,1123.0569,391.1359,1123Z" style="fill:url(#radial-gradient-17)"/><path id="shard_04_upper" d="M361.487,1134.3993A82.5758,82.5758,0,0,1,391.1359,1124c1.2174-1.0494,2.9088-2.4489,5-4a91.2675,91.2675,0,0,1,13-8,111.4436,111.4436,0,0,1,15.2179-6.519l-.0968-.2891A153.1787,153.1787,0,0,0,408.1359,1109c-4.8077,1.4119-8.2453,2.7153-9,3a125.2238,125.2238,0,0,0-17,8A132.3113,132.3113,0,0,0,361.487,1134.3993Z" style="fill:url(#radial-gradient-18)"/></g><g id="purple_copy_2" data-name="purple copy 2"><path id="shard_02_lower" d="M225.7538,1104.6139l-.0058.008c.0005,0,.06-.0751.1781-.222,8.5758-10.6835,25.9377-26.901,25.9378-26.9011,10.523-9.7951,17.0284-15.85,26.272-23.4988,7.6094-6.2961,9.2514-7.199,16.1247-13.0632,0,0,6.0388-5.114,10.96-8.7179,1.8395-1.3472,3.2768-2.344,4.1808-2.9726.3273-.2275.57-.3964.6037-.42,1.4183-.9839,9.3592-6.7233,30.1308-21.8264l-10,4c-.8536.1984-2.2683.5367-4,1a127.3711,127.3711,0,0,0-54,30c-1.765,1.6868-3.0546,3.02-4,4-4.7316,4.9037-10.3565,11.37-21,27C243.41,1078.4722,225.8016,1104.5505,225.7538,1104.6139Z" style="fill:url(#radial-gradient-19)"/><path id="shard_02_upper-2" data-name="shard_02_upper" d="M225.7538,1104.6139c8.7365-13.15,16.7919-24.0868,23.3821-32.6139,14.8282-19.1862,22.9858-27.1406,33-34,1.59-1.0892,3.4143-2.2789,8-5A542.9888,542.9888,0,0,1,339.4,1007.2555c-16.1156,2.9921-28.3435,5.418-34.2641,6.7445a111.7376,111.7376,0,0,0-17,5,105.8054,105.8054,0,0,0-11,5,33.1664,33.1664,0,0,0-9,6c-.3544.3289-.6864.6639-1,1a263.9212,263.9212,0,0,0-41.3821,73.6139Z" style="fill:url(#linear-gradient-2)"/><path d="M320.8306,979.4064c12.8434-10.1383,20.5776-16.2564,25.6819-20.0932a63.65,63.65,0,0,1,6.6442,31.67l-.0208.0164-11,2c-9.1584,1.6652-20.2239,3.9137-25,5-7.9795,1.8149-20.4252,5.5356-37,14C289.7741,1004.1663,303.755,992.8857,320.8306,979.4064Z" style="fill:url(#radial-gradient-20)"/><path d="M350.0248,956.7368a407.7789,407.7789,0,0,1,63.9522-36.9255q16.7856-7.7473,34.1953-14.0452c11.5894-4.215,23.4214-7.7236,35.3286-10.9339q17.883-4.7479,36.1621-7.8714c12.1541-2.1846,24.4255-3.7376,36.745-4.8208l.1781,2.6515c-12.0783,3.4228-23.94,6.8529-35.528,10.9-5.7979,1.984-11.5423,4.0159-17.2057,6.2247-2.1356.8329-9.5229,3.646-16.821,6.7724-12.0408,5.1582-20.7432,9.7969-32.8955,16.3114-4.6032,2.4677-15.7194,8.49-30,17-8.7816,5.233-17.6949,10.5445-29.365,18.3868-14.3935,9.6725-25.6957,18.2995-32.635,23.6132-3.7251,2.8524-6.8075,5.2679-8.9792,6.9836-4.3006-9.6868-3.4907-21.2519-6.6442-31.67C347.8451,958.3116,349.0084,957.4568,350.0248,956.7368Z" style="fill:url(#radial-gradient-21)"/><path id="shard_01_upper-2" data-name="shard_01_upper" d="M280.1359,1012c.5106.557,6.21-4.981,12.76-10.062A140.0569,140.0569,0,0,1,324.1359,984c.2044-.0879,1.7643-.7131,4.8809-1.9712,8.0405-3.2457,8.9322-3.5978,10.1191-4.0288a93.3792,93.3792,0,0,1,10-3,66.226,66.226,0,0,1,9.03-9.199s.4772-.4015.97-.801c24.38-19.7512,61-38,61-38a446.2485,446.2485,0,0,1,62-26,434.9666,434.9666,0,0,1,74.3611-17.5343l-.089-1.3257c-12.335.852-24.6432,2.1754-36.8547,4.1344,0,0-18.0328,2.8-36.3886,7.2384C399.2015,913.8163,351.136,946,351.1359,946c-24.14,16.0932-49.8257,38.7537-69.0813,62.812C281.4471,1009.571,279.8057,1011.64,280.1359,1012Z" style="fill:url(#linear-gradient-3)"/></g></g><g id="right_shape_copy" data-name="right_shape copy"><g id="red_copy_3" data-name="red copy 3"><path id="main_lower-2" data-name="main_lower" d="M995.4139-11.86,955.5623,129.6553q-19.7243,70.7868-39.9138,141.4261c-6.7858,23.5322-13.313,47.1265-20.0243,70.6726l-20.1427,70.6286-20.3663,70.5579L844.848,518.1927,834.71,553.4758c-6.7036,23.5558-13.2756,46.8315-20.536,69.62-4.0572,12.7348-7.6123,22.93-11.6556,33.7544-2.45,6.56-6.0731,16.2182-11.5176,28.786-6.2573,14.4442-11.5546,24.9617-13.071,27.95-1.8927,3.73-4.3978,8.5456-10.3983,19.3744-7.362,13.2857-13.519,24.3969-22.5318,39.3169-15.8237,26.1946-21.0677,32.0431-25,36-1.4294,1.4383-6.9651,5.9439-18,15-17.8553,14.6533-31.9438,25.2323-37,29-11.1535,8.311-11.732,8.3449-35.0825,25.2523-5.8614,4.244-8.8261,6.3188-10.588,7.5449l-.0024.0016c-17.718,9.5078-36.83,19.0028-57.3271,28.2012C532.5143,926.51,504.3583,937.2448,478.1359,946L499,999.2778a840.4089,840.4089,0,0,0,127-70c25.255-17.0122,45.9574-33.1557,57-42,23.5428-18.8561,39.3-31.4762,54-47,31.9169-33.7046,46.2779-68.803,75-139a747.7808,747.7808,0,0,0,26-72c4.3125-14.3246,5.8717-21.1817,19-70,6.8342-25.4137,10.2028-37.6527,13-48,19.6337-72.6272,45.9506-180.8888,59-235,12.4417-51.5916,21.1592-87.74,33-139C976.6006,74.07,988.0072,22.272,995.4139-11.86Z" style="fill:url(#linear-gradient-4)"/><path id="main_upper-2" data-name="main_upper" d="M995.4139-11.86q-33.4889,143.0535-68.88,285.655-35.4163,142.59-72.6537,284.7231c-6.2126,23.6845-12.4861,47.3628-19.7316,70.7563-5.4125,17.4751-10.0481,30.23-11.1108,33.2164-4.0816,11.4686-16.1347,44.6036-36.0374,86.787-6.725,14.2533-13.8782,29.3347-25,49-7.62,13.473-13,24-20,33-5,7-17.2015,15.7329-38,32-8.2024,6.4153-20.0011,15.8812-34,28,0,0-19.2964,15.06-44.586,31.844-50.5307,33.536-116.5295,66.0741-127.914,71.656L518.1359,1042A337.5593,337.5593,0,0,0,570,1018.2778c2.4883-1.3965,4.2706-2.4331,5.4262-3.11,10.7188-6.2792,28.29-17.443,69.5738-46.89,0,0,55.6854-39.72,113-90a123.4143,123.4143,0,0,0,17-18,126.5062,126.5062,0,0,0,13-21c11.3884-22.4532,19.6566-42.5237,26-57,6.5293-14.9007,11.5238-26.2122,18-42,10.69-26.0608,15.0433-38.8371,17.3231-45.7838,2.5848-7.876,4.5192-14.3439,5.7488-18.5634,3.6079-12.3809,7-24.7618,9.955-37.105,3.0849-12.3438,5.6617-24.6488,8.3623-36.8509l3.8681-18.2289,3.7231-18.0991,7.3657-36.0858,7.5086-36.0424,14.8423-72.1127,14.61-72.1488,14.4516-72.165q14.5332-72.1332,28.5849-144.34Q981.8786,60.4458,995.4139-11.86Z" style="fill:url(#radial-gradient-22)"/></g><g id="orange_copy_3" data-name="orange copy 3"><path d="M721.0386,759.3256c1.268,1.4688,2.98,3.4939,4.9644,5.9757-.3318.3582-.6574.7045-.971,1.028-2.12,2.1873-10.3294,10.308-20.0206,21.9813-2.3242,2.8-3.0058,3.7254-5.0056,5.9953-6.993,7.9373-19.0167,17.9821-19.0168,17.9822a86.7076,86.7076,0,0,0-22.0206,21.9794,21.5923,21.5923,0,0,0-.4759-5.0371,10.8525,10.8525,0,0,1-2.1867,2.5529,69.7632,69.7632,0,0,1-6.3384,3.4757,101.1427,101.1427,0,0,1-10.0037,3.9907c-7.1419,2.6006-10.7128,3.9009-11.0038,3.99-7.1109,2.17-8.0183,1.6353-13.8359,3.6926-.2677.0947-1.1192.3976-1.1678.2933-.1522-.3266,7.8731-4.0081,18.0094-9.9831,0,0,2.12-1.2374,5.0028-2.9953,3.3934-2.0695,20.5121-12.5092,33.0224-23.9691,21.3918-19.5956,42.4339-54.1482,43.0515-54.96.3605-.4737.7642-.8957.7643-.8958a1.34,1.34,0,0,1,.6453-.6186C715.568,753.36,717.2842,754.9765,721.0386,759.3256Z" style="fill:url(#radial-gradient-23)"/><path d="M772.9749,686.2537c-1.1428,2.4163-2.3908,5.0391-4.02,8.3623q-4.5859,9.3534-9.2215,18.0325c-16.6844,30.9452-27.05,45.4116-33.7039,52.6266-3.9525-3.94-7.905-7.8341-11.8569-11.1964l1.04-.9837,2.8078-2.6562,5.4592-5.48c3.5863-3.7113,7.1556-7.4738,10.5737-11.3777q10.3339-11.6538,19.6291-24.3882c2.2238-3.0508,4.2394-5.9258,6.0784-8.6315,4.9333-7.258,8.543-13.1534,11.32-17.792,10.5422-17.6118,15.5394-27.6832,15.92-27.4915C787.5045,655.5318,779.0592,673.3889,772.9749,686.2537Z" style="fill:url(#radial-gradient-24)"/><path id="shard_01_upper-3" data-name="shard_01_upper" d="M614,847.2778c5.3745-.7362,11.0583-1.7134,17-3a224.1928,224.1928,0,0,0,28-8c10.2622-6.6707,18.7271-12.5386,25-17,19.882-14.14,25.6642-20.2679,29-24,4.3054-4.8169,6.9288-8.61,12-16,12.4791-18.1851,17.7169-27.9386,22-36,14.73-27.7246,40.6071-87.7372,40-88a63.8715,63.8715,0,0,0-3,6c-6.4635,13.3469-17.0234,33.988-35,66l0,0c-14.6766,21.3478-19.6853,26.9021-22.1855,29.2587-.0342.0322-.3661.3268-.8143.7411-1.6234,1.5-2.9583,2.8722-4,4-2.5792,3.688-12.6989,18.0536-23,30-5.9082,6.8518-10.3542,11.1528-11.8073,12.539-1.5568,1.4853-3.7582,3.5258-7.1927,6.461-4.8846,4.1744-12.159,10.0691-22,17-5.2035,3.0254-10.87,6.06-17,9A242.2036,242.2036,0,0,1,614,847.2778Z" style="fill:url(#radial-gradient-25)"/><path d="M811.8778,514.9579a317.5879,317.5879,0,0,1-11.7839,64.581c-.46,1.6053-.8018,2.7492-1.0939,3.7389a438.22,438.22,0,0,1-28,71,299.3262,299.3262,0,0,1-19,32c-11.0489,16.22-22.1667,29.1139-22.3831,28.9465-.1417-.11,4.29-5.8926,7.8455-10.8362A293.3772,293.3772,0,0,0,766.42,653.6432q.2709-.62.5419-1.24l.5519-1.2823,1.0907-2.5925c.7246-1.7331,1.4237-3.4842,2.12-5.2346,1.3889-3.5038,2.7109-7.0379,4.0037-10.577q3.845-10.6345,7.071-21.4243c2.19-7.1726,4.039-14.417,5.7849-21.6369l1.1931-5.4336.5942-2.7112.5169-2.7205,1.0334-5.4277.8656-5.4309c1.1774-7.1819,1.95-14.5767,2.6611-22.0038l.4817-5.5621.2079-2.74.0057-.083.022-.1864c.0219-.1715.0543-.4266.0543-.4266l.0181-.34.0363-.68.0727-1.3586.2931-5.4206c.04-.8676.1159-1.8659.19-2.8579l.2186-2.9612q.1488-2.6335.41-5.4352.2877-3.0463.6768-5.877a18.712,18.712,0,0,1,14.7419,2.9579Z" style="fill:url(#radial-gradient-26)"/><path d="M847,391.2778c-10.11,26.5785-16.6918,49.4267-20,61-6.7471,23.6042-11.56,44.3449-15,61-.0367.5473-.0812,1.1192-.1222,1.68-4.817-1.3678-9.66-2.6306-14.853-2.4943.045-.3252.0774-.6526.128-.9768.9462-3.8481,1.9985-7.6642,3.0577-11.4725,1.021-3.8178,2.1546-7.6,3.2843-11.3773.5691-1.8873,1.109-3.7813,1.7018-5.659l1.7974-5.6231q7.2121-22.4679,15.9079-44.2,8.7466-21.7058,18.63-42.748c21.17-45.209,42.8871-81.9647,43.5911-81.589C885.781,309.1689,866.1306,340.9824,847,391.2778Z" style="fill:url(#radial-gradient-27)"/><path id="shard_02_upper-3" data-name="shard_02_upper" d="M729.6169,715.2242l-.0047.0062a39.3,39.3,0,0,0,2.8015-3.0709c9.6536-11.2852,14.48-16.9277,20.3031-24.7691a335.3449,335.3449,0,0,0,19.9961-30.2341l-.13.1937.2731-.4434q.6407-1.14,1.2812-2.2806l1.3834-2.5348c.9179-1.6915,1.8072-3.3961,2.6943-5.1024,1.77-3.4143,3.4734-6.8614,5.15-10.3228q4.9962-10.4,9.41-21.0787c2.9822-7.1016,5.6411-14.3394,8.2074-21.6174l1.8134-5.5.9051-2.7517.831-2.7769,1.6621-5.5566,1.5009-5.6089c2.0347-7.4848,3.6148-15.0459,5.1246-22.605l1.0831-5.6835.5165-2.8573.4523-2.7856c.6145-3.8373,1.2265-7.6859,1.8857-11.3934l.9725-5.6139,1.0789-5.5955c.307-1.8739.5569-3.7579.88-5.63l.9676-5.6176c.6151-3.7514,1.3444-7.4829,2.07-11.2165.3671-1.8659.7048-3.7382,1.0962-5.6l1.1939-5.5813q4.8-22.3239,11.1488-44.3305,6.4048-21.9688,14.0294-43.5978c17.9567-51.0907,35.5834-84.5383,34.927-84.8512-.6828-.3255-20.6106,35.4485-38.1224,81.46-7.0658,18.5652-13.6688,38.9055-15,43-1.9948,6.1353-7.1027,22.0359-13,43-4.064,14.447-7.3714,27.2766-10,38-.2784,5.6915-.8255,13.61-2,23-3.4889,27.8936-9.9981,48.4341-14,61a405.6214,405.6214,0,0,1-23,56,322.4473,322.4473,0,0,1-18,31c-2.18,3.2381-4.1259,6.1286-7,10C740.1954,701.75,729.779,715.028,729.6169,715.2242Z" style="fill:url(#radial-gradient-28)"/><path d="M851,439.2778a125.1713,125.1713,0,0,0-3,15,5.6354,5.6354,0,0,1-1,0,6.625,6.625,0,0,1-4-2,118.8493,118.8493,0,0,1,10-31l3,3A125.168,125.168,0,0,0,851,439.2778Z" style="fill:url(#radial-gradient-29)"/><path d="M873.4015,380.2108l.3244.1215c-2.99,8.39-5.2969,14.8492-6.7259,18.9455-.5912,1.6949-1.398,3.3089-2,5-1.0983,3.0852-1.844,5.8722-3.2782,6.0544a2.3145,2.3145,0,0,1-.7218-.0544,3.296,3.296,0,0,1-2.0048-1.5724q1.2753-2.6175,2.5758-5.2522,1.2937-2.6223,2.6015-5.2352Z" style="fill:url(#radial-gradient-30)"/><path d="M841.46,481.6511c-.3924,1.8225-.8682,3.9889-1.4121,7.0273q-.6106,3.41-1.0477,6.5994h0a37.4748,37.4748,0,0,1-1.0251-7.6551c-.0328-1.0985.0461-2.5409.2209-5.38a93.5405,93.5405,0,0,1,1.2291-12.1921c.2187-1.1809.4305-2.1442.5751-2.7732l2,1,2,1C842.9548,474.6053,842.08,478.7687,841.46,481.6511Z" style="fill:url(#radial-gradient-31)"/><path d="M846,469.2778a4.5684,4.5684,0,0,1-2,1,8.929,8.929,0,0,1-1,0h0s-.8308-.6435-.93-.7207a11.73,11.73,0,0,1-2.07-2.2793,12.7467,12.7467,0,0,1,6,2Z" style="fill:url(#radial-gradient-32)"/><path d="M845,473.2778c-2.0732,8.1783-2.32,8.4576-4,15-.4384,1.7075-.65,3.2291-1.5984,6.1793-.2535.7891-.3639.8267-.4016.8207-.2034-.032-.0973-1.7827,0-3a138.3045,138.3045,0,0,1,3-18c.2077-.8656.5488-2.2646,1-4l3-1C845.7634,470.2377,845.4206,471.6186,845,473.2778Z" style="fill:url(#radial-gradient-33)"/><path d="M855.19,436.9278l-4.2061,16.8529a8.2561,8.2561,0,0,1-3.9834.4971c.3828-2.5431.9948-5.9807,2-10,.3255-1.3014,1.3006-5.1239,3-10,1.0012-2.8728,2.3055-6.2613,4-10h3c-.7835,1.9941-1.552,4.1828-2.2568,6.5571C856.108,432.9745,855.599,435.014,855.19,436.9278Z" style="fill:url(#radial-gradient-34)"/><path d="M859,424.2778a7.1683,7.1683,0,0,1-1.6483.3058c-.0282,0-.277,0-.9991,0h-.0009c-.4805,0-.8259-.5635-.93-.7207A20.5185,20.5185,0,0,0,853,421.2778a9.4878,9.4878,0,0,1,6,3Z" style="fill:url(#radial-gradient-35)"/><path d="M873.7259,380.3323l.3245.1215-7.4043,20.8q-1.5521,4.49-3.054,8.9955a3.9522,3.9522,0,0,1-2.5921.0286Z" style="fill:url(#radial-gradient-36)"/><path d="M608,859.2778c4.8256-.2575,8.1406-.7295,8.1406-.7295a154.8622,154.8622,0,0,0,19.5083-4.67A97.6462,97.6462,0,0,1,606,865.2778a8.2248,8.2248,0,0,1-2.5473-6.0388c.1511.0119.3285.0253.5473.0388A33.7635,33.7635,0,0,0,608,859.2778Z" style="fill:url(#radial-gradient-37)"/><path d="M606,865.2778c-2.1735,1.68-4.5045,3.3559-7,5a115.8611,115.8611,0,0,1-26.0772,12.79l-.0968-.2892a143.6527,143.6527,0,0,0,14.7648-9.5174c2.3582-1.7316,4.5712-3.5043,6.8447-5.353a76.5528,76.5528,0,0,0,6.4978-6.2006l1.5876-1.6378.7824-.8421c.0409.0035.0995.0078.1494.0118a20.8094,20.8094,0,0,0,3.3867,5.8581C606.5593,865.1575,606.2751,865.2209,606,865.2778Z" style="fill:url(#radial-gradient-38)"/><path id="shard_04_upper-2" data-name="shard_04_upper" d="M635.6489,853.8785A82.5758,82.5758,0,0,1,606,864.2778c-1.2173,1.0494-2.9088,2.4488-5,4a91.2713,91.2713,0,0,1-13,8,111.4362,111.4362,0,0,1-15.2178,6.519l.0967.2891A153.1983,153.1983,0,0,0,589,879.2778c4.8077-1.4119,8.2453-2.7154,9-3a125.2369,125.2369,0,0,0,17-8A132.3113,132.3113,0,0,0,635.6489,853.8785Z" style="fill:url(#radial-gradient-39)"/></g><g id="purple_copy_3" data-name="purple copy 3"><path id="shard_02_lower-2" data-name="shard_02_lower" d="M771.3821,883.6639l.0058-.0081s-.06.0752-.1781.2221c-8.5757,10.6834-25.9377,26.901-25.9377,26.9011-10.523,9.795-17.0285,15.85-26.2721,23.4988-7.6094,6.2961-9.2513,7.1989-16.1247,13.0632,0,0-6.0388,5.114-10.96,8.7179-1.84,1.3472-3.2769,2.344-4.1809,2.9725-.3273.2276-.57.3965-.6037.42-1.4182.9838-9.3592,6.7232-30.1308,21.8264l10-4c.8536-.1984,2.2683-.5367,4-1a127.3722,127.3722,0,0,0,54-30c1.7651-1.6868,3.0546-3.02,4-4,4.7317-4.9037,10.3566-11.37,21-27C753.7263,909.8056,771.3344,883.7272,771.3821,883.6639Z" style="fill:url(#radial-gradient-40)"/><path id="shard_02_upper-4" data-name="shard_02_upper" d="M771.3821,883.6639c-8.7365,13.15-16.7918,24.0868-23.3821,32.6139-14.8282,19.1861-22.9857,27.1406-33,34-1.59,1.0892-3.4142,2.2789-8,5a542.97,542.97,0,0,1-49.264,25.7445c16.1155-2.9921,28.3434-5.418,34.264-6.7445a111.7343,111.7343,0,0,0,17-5,105.7858,105.7858,0,0,0,11-5,33.1672,33.1672,0,0,0,9-6c.3544-.3289.6864-.664,1-1a263.9212,263.9212,0,0,0,41.3821-73.6139Z" style="fill:url(#radial-gradient-41)"/><path d="M676.3053,1008.8713c-12.8434,10.1385-20.5775,16.2565-25.6819,20.0933a44.0612,44.0612,0,0,1-6.6441-31.6705l.0207-.0163,11-2c9.1585-1.6653,20.224-3.9137,25-5,7.98-1.815,20.4252-5.5356,37-14C707.3619,984.1115,693.381,995.392,676.3053,1008.8713Z" style="fill:url(#radial-gradient-42)"/><path d="M647.1112,1031.541a407.784,407.784,0,0,1-63.9522,36.9256q-16.7856,7.7471-34.1954,14.0451c-11.5894,4.2149-23.4213,7.7235-35.3285,10.9339q-17.8831,4.7478-36.1622,7.8713c-12.1541,2.1846-24.4255,3.7377-36.745,4.8209l-.178-2.6515c12.0783-3.4228,23.94-6.853,35.528-10.9,5.7978-1.984,11.5423-4.016,17.2056-6.2247,2.1357-.833,9.5229-3.646,16.821-6.7725,12.0408-5.1582,20.7432-9.7969,32.8955-16.3113,4.6033-2.4677,15.72-8.49,30-17,8.7816-5.233,17.695-10.5445,29.3651-18.3869,14.3935-9.6724,25.6956-18.3,32.6349-23.6131,3.7251-2.8524,6.8076-5.268,8.9793-6.9837,4.3006,9.6869,3.4907,21.252,6.6441,31.6705C649.2908,1029.9662,648.1275,1030.821,647.1112,1031.541Z" style="fill:url(#radial-gradient-43)"/><path id="shard_01_upper-4" data-name="shard_01_upper" d="M717,976.2778c-.51-.557-6.21,4.9809-12.76,10.062a140.0587,140.0587,0,0,1-31.24,17.938c-.2044.0879-1.7643.7131-4.8809,1.9712-8.04,3.2456-8.9322,3.5977-10.1191,4.0288a93.372,93.372,0,0,1-10,3,66.22,66.22,0,0,1-9.03,9.199s-.4772.4015-.97.801c-24.38,19.7512-61,38-61,38a446.268,446.268,0,0,1-62,26,434.9643,434.9643,0,0,1-74.3611,17.5343l.089,1.3257c12.335-.852,24.6433-2.1754,36.8547-4.1344,0,0,18.0328-2.8,36.3887-7.2384C597.9344,1074.4615,646,1042.2778,646,1042.2778c24.14-16.0932,49.8257-38.7537,69.0813-62.812C715.6888,978.7068,717.33,976.6381,717,976.2778Z" style="fill:url(#radial-gradient-44)"/></g></g></svg>