<svg xmlns="http://www.w3.org/2000/svg" viewBox="0 0 1000 2000"><g id="Right"><g id="red"><g id="main_lower"><path d="M2.8571-8.3554,42.7087,133.16q19.7242,70.7868,39.9138,141.426c6.7858,23.5322,13.313,47.1266,20.0244,70.6726L122.79,415.8873l20.3662,70.5578,10.2672,35.2522L163.5607,556.98c6.7036,23.5558,13.2757,46.8315,20.536,69.62,3.6036,11.4168,7.5533,22.6276,11.6556,33.7544,2.0851,5.5433,4.24,11.0464,6.3965,16.5482l3.4158,8.1582c1.1481,2.7141,2.237,5.4584,3.4872,8.119l3.6407,8.037,1.826,4.0147,1.9422,3.9529c2.607,5.2607,5.0893,10.5866,7.9524,15.7061l4.1623,7.748c1.384,2.584,2.9262,5.0784,4.38,7.6221l4.4181,7.5966c1.5144,2.5071,3.1121,4.9647,4.662,7.45l4.6788,7.4361c1.618,2.4421,3.2917,4.8494,4.9328,7.2761l4.9416,7.267c1.69,2.3943,3.4618,4.7346,5.1867,7.1048q.6414.8929,1.33,1.7519c.4526.5772.896,1.161,1.39,1.708.946,1.124,1.9668,2.1917,2.9075,3.3167l2.8462,3.357c.941,1.1246,1.881,2.25,2.8738,3.3333,4.0594,4.266,8.0251,8.5837,12.1192,12.7743,4.2187,4.09,8.4262,8.1665,12.678,12.1779l3.1752,3.0153,3.3161,2.8823,6.6085,5.7556,6.5474,5.7733,6.7323,5.5646c2.24,1.8532,4.4835,3.6967,6.673,5.5907l3.3006,2.8207c1.1175.9217,2.2773,1.7994,3.4125,2.7008q6.7767,5.4476,13.4647,10.9447l13.7435,10.5724c2.2541,1.7983,4.6423,3.4384,6.9924,5.12l7.0558,5.0289c4.6495,3.4127,9.5269,6.5344,14.2939,9.7854,38.4776,25.5928,79.6,46.9671,122.272,65.3015L500.771,998.2824c-45.0236-19.24-88.1993-42.9785-127.9139-71.6559-4.9384-3.6173-9.9665-7.1156-14.7345-10.9591l-7.2382-5.651c-2.4086-1.8887-4.8517-3.7348-7.1633-5.7432l-14.0528-11.8244-13.593-12.35a588.0973,588.0973,0,0,1-50.3224-53.4453c-3.8517-4.7564-7.56-9.63-11.3477-14.4389l-2.8266-3.6183c-.94-1.2075-1.9015-2.3992-2.7728-3.6585l-5.3546-7.46c-1.7743-2.494-3.5936-4.9569-5.331-7.4764l-5.0834-7.6474c-1.6872-2.5538-3.4053-5.0878-5.0671-7.6578l-4.8085-7.8233a524.164,524.164,0,0,1-33.84-65.13,654.08,654.08,0,0,1-25.1983-68.9636c-7.2455-23.3934-13.519-47.0718-19.7316-70.7562q-37.4262-142.0782-73.2-284.5868Q35.4922,134.9117,1.6849-8.08Z" style="fill:#b11435"/></g><g id="main_upper"><path d="M2.8571-8.3554Q36.346,134.6983,71.7375,277.3q35.4164,142.59,72.6537,284.7231c6.2126,23.6844,12.4861,47.3628,19.7316,70.7562a654.08,654.08,0,0,0,25.1983,68.9636,524.164,524.164,0,0,0,33.84,65.13l4.8085,7.8233c1.6618,2.57,3.38,5.104,5.0671,7.6578l5.0834,7.6474c1.7374,2.5195,3.5567,4.9824,5.331,7.4764l5.3546,7.46c.8713,1.2593,1.8326,2.451,2.7728,3.6585l2.8266,3.6183c3.7872,4.8091,7.496,9.6825,11.3477,14.4389a588.0973,588.0973,0,0,0,50.3224,53.4453l13.593,12.35,14.0528,11.8244c2.3116,2.0084,4.7547,3.8545,7.1633,5.7432l7.2382,5.651c4.768,3.8435,9.7961,7.3418,14.7345,10.9591,39.7146,28.6774,82.89,52.4162,127.9139,71.6559l-14.7364,34.6159c-11.62-5.5666-23.2247-11.1447-34.6821-17.0685l-8.6-4.4176-8.5127-4.6036c-2.8382-1.5332-5.7019-3.0117-8.5162-4.5919l-8.4206-4.7836c-2.7986-1.61-5.6272-3.1584-8.3982-4.8213l-8.3311-4.9536c-2.7663-1.67-5.5743-3.2649-8.3043-5l-8.19-5.2031-8.19-5.2035-8.0776-5.3968-8.0745-5.4043c-2.669-1.8367-5.2805-3.7629-7.9228-5.6419-10.5842-7.49-20.9644-15.3119-31.1774-23.36L305.5284,920.082,290.7224,907.3c-1.246-1.0544-2.5145-2.0844-3.7422-3.1608l-3.632-3.2885c-2.4075-2.2082-4.8721-4.3609-7.33-6.5256l-7.3787-6.5011-7.1956-6.72-7.2537-6.6969-3.633-3.3552-3.4913-3.4947q-7.0007-6.9826-13.9143-14.1037c-4.4995-4.837-8.8612-9.81-13.3031-14.7341-2.1882-2.4878-4.7133-4.7249-6.6051-7.45-2.02-2.6283-3.8642-5.3877-5.6293-8.1984s-3.57-5.5874-5.2932-8.4234l-5.0336-8.6c-1.667-2.87-3.3606-5.7177-4.9953-8.6015l-4.72-8.7657c-1.5587-2.9267-3.16-5.8239-4.6734-8.77l-4.4012-8.9089c-1.4424-2.9786-2.9705-5.9092-4.3325-8.9217l-4.0822-9.0283c-2.8009-5.9766-5.2029-12.1158-7.7085-18.1933l-1.8637-4.5623-1.7336-4.6041-3.4368-9.2039c-1.1812-3.0545-2.1832-6.1574-3.246-9.24l-3.1466-9.25c-1.9561-6.19-3.9011-12.3774-5.7487-18.5633-3.608-12.3809-7-24.7618-9.9551-37.105-3.0849-12.3439-5.6616-24.6488-8.3623-36.8509l-3.8681-18.229-3.7231-18.099-7.3657-36.0859-7.5086-36.0424L87.574,424.9105,72.9645,352.7617,58.5129,280.5966Q43.98,208.4636,29.928,136.2564L1.6849-8.08Z" style="fill:#b11435"/></g></g><g id="orange"><g id="shard_01_lower"><path d="M387.7736,859.837a340.8866,340.8866,0,0,1-54.3525-33.4141q-12.7595-9.6107-24.5937-20.3713c-7.9119-7.1316-15.36-14.761-22.5545-22.6078a337.0166,337.0166,0,0,1-38.236-51.07,340.9848,340.9848,0,0,1-27.9975-57.33,335.4883,335.4883,0,0,0,33.9458,53.7q9.6392,12.4461,20.33,23.8068c3.53,3.8028,7.2074,7.46,10.9,11.0653l5.6164,5.3191,2.8838,2.5734,1.4389,1.2843a9.3052,9.3052,0,0,1,1.3517,1.36c6.0652,8.2825,12.44,16.44,19.3487,24.1851,6.8916,7.7583,14.139,15.2859,21.7683,22.4955,1.9287,1.7735,3.8318,3.594,5.7959,5.3417l5.9381,5.2142,6.0774,5.0823q3.1038,2.4594,6.1808,5c2.0908,1.63,4.0912,3.4277,6.1922,5.0757,1.0388.8439,2.0979,1.6574,3.1678,2.4558,1.0626.811,2.1351,1.6092,3.243,2.3468,2.2006,1.5021,4.3865,3.0461,6.6659,4.4258C383.1231,857.233,385.4536,858.5226,387.7736,859.837Z" style="fill:#d75641"/></g><g id="shard_01_upper"><path d="M387.7736,859.837c-5.2074-1.4727-10.5658-2.7666-15.8158-4.3883-1.3109-.4072-2.6756-.7247-4.0177-1.0919-1.3739-.3111-2.7629-.6052-4.1786-.8641a35.3425,35.3425,0,0,1-8.1121-2.3108,192.89,192.89,0,0,1-26.7-18.81,274.29,274.29,0,0,1-23.77-22.3153q-11.2521-11.7491-21.4063-24.3427c-1.793-2.0043-3.4911-4.0925-5.2393-6.1329l-5.0285-6.3033c-3.2875-4.25-6.5335-8.53-9.608-12.93q-9.3015-13.1411-17.3169-27.0844a341.715,341.715,0,0,1-26.5406-58.2189,340.9848,340.9848,0,0,0,27.9975,57.33,337.0166,337.0166,0,0,0,38.236,51.07c7.1944,7.8468,14.6426,15.4762,22.5545,22.6078q11.8306,10.7321,24.5937,20.3713A340.8866,340.8866,0,0,0,387.7736,859.837Z" style="fill:#d75641"/></g><g id="shard_02_lower"><path d="M292.9586,754.4474a333.5965,333.5965,0,0,1-44.3916-56.87l0,0a385.2859,385.2859,0,0,1-20.95-40.8456c-3.1354-6.9853-5.95-14.1083-8.6707-21.263l-1.93-5.4075-.9632-2.7044-.89-2.73-1.7793-5.459-1.6188-5.5085c-4.3068-14.7-7.3055-29.7391-10.0892-44.7892-2.957-15.0228-6.5619-29.9158-10.7225-44.65q-6.246-22.1-14.0083-43.7348-7.8162-21.5964-16.8169-42.737c-12.0866-28.1373-25.6332-55.6359-40.274-82.5294,16.816,25.7062,32.6391,52.195,47.1125,79.6075q10.7669,20.6,20.4784,41.8938,9.5961,21.3389,17.823,43.4635l2.0413,5.5394c.6743,1.85,1.2963,3.7185,1.9473,5.5793,1.2936,3.7242,2.5913,7.4534,3.778,11.2231,1.2245,3.7582,2.4425,7.5249,3.5558,11.3278.7793,3.874,1.1315,7.8369,1.6192,11.766l.3477,2.9488c.1174.9878.2369,1.9818.3146,2.8468l.53,5.4028.1319,1.3539.0659.6774.0329.3389s.0435.2534.0729.4238l.03.1853.0093.0827.3273,2.7285.7242,5.5359c1.0344,7.3889,2.1295,14.7429,3.6194,21.8665l1.1019,5.3878,1.2695,5.3775.6352,2.6953.7121,2.6826,1.4292,5.3763c2.06,7.1369,4.2228,14.2937,6.7243,21.3638q3.7094,10.6174,8,21.0952c1.4461,3.4791,2.9212,6.952,4.4617,10.3919.772,1.7184,1.5468,3.4373,2.3465,5.1369l1.2029,2.5426.6073,1.2569.3048.6232.07.146a1.31,1.31,0,0,0-.1018-.1217,1.3333,1.3333,0,0,0-.2486-.2061l.5708.7734A329.5482,329.5482,0,0,0,292.9586,754.4474Z" style="fill:#d75641"/></g><g id="shard_02_upper"><path d="M292.9586,754.4474a334.235,334.235,0,0,1-45.5907-56.1306l.1385.1878-.2922-.4312-.2379-.3761-.383-.6147-.7587-1.2315-1.4927-2.4719c-.9909-1.65-1.9538-3.314-2.9146-4.98-1.9176-3.3338-3.77-6.7033-5.5962-10.0881q-5.4456-10.1715-10.3219-20.6475c-3.2894-6.9647-6.2619-14.0795-9.1437-21.2386l-2.0518-5.415-1.0243-2.71-.9514-2.7378-1.9032-5.4788-1.7444-5.5379c-2.36-7.3888-4.2685-14.8736-6.107-22.36l-1.33-5.6309-.6408-2.8319-.5735-2.7634c-.7815-3.8067-1.5609-7.6251-2.3814-11.3l-1.2168-5.5661-1.3222-5.5431c-.3885-1.8587-.72-3.73-1.1255-5.5861l-1.2119-5.57c-.7783-3.7211-1.67-7.4172-2.5581-11.1155-.4482-1.848-.8673-3.7039-1.34-5.5465l-1.4366-5.5239q-5.7706-22.0928-13.0739-43.8012-7.3582-21.6682-15.92-42.9436c-11.502-28.3148-24.4911-56.0607-38.5991-83.245,14.6408,26.8935,28.1874,54.3921,40.274,82.5294q8.9763,21.14,16.8169,42.737,7.7251,21.6286,14.0083,43.7348c4.1606,14.734,7.7655,29.627,10.7225,44.65,2.7837,15.05,5.7824,30.0889,10.0892,44.7892l1.6188,5.5085,1.7793,5.459.89,2.73.9632,2.7044,1.93,5.4075c2.721,7.1547,5.5353,14.2777,8.6707,21.263a385.2859,385.2859,0,0,0,20.95,40.8456l0,0A333.5965,333.5965,0,0,0,292.9586,754.4474Z" style="fill:#d75641"/></g><g id="shard_03_lower"><path d="M154.1005,483.1752l8.4385,18.3909q4.1378,9.2443,8.1176,18.5832v0a38.0537,38.0537,0,0,1,4.1362,11.4324c.4252,1.98.7162,3.9953,1.0118,6.008.2909,2.014.6183,4.0171.8354,6.0479q.7586,6.0641,1.1681,12.1982c.27,4.089.4093,8.2031.3,12.3656l-.337.0808q-5.6319-23.4569-12.2741-46.6557v0q-2.76-9.6373-5.69-19.2249l-6.0363-19.1192Z" style="fill:#d75641"/></g><g id="shard_03_upper"><path d="M153.771,483.2824l6.6284,21.0684q3.2136,10.5653,6.2117,21.1946,2.9787,10.6338,5.8689,21.2931l5.628,21.3631-.6739.1617q-2.6858-10.7087-5.5681-21.3646l-5.8475-21.286q-2.9494-10.6359-6.0826-21.2211L153.4415,483.39Z" style="fill:#d75641"/></g><g id="shard_04_lower"><path d="M372.7627,867.1126l17.7234,3.3,4.43.7809,4.4747.69c.7392.127,1.5016.2061,2.2709.2708.7879.0278,1.572.06,2.3391.1242.379.0418.7461.1073,1.1079.1837.3935.0125.512.5812.7825.8419l1.5875,1.6378a76.5521,76.5521,0,0,0,6.4978,6.2006c2.2735,1.8488,4.4866,3.6214,6.8448,5.3531a143.685,143.685,0,0,0,14.7647,9.5174l-.0967.2892q-8.2112-2.75-16.2163-6.07c-5.3415-2.1938-10.5278-4.74-15.7191-7.262-5.1826-2.5429-10.3622-5.0924-15.4969-7.7312l-15.4345-7.8554Z" style="fill:#d75641"/></g><g id="shard_04_upper"><path d="M372.6221,867.3831l15.4345,7.8554c5.1347,2.6388,10.3143,5.1883,15.4969,7.7312,5.1913,2.5223,10.3776,5.0682,15.7191,7.262q8,3.3148,16.2163,6.07l-.0967.289a161.6038,161.6038,0,0,1-16.678-5.0112c-2.7359-.9831-5.4631-2.07-8.1406-3.187-2.6783-1.1274-5.2353-2.49-7.7786-3.8712l-1.9094-1.0307c-.6482-.32-1.28-.6712-1.9035-1.0406-1.2574-.7171-2.5033-1.4551-3.78-2.1317-2.5473-1.3627-5.0753-2.7678-7.6062-4.1643l-15.1145-8.5Z" style="fill:#d75641"/></g></g><g id="purple"><g id="shard_02_lower-2" data-name="shard_02_lower"><path d="M220.5523,876.7791a343.2246,343.2246,0,0,0,26.8568,26.3757A336.5542,336.5542,0,0,0,276.78,926.2407c2.3809,1.9768,4.5888,4.1782,6.952,6.194,2.3227,2.0668,4.6906,4.0846,7.0781,6.0846q7.1682,5.9928,14.69,11.6041a343.9153,343.9153,0,0,0,31.3718,20.8041,343.6131,343.6131,0,0,1-116.3194-94.1484Z" style="fill:#95285b"/></g><g id="shard_02_upper-2" data-name="shard_02_upper"><path d="M220.5523,876.7791A345.3671,345.3671,0,0,0,245.57,904.976a343.3807,343.3807,0,0,0,91.3021,65.9515,339.84,339.84,0,0,1-38.5995-9.54q-9.6351-2.99-19.2156-6.5934c-3.19-1.2035-6.383-2.4449-9.5538-3.7563q-2.39-.9675-4.76-1.9923l-2.3783-1.0208-1.1873-.5182c-.3723-.2023-.8534-.2712-1.0574-.6826A346.675,346.675,0,0,1,238,912.47,339.3888,339.3888,0,0,1,220.5523,876.7791Z" style="fill:#95285b"/></g><g id="shard_01_lower-2" data-name="shard_01_lower"><path d="M280.7825,975.729a164.159,164.159,0,0,0,19.0994,6.3955A127.349,127.349,0,0,0,319.978,986.15c6.9792.7745,14.1364.9931,20.1731,2.46a12.0947,12.0947,0,0,1,3.6576,2.27c1.12.89,2.2294,1.797,3.3783,2.6494,2.287,1.719,4.5429,3.4885,6.8574,5.1761l6.9773,5.0263,7.0857,4.8871q7.19,4.7323,14.471,9.3765c9.7245,6.1645,19.51,12.3779,29.5666,18.3332,10.0171,6.0427,20.3768,11.6272,30.9964,16.8923,10.5847,5.3878,21.5519,10.06,32.694,14.6529,5.5792,2.2741,11.2449,4.35,16.9506,6.4411,5.7056,2.0971,11.4888,4.016,17.3244,5.886,11.6651,3.8188,23.592,7.0156,35.7351,10.2008l-.126,2.6546c-12.3384-.8414-24.638-2.1535-36.8326-4.0991q-18.3092-2.7825-36.31-7.16c-11.9678-2.9762-23.8663-6.252-35.5362-10.2388q-17.5194-5.9234-34.4643-13.3716a407.7748,407.7748,0,0,1-64.6643-35.6638q-15.3024-10.3742-29.6332-22.0925C298.739,992.626,289.5881,984.3516,280.7825,975.729Z" style="fill:#95285b"/></g><g id="shard_01_upper-2" data-name="shard_01_upper"><path d="M280.7825,975.729c8.8056,8.6226,17.9565,16.897,27.4968,24.7011q14.3115,11.7034,29.6332,22.0925a405.549,405.549,0,0,0,207.87,69.2064l-.063,1.3273c-12.3494-.61-24.6812-1.6916-36.9288-3.4107q-18.387-2.4548-36.5236-6.5231c-12.06-2.7656-24.0644-5.8565-35.86-9.6581q-17.7076-5.6487-34.8924-12.851c-22.87-9.5931-45.2513-20.6754-66.33-34.0624-2.6466-1.6527-5.2366-3.3924-7.86-5.0869-1.3171-.84-2.595-1.7359-3.8845-2.6166a42.5638,42.5638,0,0,1-3.7331-2.8265c-4.7029-4.137-9.1462-8.5719-13.5667-12.9792-4.3482-4.4964-8.6922-8.9515-12.9336-13.4876-2.1148-2.2747-4.2147-4.5561-6.2634-6.8838Z" style="fill:#95285b"/></g></g></g><g id="left"><g id="red_copy" data-name="red copy"><g id="main_lower-2" data-name="main_lower"><path d="M998.1964,2004.8668l-39.8517-141.5154q-19.7241-70.7868-39.9137-141.426c-6.7859-23.5322-13.313-47.1266-20.0244-70.6726l-20.1427-70.6287-20.3663-70.5578-10.2671-35.2522-10.1377-35.2831c-6.7036-23.5558-13.2756-46.8315-20.536-69.62-3.6035-11.4168-7.5532-22.6275-11.6557-33.7544-2.085-5.5433-4.24-11.0463-6.3964-16.5482l-3.4158-8.1582c-1.1481-2.7141-2.2371-5.4583-3.4872-8.1189l-3.6407-8.0371-1.8261-4.0146-1.9421-3.953c-2.607-5.2607-5.0894-10.5866-7.9524-15.706l-4.1623-7.7481c-1.3841-2.584-2.9263-5.0784-4.38-7.6221l-4.4181-7.5966c-1.5144-2.5071-3.1122-4.9646-4.6621-7.45l-4.6788-7.436c-1.6179-2.4422-3.2916-4.85-4.9326-7.2762l-4.9417-7.267c-1.69-2.3943-3.4618-4.7345-5.1868-7.1047q-.6414-.8931-1.33-1.752c-.4527-.5771-.896-1.1609-1.39-1.7079-.946-1.1241-1.9669-2.1917-2.9076-3.3167l-2.8462-3.357c-.9409-1.1247-1.8809-2.25-2.8737-3.3334-4.0594-4.266-8.0251-8.5836-12.1192-12.7743-4.2187-4.09-8.4263-8.1664-12.6781-12.1779l-3.175-3.0153-3.3162-2.8822-6.6085-5.7557-6.5474-5.7733-6.7324-5.5645c-2.24-1.8533-4.4834-3.6968-6.673-5.5907l-3.3005-2.8208c-1.1176-.9217-2.2772-1.7994-3.4125-2.7008q-6.7767-5.4476-13.4647-10.9447L636.16,1118.08c-2.2541-1.7983-4.6424-3.4383-6.9925-5.12l-7.0558-5.0289c-4.6494-3.4127-9.5269-6.5344-14.2938-9.7853-38.4776-25.5929-79.6-46.9672-122.272-65.3016l14.7364-34.6158c45.0235,19.24,88.1992,42.9785,127.9139,71.6559,4.9384,3.6174,9.9664,7.1156,14.7345,10.9591l7.2382,5.651c2.4085,1.8887,4.8517,3.7349,7.1633,5.7432l14.0527,11.8244,13.5932,12.35a588.1071,588.1071,0,0,1,50.3222,53.4452c3.8517,4.7566,7.56,9.63,11.3478,14.4391l2.8266,3.6182c.94,1.2075,1.9014,2.3993,2.7727,3.6585l5.3547,7.46c1.7743,2.494,3.5936,4.9569,5.3309,7.4764l5.0835,7.6474c1.6872,2.5538,3.4053,5.0878,5.0672,7.6578l4.8083,7.8233a524.1453,524.1453,0,0,1,33.84,65.13,654.07,654.07,0,0,1,25.1983,68.9635c7.2454,23.3934,13.519,47.0718,19.7315,70.7562q37.4262,142.0782,73.2005,284.5868,35.6985,142.5243,69.5058,285.5158Z" style="fill:#b11435"/></g><g id="main_upper-2" data-name="main_upper"><path d="M998.1964,2004.8668q-33.4889-143.0535-68.88-285.6551-35.4163-142.59-72.6538-284.7231c-6.2125-23.6844-12.4861-47.3628-19.7315-70.7562a654.07,654.07,0,0,0-25.1983-68.9635,524.1453,524.1453,0,0,0-33.84-65.13l-4.8083-7.8233c-1.6619-2.57-3.38-5.104-5.0672-7.6578l-5.0835-7.6474c-1.7373-2.5195-3.5566-4.9824-5.3309-7.4764l-5.3547-7.46c-.8713-1.2592-1.8324-2.451-2.7727-3.6585l-2.8266-3.6182c-3.7873-4.8092-7.4961-9.6825-11.3478-14.4391a588.1071,588.1071,0,0,0-50.3222-53.4452l-13.5932-12.35-14.0527-11.8244c-2.3116-2.0083-4.7548-3.8545-7.1633-5.7432l-7.2382-5.651c-4.7681-3.8435-9.7961-7.3417-14.7345-10.9591-39.7147-28.6774-82.89-52.4161-127.9139-71.6559l14.7364-34.6159c11.62,5.5666,23.2246,11.1447,34.682,17.0685l8.6,4.4176,8.5129,4.6036c2.838,1.5332,5.7017,3.0117,8.5161,4.5919l8.4206,4.7836c2.7986,1.61,5.6272,3.1584,8.3982,4.8213l8.3311,4.9536c2.7663,1.67,5.5743,3.2649,8.3042,5l8.19,5.2032,8.19,5.2034,8.0777,5.3968,8.0744,5.4043c2.6691,1.8367,5.2807,3.7629,7.9229,5.6419,10.5842,7.49,20.9643,15.3119,31.1775,23.36l15.1088,12.3665,14.806,12.7825c1.2459,1.0545,2.5145,2.0844,3.7421,3.1608l3.6321,3.2886c2.4075,2.2081,4.8721,4.3608,7.33,6.5255l7.3787,6.5011,7.1955,6.72,7.2538,6.6969,3.6329,3.3553,3.4914,3.4946q7.0006,6.9826,13.9142,14.1037c4.5,4.8371,8.8612,9.81,13.3032,14.7341,2.1881,2.4877,4.7132,4.7249,6.605,7.45,2.02,2.6283,3.8642,5.3877,5.6294,8.1984s3.5705,5.5874,5.2932,8.4234l5.0335,8.6c1.6672,2.87,3.3606,5.7177,4.9954,8.6015l4.72,8.7657c1.5587,2.9267,3.16,5.8239,4.6733,8.77l4.4013,8.9089c1.4423,2.9787,2.97,5.9093,4.3325,8.9218l4.0821,9.0282c2.8011,5.9766,5.203,12.1158,7.7085,18.1933l1.8638,4.5623,1.7335,4.6042,3.4368,9.2039c1.1813,3.0544,2.1832,6.1573,3.2461,9.24l3.1466,9.25c1.956,6.19,3.9011,12.3774,5.7488,18.5633,3.6078,12.3809,7,24.7619,9.9549,37.105,3.0849,12.3439,5.6618,24.6488,8.3623,36.8509l3.8682,18.229,3.7231,18.099,7.3656,36.0859,7.5087,36.0424L913.48,1571.601l14.61,72.1488,14.4515,72.165q14.5334,72.133,28.585,144.34l28.243,144.3362Z" style="fill:#b11435"/></g></g><g id="orange_copy" data-name="orange copy"><g id="shard_01_lower-3" data-name="shard_01_lower"><path d="M613.28,1136.6744a340.8888,340.8888,0,0,1,54.3525,33.414q12.76,9.6108,24.5938,20.3714c7.9118,7.1317,15.36,14.761,22.5545,22.6079a337.0041,337.0041,0,0,1,38.236,51.07,341.0055,341.0055,0,0,1,27.9976,57.33,335.49,335.49,0,0,0-33.946-53.7q-9.639-12.4461-20.33-23.8068c-3.53-3.8028-7.2074-7.46-10.9-11.0652l-5.6164-5.3191-2.8839-2.5735-1.4388-1.2843a9.306,9.306,0,0,1-1.3518-1.36c-6.0651-8.2825-12.44-16.44-19.3487-24.185-6.8914-7.7584-14.1389-15.286-21.7681-22.4956-1.9288-1.7735-3.832-3.594-5.7961-5.3416l-5.938-5.2143-6.0775-5.0823q-3.1038-2.4593-6.1808-5c-2.0908-1.63-4.0911-3.4277-6.1922-5.0757-1.0387-.8439-2.0978-1.6574-3.1677-2.4558-1.0627-.811-2.1351-1.6092-3.243-2.3468-2.2-1.502-4.3866-3.0461-6.6659-4.4258C617.93,1139.2784,615.6,1137.9889,613.28,1136.6744Z" style="fill:#d75641"/></g><g id="shard_01_upper-3" data-name="shard_01_upper"><path d="M613.28,1136.6744c5.2075,1.4727,10.5658,2.7666,15.8159,4.3883,1.3109.4073,2.6757.7247,4.0177,1.0919,1.3738.3111,2.7628.6052,4.1786.8641a35.3539,35.3539,0,0,1,8.1121,2.3108,192.8969,192.8969,0,0,1,26.7,18.81,274.3336,274.3336,0,0,1,23.77,22.3153q11.2521,11.7491,21.4063,24.3427c1.7929,2.0043,3.4912,4.0925,5.2392,6.133l5.0286,6.3032c3.2875,4.25,6.5336,8.53,9.608,12.93q9.3013,13.141,17.3169,27.0844a341.7361,341.7361,0,0,1,26.5407,58.219,341.0055,341.0055,0,0,0-27.9976-57.33,337.0041,337.0041,0,0,0-38.236-51.07c-7.1945-7.8469-14.6427-15.4762-22.5545-22.6079q-11.8306-10.7321-24.5938-20.3714A340.8888,340.8888,0,0,0,613.28,1136.6744Z" style="fill:#d75641"/></g><g id="shard_02_lower-3" data-name="shard_02_lower"><path d="M708.0948,1242.0641a333.6019,333.6019,0,0,1,44.3918,56.87v0a385.2664,385.2664,0,0,1,20.95,40.8456c3.1355,6.9853,5.95,14.1083,8.6708,21.263l1.93,5.4075.9633,2.7044.89,2.73,1.7793,5.459,1.6188,5.5086c4.3068,14.7,7.3056,29.739,10.0893,44.7892,2.9569,15.0227,6.5618,29.9157,10.7225,44.65q6.246,22.1,14.0083,43.7348,7.8162,21.5964,16.8168,42.737c12.0866,28.1374,25.6333,55.6359,40.274,82.53-16.8159-25.7063-32.639-52.1951-47.1124-79.6076q-10.7669-20.6-20.4785-41.8937-9.5961-21.339-17.823-43.4636l-2.0412-5.5394c-.6743-1.85-1.2964-3.7185-1.9472-5.5792-1.2937-3.7243-2.5915-7.4535-3.7781-11.2231-1.2246-3.7583-2.4425-7.5249-3.5558-11.3278-.7794-3.874-1.1315-7.837-1.6193-11.7661l-.3476-2.9487c-.1173-.9879-.237-1.9819-.3147-2.8469l-.53-5.4028-.1319-1.3539-.0659-.6774-.033-.3388s-.0434-.2535-.0729-.4239l-.03-.1853-.0093-.0827-.3274-2.7284-.7241-5.536c-1.0344-7.3889-2.13-14.7428-3.6194-21.8665l-1.1019-5.3878-1.27-5.3774-.6352-2.6954-.712-2.6826-1.4292-5.3763c-2.06-7.1369-4.2228-14.2937-6.7243-21.3638q-3.7094-10.6174-8-21.0951c-1.446-3.4792-2.9211-6.9521-4.4616-10.392-.772-1.7184-1.5469-3.4373-2.3465-5.1369l-1.2029-2.5426-.6074-1.2569-.3048-.6232-.07-.146a1.3086,1.3086,0,0,0,.1017.1217,1.3372,1.3372,0,0,0,.2487.2061l-.5708-.7733A329.5487,329.5487,0,0,0,708.0948,1242.0641Z" style="fill:#d75641"/></g><g id="shard_02_upper-3" data-name="shard_02_upper"><path d="M708.0948,1242.0641a334.2265,334.2265,0,0,1,45.5909,56.13l-.1387-.1878.2922.4312.2379.3761.3831.6147.7587,1.2315,1.4926,2.472c.991,1.65,1.9539,3.314,2.9147,4.98,1.9175,3.3338,3.77,6.7033,5.5962,10.0881q5.4456,10.1717,10.3218,20.6475c3.2894,6.9647,6.262,14.08,9.1437,21.2386l2.0518,5.415,1.0243,2.71.9516,2.7378,1.9032,5.4788,1.7444,5.5379c2.36,7.3888,4.2684,14.8737,6.1069,22.36l1.33,5.6309.6407,2.832.5735,2.7633c.7816,3.8067,1.5611,7.6251,2.3815,11.3l1.2167,5.5661,1.3222,5.5431c.3886,1.8587.7205,3.73,1.1255,5.5861l1.2121,5.57c.7782,3.7212,1.67,7.4172,2.5579,11.1155.4483,1.848.8674,3.7039,1.34,5.5465l1.4365,5.5239q5.7708,22.0928,13.074,43.8012,7.3581,21.6682,15.92,42.9437c11.5021,28.3147,24.4911,56.0606,38.5991,83.245-14.6407-26.8936-28.1874-54.3921-40.274-82.53q-8.9763-21.14-16.8168-42.737-7.725-21.6287-14.0083-43.7348c-4.1607-14.734-7.7656-29.627-10.7225-44.65-2.7837-15.05-5.7825-30.089-10.0893-44.7892l-1.6188-5.5086-1.7793-5.459-.89-2.73-.9633-2.7044-1.93-5.4075c-2.7211-7.1547-5.5353-14.2777-8.6708-21.263a385.2664,385.2664,0,0,0-20.95-40.8456v0A333.6019,333.6019,0,0,0,708.0948,1242.0641Z" style="fill:#d75641"/></g><g id="shard_03_lower-2" data-name="shard_03_lower"><path d="M846.953,1513.3362l-8.4386-18.3908q-4.1376-9.2445-8.1174-18.5833v0a38.0564,38.0564,0,0,1-4.1362-11.4324c-.4251-1.98-.7163-3.9953-1.0118-6.008-.2909-2.014-.6183-4.0171-.8354-6.0479q-.7586-6.064-1.1681-12.1981c-.27-4.089-.4093-8.2032-.3-12.3656l.3369-.0809q5.6319,23.4568,12.274,46.6558h0q2.76,9.6375,5.69,19.2249l6.0363,19.1192Z" style="fill:#d75641"/></g><g id="shard_03_upper-2" data-name="shard_03_upper"><path d="M847.2825,1513.229l-6.6284-21.0684q-3.2136-10.5652-6.2117-21.1946-2.9789-10.6338-5.8689-21.293l-5.6279-21.3631.6738-.1618q2.6857,10.7086,5.568,21.3646l5.8475,21.286q2.9495,10.6359,6.0827,21.2211l6.4943,21.1019Z" style="fill:#d75641"/></g><g id="shard_04_lower-2" data-name="shard_04_lower"><path d="M628.2908,1129.3988l-17.7234-3.3-4.43-.781-4.4747-.6895c-.7393-.1271-1.5016-.2062-2.2709-.2709-.7878-.0278-1.572-.06-2.3391-.1242-.379-.0418-.7462-.1073-1.1079-.1836-.3934-.0125-.512-.5813-.7825-.842l-1.5875-1.6378a76.5371,76.5371,0,0,0-6.4978-6.2006c-2.2736-1.8488-4.4866-3.6214-6.8449-5.3531a143.6619,143.6619,0,0,0-14.7646-9.5174l.0967-.2891q8.2111,2.75,16.2163,6.07c5.3415,2.1938,10.5278,4.74,15.7191,7.262,5.1825,2.5429,10.3622,5.0925,15.4968,7.7312l15.4346,7.8554Z" style="fill:#d75641"/></g><g id="shard_04_upper-2" data-name="shard_04_upper"><path d="M628.4314,1129.1283l-15.4346-7.8554c-5.1346-2.6387-10.3143-5.1883-15.4968-7.7312-5.1913-2.5223-10.3776-5.0682-15.7191-7.262q-7.9995-3.3149-16.2163-6.07l.0968-.2891a161.6434,161.6434,0,0,1,16.678,5.0112c2.7357.9831,5.463,2.07,8.1405,3.187,2.6782,1.1274,5.2353,2.49,7.7785,3.8712l1.9094,1.0307c.6484.32,1.28.6712,1.9036,1.0406,1.2573.7171,2.5033,1.4551,3.78,2.1316,2.5474,1.3628,5.0753,2.7679,7.6062,4.1644l15.1145,8.5Z" style="fill:#d75641"/></g></g><g id="purple_copy" data-name="purple copy"><g id="shard_02_lower-4" data-name="shard_02_lower"><path d="M780.5011,1119.7323a343.2059,343.2059,0,0,0-26.8567-26.3757,336.5556,336.5556,0,0,0-29.3707-23.0859c-2.3809-1.9768-4.5888-4.1782-6.9519-6.1939-2.3228-2.0669-4.6906-4.0847-7.0781-6.0846q-7.1684-5.9929-14.69-11.6042a343.9006,343.9006,0,0,0-31.3718-20.804,343.6086,343.6086,0,0,1,116.3193,94.1483Z" style="fill:#95285b"/></g><g id="shard_02_upper-4" data-name="shard_02_upper"><path d="M780.5011,1119.7323a345.3659,345.3659,0,0,0-25.0172-28.1969,343.3782,343.3782,0,0,0-91.3021-65.9514,339.8712,339.8712,0,0,1,38.6,9.54q9.6351,2.99,19.2156,6.5934c3.19,1.2035,6.383,2.4449,9.5538,3.7563q2.39.9675,4.76,1.9923l2.3784,1.0208,1.1873.5182c.3723.2023.8533.2712,1.0574.6826a346.675,346.675,0,0,1,22.12,34.3533A339.3682,339.3682,0,0,1,780.5011,1119.7323Z" style="fill:#95285b"/></g><g id="shard_01_lower-4" data-name="shard_01_lower"><path d="M720.271,1020.7825a164.1468,164.1468,0,0,0-19.0994-6.3956,127.35,127.35,0,0,0-20.096-4.0257c-6.9793-.7744-14.1365-.9931-20.1733-2.46a12.094,12.094,0,0,1-3.6575-2.2695c-1.12-.89-2.2294-1.797-3.3782-2.6494-2.2871-1.7191-4.543-3.4886-6.8576-5.1762l-6.9773-5.0263-7.0855-4.8871q-7.19-4.7323-14.4711-9.3765c-9.7245-6.1645-19.51-12.3779-29.5665-18.3331-10.0172-6.0427-20.377-11.6273-30.9965-16.8924-10.5847-5.3878-21.552-10.06-32.6941-14.6528-5.5791-2.2742-11.2449-4.35-16.95-6.4411-5.7056-2.0972-11.4888-4.0161-17.3244-5.886-11.665-3.8189-23.592-7.0157-35.7351-10.2009l.126-2.6545c12.3384.8413,24.6379,2.1534,36.8326,4.099q18.3091,2.7825,36.3095,7.16c11.9679,2.9761,23.8664,6.2519,35.5362,10.2387q17.52,5.9233,34.4643,13.3716a407.764,407.764,0,0,1,64.6644,35.6639q15.3023,10.374,29.6332,22.0924C702.3146,1003.8854,711.4655,1012.16,720.271,1020.7825Z" style="fill:#95285b"/></g><g id="shard_01_upper-4" data-name="shard_01_upper"><path d="M720.271,1020.7825c-8.8055-8.6226-17.9564-16.8971-27.4968-24.7012q-14.3115-11.7035-29.6332-22.0924a405.5482,405.5482,0,0,0-207.87-69.2065l.063-1.3272c12.3493.61,24.6812,1.6915,36.9288,3.4106q18.387,2.4547,36.5236,6.5231c12.06,2.7656,24.0643,5.8565,35.86,9.6581q17.7076,5.6487,34.8925,12.851c22.87,9.5931,45.2512,20.6754,66.33,34.0624,2.6465,1.6527,5.2365,3.3924,7.86,5.087,1.317.84,2.595,1.7358,3.8845,2.6165a42.5638,42.5638,0,0,1,3.7331,2.8265c4.7028,4.1371,9.1462,8.5719,13.5666,12.9792,4.3483,4.4964,8.6923,8.9515,12.9336,13.4877,2.1149,2.2746,4.2147,4.556,6.2636,6.8837Z" style="fill:#95285b"/></g></g></g></svg>