<svg xmlns="http://www.w3.org/2000/svg" viewBox="0 0 2000 1000"><g id="Right"><g id="red"><g id="main_lower"><path d="M2007.1378.5861,1865.6224,40.4377q-70.7867,19.7243-141.426,39.9138c-23.5322,6.7858-47.1266,13.313-70.6726,20.0243l-70.6287,20.1427-70.5578,20.3663-35.2522,10.2671L1441.802,161.29c-23.5558,6.7036-46.8315,13.2756-69.62,20.536-11.4167,3.6035-22.6275,7.5532-33.7544,11.6556-5.5433,2.0851-11.0463,4.2395-16.5482,6.3965l-8.1582,3.4158c-2.7141,1.1481-5.4583,2.237-8.1189,3.4871l-8.0371,3.6408-4.0146,1.826-3.9529,1.9422c-5.2608,2.607-10.5867,5.0893-15.7061,7.9524l-7.7481,4.1623c-2.5839,1.384-5.0784,2.9262-7.6221,4.38l-7.5966,4.4181c-2.507,1.5143-4.9646,3.1121-7.45,4.662l-7.4361,4.6788c-2.4421,1.618-4.85,3.2916-7.2761,4.9327l-7.2671,4.9417c-2.3943,1.69-4.7345,3.4618-7.1047,5.1867q-.8931.6413-1.752,1.33c-.5771.4526-1.1609.896-1.7079,1.39-1.1241.9461-2.1917,1.9669-3.3167,2.9076l-3.357,2.8462c-1.1247.9409-2.25,1.881-3.3333,2.8738-4.266,4.0594-8.5837,8.0251-12.7743,12.1191-4.09,4.2188-8.1665,8.4263-12.1779,12.6781l-3.0154,3.1751-2.8822,3.3162-5.7556,6.6085-5.7733,6.5474-5.5646,6.7323c-1.8533,2.24-3.6968,4.4834-5.5907,6.673l-2.8208,3.3006c-.9216,1.1175-1.7994,2.2772-2.7008,3.4125q-5.4476,6.7767-10.9447,13.4647l-10.5724,13.7435c-1.7982,2.2541-3.4383,4.6423-5.12,6.9924l-5.0288,7.0558c-3.4128,4.6495-6.5345,9.5269-9.7854,14.2938-25.5928,38.4777-46.9672,79.6-65.3016,122.2721L1000.5,498.5c19.24-45.0237,42.9785-88.1993,71.656-127.914,3.6173-4.9384,7.1156-9.9664,10.959-14.7345l5.651-7.2381c1.8887-2.4086,3.7349-4.8517,5.7433-7.1634l11.8243-14.0528,12.35-13.593a588.1233,588.1233,0,0,1,53.4453-50.3223c4.7565-3.8517,9.63-7.56,14.439-11.3477l3.6183-2.8266c1.2075-.94,2.3992-1.9015,3.6584-2.7728l7.46-5.3547c2.494-1.7742,4.9569-3.5935,7.4764-5.3309l7.6475-5.0834c2.5537-1.6872,5.0877-3.4054,7.6578-5.0672l7.8232-4.8084a524.1659,524.1659,0,0,1,65.13-33.84,654.0691,654.0691,0,0,1,68.9635-25.1982c23.3935-7.2455,47.0718-13.519,70.7562-19.7316q142.0783-37.4262,284.5868-73.2Q1863.8708,33.2212,2006.8622-.5861Z" style="fill:#b11435"/></g><g id="main_upper"><path d="M2007.1378.5861q-143.0535,33.4889-285.655,68.88-142.59,35.4163-284.7232,72.6538c-23.6844,6.2126-47.3627,12.4861-70.7562,19.7316A654.0691,654.0691,0,0,0,1297.04,187.05a524.1659,524.1659,0,0,0-65.13,33.84l-7.8232,4.8084c-2.57,1.6618-5.1041,3.38-7.6578,5.0672l-7.6475,5.0834c-2.5195,1.7374-4.9824,3.5567-7.4764,5.3309l-7.46,5.3547c-1.2592.8713-2.4509,1.8325-3.6584,2.7728l-3.6183,2.8266c-4.8092,3.7872-9.6825,7.496-14.439,11.3477a588.1233,588.1233,0,0,0-53.4453,50.3223l-12.35,13.593L1094.5093,341.45c-2.0084,2.3117-3.8546,4.7548-5.7433,7.1634l-5.651,7.2381c-3.8434,4.7681-7.3417,9.7961-10.959,14.7345-28.6775,39.7147-52.4162,82.89-71.656,127.914l-34.6159-14.7364c5.5666-11.62,11.1448-23.2248,17.0685-34.6821l4.4176-8.6,4.6037-8.5128c1.5331-2.8381,3.0116-5.7019,4.5918-8.5162l4.7837-8.4206c1.61-2.7985,3.1584-5.6271,4.8213-8.3982l4.9535-8.331c1.67-2.7663,3.265-5.5743,5-8.3043l5.2031-8.19,5.2035-8.19,5.3969-8.0776,5.4043-8.0745c1.8367-2.669,3.7628-5.2806,5.6418-7.9228,7.49-10.5842,15.3119-20.9644,23.36-31.1775L1078.7,303.2574l12.7825-14.806c1.0545-1.246,2.0845-2.5145,3.1608-3.7423l3.2886-3.632c2.2081-2.4075,4.3608-4.872,6.5256-7.3295l6.5011-7.3788,6.72-7.1955,6.6969-7.2537,3.3552-3.633,3.4946-3.4913q6.9828-7.0008,14.1038-13.9143c4.837-4.5,9.8094-8.8612,14.734-13.3031,2.4878-2.1882,4.725-4.7133,7.45-6.6051,2.6283-2.02,5.3877-3.8642,8.1984-5.6293s5.5874-3.5705,8.4235-5.2932l8.6-5.0336c2.87-1.6671,5.7177-3.3606,8.6015-4.9953l8.7657-4.72c2.9267-1.5587,5.8239-3.16,8.77-4.6733l8.9088-4.4013c2.9787-1.4424,5.9093-2.97,8.9218-4.3325l9.0282-4.0822c5.9767-2.8009,12.1158-5.203,18.1933-7.7085l4.5623-1.8637,4.6042-1.7336,9.2039-3.4368c3.0544-1.1812,6.1573-2.1832,9.24-3.2461l9.25-3.1465c6.19-1.9561,12.3775-3.9012,18.5634-5.7488,12.3808-3.6079,24.7618-7,37.1049-9.955,12.3439-3.0849,24.6489-5.6617,36.851-8.3623l18.2289-3.8681,18.0991-3.7232,36.0858-7.3656,36.0424-7.5086,72.1126-14.8424,72.1489-14.6095,72.165-14.4515q72.1331-14.5332,144.34-28.5849L2006.8622-.5861Z" style="fill:#b11435"/></g></g><g id="orange"><g id="shard_01_lower"><path d="M1138.9454,385.5026A340.8938,340.8938,0,0,1,1172.36,331.15q9.6106-12.7595,20.3713-24.5937c7.1317-7.9119,14.761-15.36,22.6079-22.5546a337.0109,337.0109,0,0,1,51.07-38.2359,340.9892,340.9892,0,0,1,57.33-27.9976,335.4942,335.4942,0,0,0-53.7,33.9459q-12.446,9.639-23.8067,20.33c-3.8029,3.53-7.46,7.2075-11.0654,10.9l-5.319,5.6164-2.5734,2.8838-1.2843,1.4389a9.3059,9.3059,0,0,1-1.36,1.3517c-8.2824,6.0652-16.44,12.44-24.185,19.3487-7.7583,6.8915-15.2859,14.139-22.4956,21.7682-1.7735,1.9288-3.5939,3.8319-5.3416,5.796l-5.2142,5.938-5.0823,6.0775q-2.4594,3.1038-5,6.1808c-1.63,2.0908-3.4277,4.0912-5.0756,6.1922-.8439,1.0388-1.6575,2.0979-2.4559,3.1678-.811,1.0626-1.6092,2.1351-2.3468,3.243-1.502,2.2-3.0461,4.3865-4.4257,6.6659C1141.5494,380.8521,1140.26,383.1825,1138.9454,385.5026Z" style="fill:#d75641"/></g><g id="shard_01_upper"><path d="M1138.9454,385.5026c1.4727-5.2075,2.7666-10.5658,4.3883-15.8159.4073-1.3109.7248-2.6756,1.092-4.0177.311-1.3738.6051-2.7628.8641-4.1786a35.3479,35.3479,0,0,1,2.3107-8.112,192.8831,192.8831,0,0,1,18.81-26.7,274.3194,274.3194,0,0,1,22.3153-23.77q11.7489-11.2519,24.3426-21.4062c2.0043-1.793,4.0926-3.4912,6.133-5.2393l6.3033-5.0285c4.25-3.2875,8.53-6.5336,12.93-9.608q13.1409-9.3015,27.0843-17.3169a341.7206,341.7206,0,0,1,58.219-26.5407,340.9892,340.9892,0,0,0-57.33,27.9976,337.0109,337.0109,0,0,0-51.07,38.2359c-7.8469,7.1945-15.4762,14.6427-22.6079,22.5546q-10.7319,11.83-20.3713,24.5937A340.8938,340.8938,0,0,0,1138.9454,385.5026Z" style="fill:#d75641"/></g><g id="shard_02_lower"><path d="M1244.3351,290.6876a333.6013,333.6013,0,0,1,56.87-44.3917h0a385.2575,385.2575,0,0,1,40.8456-20.95c6.9852-3.1354,14.1082-5.95,21.2629-8.6707l5.4076-1.93,2.7043-.9633,2.73-.89,5.459-1.7793,5.5086-1.6188c14.7-4.3068,29.739-7.3055,44.7892-10.0892,15.0228-2.957,29.9157-6.5619,44.65-10.7225q22.1006-6.2462,43.7348-14.0083,21.5965-7.8162,42.737-16.8169c28.1374-12.0866,55.6359-25.6332,82.53-40.274-25.7062,16.816-52.1951,32.6391-79.6076,47.1125q-20.6,10.7668-41.8937,20.4784-21.3389,9.5961-43.4636,17.823l-5.5393,2.0413c-1.85.6742-3.7186,1.2963-5.5793,1.9472-3.7243,1.2937-7.4534,2.5914-11.2231,3.7781-3.7583,1.2245-7.5249,2.4425-11.3278,3.5558-3.8739.7793-7.837,1.1314-11.766,1.6192l-2.9488.3477c-.9879.1173-1.9819.2369-2.8469.3146l-5.4027.53-1.354.132-.6774.0659-.3388.0329-.4239.0729-.1853.03-.0826.0094-2.7285.3273-5.5359.7241c-7.3889,1.0345-14.7429,2.13-21.8666,3.62l-5.3878,1.1019-5.3775,1.2695-2.6953.6352-2.6826.712-5.3763,1.4293c-7.1369,2.0595-14.2936,4.2228-21.3638,6.7243q-10.6173,3.7092-21.0951,8c-3.4791,1.4461-6.9521,2.9212-10.392,4.4617-1.7183.772-3.4372,1.5468-5.1369,2.3465l-2.5425,1.2029-1.257.6073-.6231.3048-.146.07a1.3111,1.3111,0,0,0,.1216-.1018,1.3366,1.3366,0,0,0,.2061-.2486l-.7733.5708A329.5429,329.5429,0,0,0,1244.3351,290.6876Z" style="fill:#d75641"/></g><g id="shard_02_upper"><path d="M1244.3351,290.6876a334.2309,334.2309,0,0,1,56.13-45.5908l-.1878.1386.4312-.2922.3762-.238.6146-.383,1.2315-.7586,2.472-1.4927c1.65-.9909,3.314-1.9538,4.98-2.9146,3.3337-1.9176,6.7032-3.77,10.088-5.5963q10.1717-5.4454,20.6476-10.3218c6.9647-3.2894,14.0794-6.2619,21.2385-9.1437l5.415-2.0518,2.71-1.0243,2.7377-.9515,5.4788-1.9032,5.538-1.7444c7.3888-2.36,14.8736-4.2684,22.36-6.1069l5.6309-1.33,2.8319-.6408,2.7633-.5735c3.8067-.7815,7.6251-1.561,11.3-2.3815l5.5662-1.2167,5.543-1.3222c1.8587-.3885,3.73-.72,5.5861-1.1255l5.57-1.212c3.7211-.7782,7.4171-1.67,11.1155-2.558,1.848-.4482,3.7038-.8673,5.5465-1.34l5.5238-1.4365q22.0927-5.7708,43.8013-13.074,21.6681-7.3581,42.9436-15.92c28.3147-11.502,56.0606-24.4911,83.245-38.5991-26.8936,14.6408-54.3921,28.1874-82.53,40.274q-21.14,8.9763-42.737,16.8169-21.6287,7.725-43.7348,14.0083c-14.734,4.1606-29.6269,7.7655-44.65,10.7225-15.05,2.7837-30.0889,5.7824-44.7892,10.0892l-5.5086,1.6188-5.459,1.7793-2.73.89-2.7043.9633-5.4076,1.93c-7.1547,2.721-14.2777,5.5353-21.2629,8.6707a385.2575,385.2575,0,0,0-40.8456,20.95h0A333.6013,333.6013,0,0,0,1244.3351,290.6876Z" style="fill:#d75641"/></g><g id="shard_03_lower"><path d="M1515.6073,151.83l-18.3909,8.4385q-9.2444,4.1378-18.5832,8.1175h0a38.0538,38.0538,0,0,1-11.4323,4.1361c-1.98.4252-3.9954.7163-6.0081,1.0118-2.0139.2909-4.0171.6184-6.0478.8355q-6.0642.7584-12.1982,1.1681c-4.089.27-8.2032.4093-12.3656.3L1430.5,175.5q23.4569-5.6321,46.6558-12.2741h0q9.6373-2.76,19.2249-5.69L1515.5,151.5Z" style="fill:#d75641"/></g><g id="shard_03_upper"><path d="M1515.5,151.5l-21.0684,6.6284q-10.5653,3.2136-21.1945,6.2116-10.634,2.9788-21.2931,5.8689l-21.3631,5.628-.1618-.6738q10.7086-2.6857,21.3646-5.5681l21.286-5.8475q10.6359-2.9494,21.2212-6.0826l21.1018-6.4944Z" style="fill:#d75641"/></g><g id="shard_04_lower"><path d="M1131.67,370.4917l-3.3,17.7234-.781,4.43-.6895,4.4746c-.127.7393-.2061,1.5016-.2708,2.2709-.0278.7879-.06,1.572-.1243,2.3392-.0417.379-.1073.7461-.1836,1.1079-.0125.3934-.5813.512-.842.7825l-1.6378,1.5875a76.5528,76.5528,0,0,0-6.2006,6.4978c-1.8487,2.2735-3.6214,4.4866-5.353,6.8448a143.6582,143.6582,0,0,0-9.5175,14.7647l-.2891-.0968q2.75-8.211,6.07-16.2163c2.1937-5.3415,4.74-10.5277,7.2619-15.719,2.5429-5.1826,5.0925-10.3622,7.7312-15.4969l7.8554-15.4345Z" style="fill:#d75641"/></g><g id="shard_04_upper"><path d="M1131.3993,370.3511l-7.8554,15.4345c-2.6387,5.1347-5.1883,10.3143-7.7312,15.4969-2.5223,5.1913-5.0682,10.3775-7.2619,15.719q-3.315,8-6.07,16.2163l-.2891-.0967a161.6681,161.6681,0,0,1,5.0112-16.678c.9832-2.7358,2.07-5.463,3.187-8.1405,1.1275-2.6783,2.49-5.2353,3.8713-7.7786l1.0306-1.9094c.32-.6483.6713-1.28,1.0406-1.9035.7172-1.2574,1.4551-2.5034,2.1316-3.78,1.3628-2.5473,2.768-5.0753,4.1645-7.6062l8.5-15.1145Z" style="fill:#d75641"/></g></g><g id="purple"><g id="shard_02_lower-2" data-name="shard_02_lower"><path d="M1122.0033,218.2813a343.2411,343.2411,0,0,0-26.3757,26.8567,336.5706,336.5706,0,0,0-23.0859,29.3707c-1.9768,2.3809-4.1782,4.5888-6.1939,6.952-2.0668,2.3227-4.0847,4.6905-6.0846,7.0781q-5.993,7.1682-11.6041,14.69a343.9015,343.9015,0,0,0-20.8041,31.3718,343.6118,343.6118,0,0,1,94.1483-116.3194Z" style="fill:#95285b"/></g><g id="shard_02_upper-2" data-name="shard_02_upper"><path d="M1122.0033,218.2813a345.35,345.35,0,0,0-28.1969,25.0173,343.3782,343.3782,0,0,0-65.9514,91.3021,339.8189,339.8189,0,0,1,9.54-38.6q2.99-9.6352,6.5934-19.2157c1.2035-3.19,2.4448-6.3829,3.7562-9.5537q.9675-2.3906,1.9923-4.76l1.0208-2.3783.5183-1.1873c.2022-.3723.2711-.8534.6825-1.0574a346.6839,346.6839,0,0,1,34.3534-22.12A339.3864,339.3864,0,0,1,1122.0033,218.2813Z" style="fill:#95285b"/></g><g id="shard_01_lower-2" data-name="shard_01_lower"><path d="M1023.0535,278.5114a164.1527,164.1527,0,0,0-6.3955,19.0994,127.34,127.34,0,0,0-4.0257,20.0961c-.7745,6.9792-.9931,14.1365-2.46,20.1732a12.0967,12.0967,0,0,1-2.27,3.6576c-.89,1.12-1.797,2.2294-2.6494,3.3782-1.719,2.2871-3.4886,4.5429-5.1761,6.8575l-5.0264,6.9773-4.887,7.0856q-4.7323,7.19-9.3766,14.471c-6.1645,9.7246-12.3779,19.51-18.3331,29.5666-6.0427,10.0172-11.6272,20.3769-16.8924,30.9964-5.3878,10.5847-10.06,21.552-14.6528,32.6941-2.2742,5.5792-4.35,11.2449-6.4411,16.9506-2.0972,5.7056-4.0161,11.4888-5.886,17.3244-3.8189,11.665-7.0157,23.5919-10.2009,35.7351l-2.6545-.1261c.8414-12.3384,2.1534-24.6379,4.0991-36.8325q2.7824-18.3091,7.16-36.31c2.9762-11.9678,6.252-23.8664,10.2387-35.5362q5.9235-17.52,13.3716-34.4643A407.7833,407.7833,0,0,1,976.26,335.6415q10.374-15.3024,22.0925-29.6333C1006.1565,296.4679,1014.4309,287.317,1023.0535,278.5114Z" style="fill:#95285b"/></g><g id="shard_01_upper-2" data-name="shard_01_upper"><path d="M1023.0535,278.5114c-8.6226,8.8056-16.897,17.9565-24.7011,27.4968Q986.6488,320.32,976.26,335.6415a405.5463,405.5463,0,0,0-69.2064,207.87l-1.3273-.063c.61-12.3493,1.6915-24.6811,3.4106-36.9287q2.4549-18.387,6.5231-36.5236c2.7656-12.06,5.8565-24.0644,9.6582-35.86q5.6487-17.7078,12.8509-34.8925c9.5931-22.87,20.6754-45.2512,34.0624-66.3305,1.6528-2.6465,3.3924-5.2365,5.087-7.86.84-1.3171,1.7359-2.5951,2.6165-3.8845a42.5638,42.5638,0,0,1,2.8265-3.7331c4.1371-4.7029,8.5719-9.1463,12.9792-13.5667,4.4964-4.3482,8.9516-8.6922,13.4877-12.9336,2.2746-2.1148,4.5561-4.2147,6.8837-6.2635Z" style="fill:#95285b"/></g></g></g><g id="left"><g id="red_copy" data-name="red copy"><g id="main_lower-2" data-name="main_lower"><path d="M-6.0844,995.9254,135.431,956.0737q70.7868-19.7242,141.4261-39.9137c23.5322-6.7859,47.1265-13.313,70.6726-20.0244l70.6286-20.1427,70.5579-20.3663L523.9684,845.36l35.2831-10.1378c23.5558-6.7035,46.8315-13.2756,69.62-20.5359,11.4168-3.6036,22.6276-7.5533,33.7544-11.6556,5.5434-2.0852,11.0464-4.24,16.5482-6.3966l8.1582-3.4157c2.7142-1.1481,5.4584-2.2371,8.1189-3.4872l8.0371-3.6408,4.0147-1.826,3.9529-1.9421c5.2607-2.607,10.5866-5.0894,15.706-7.9525l7.7482-4.1622c2.5839-1.3841,5.0784-2.9263,7.6221-4.38l7.5965-4.4181c2.5071-1.5144,4.9648-3.1122,7.45-4.6621l7.436-4.6788c2.4422-1.618,4.85-3.2916,7.2762-4.9327l7.2671-4.9416c2.3942-1.69,4.7345-3.4618,7.1047-5.1868q.8929-.6413,1.752-1.33c.5771-.4526,1.161-.8959,1.7078-1.39,1.1242-.9461,2.1918-1.9669,3.3168-2.9076l3.3569-2.8462c1.1248-.9409,2.25-1.8809,3.3334-2.8737,4.266-4.06,8.5836-8.0252,12.7743-12.1192,4.09-4.2188,8.1665-8.4262,12.1779-12.6781l3.0153-3.1751,2.8822-3.3162,5.7558-6.6084,5.7732-6.5474,5.5646-6.7324c1.8532-2.24,3.6967-4.4834,5.5907-6.673l2.8208-3.3006c.9216-1.1175,1.7994-2.2772,2.7008-3.4124q5.4475-6.7767,10.9447-13.4648l10.5723-13.7434c1.7983-2.2541,3.4384-4.6424,5.12-6.9925l5.0288-7.0557c3.4127-4.65,6.5344-9.527,9.7854-14.2939,25.5928-38.4777,46.9672-79.6,65.3015-122.2721l34.6159,14.7364c-19.24,45.0237-42.9785,88.1993-71.6559,127.914-3.6174,4.9384-7.1157,9.9664-10.9591,14.7345l-5.651,7.2381c-1.8887,2.4087-3.7349,4.8517-5.7432,7.1634L894.72,669.1142l-12.35,13.593A588.1225,588.1225,0,0,1,828.9246,733.03c-4.7565,3.8517-9.63,7.5605-14.439,11.3478l-3.6183,2.8265c-1.2074.94-2.3993,1.9016-3.6584,2.7728l-7.46,5.3547c-2.494,1.7743-4.9569,3.5936-7.4764,5.3309l-7.6475,5.0835c-2.5537,1.6872-5.0878,3.4053-7.6578,5.0671l-7.8233,4.8084a524.1518,524.1518,0,0,1-65.13,33.84A654.0691,654.0691,0,0,1,635.05,834.66c-23.3934,7.2456-47.0717,13.519-70.7562,19.7316q-142.0781,37.4263-284.5868,73.2Q137.1827,963.29-5.8087,997.0975Z" style="fill:#b11435"/></g><g id="main_upper-2" data-name="main_upper"><path d="M-6.0844,995.9254q143.0537-33.489,285.6551-68.88,142.59-35.4164,284.7231-72.6538c23.6844-6.2126,47.3628-12.486,70.7562-19.7316a654.079,654.079,0,0,0,68.9636-25.1982,524.1506,524.1506,0,0,0,65.13-33.84l7.8233-4.8084c2.57-1.6618,5.104-3.38,7.6579-5.0671l7.6473-5.0835c2.52-1.7373,4.9824-3.5566,7.4764-5.3309l7.46-5.3547c1.2592-.8713,2.451-1.8325,3.6585-2.7728l3.6182-2.8265c4.8091-3.7873,9.6825-7.4961,14.439-11.3478A588.1225,588.1225,0,0,0,882.37,682.7072l12.35-13.5931,11.8245-14.0527c2.0083-2.3116,3.8544-4.7548,5.7432-7.1634l5.6509-7.2381c3.8435-4.7681,7.3418-9.7961,10.9591-14.7345,28.6775-39.7147,52.4162-82.89,71.656-127.914l34.6158,14.7364c-5.5665,11.62-11.1447,23.2248-17.0684,34.6821l-4.4177,8.6-4.6036,8.5128c-1.5332,2.8381-3.0117,5.7018-4.5919,8.5162l-4.7835,8.4206c-1.61,2.7985-3.1585,5.6272-4.8213,8.3982l-4.9536,8.3311c-1.67,2.7663-3.265,5.5743-5,8.3042l-5.2031,8.19-5.2035,8.19-5.3968,8.0777-5.4043,8.0744c-1.8366,2.669-3.7628,5.2806-5.6419,7.9229-7.49,10.5841-15.3119,20.9643-23.36,31.1774L922.353,693.2541,909.5705,708.06c-1.0544,1.2459-2.0844,2.5145-3.1607,3.7421l-3.2886,3.6321c-2.2082,2.4075-4.3608,4.872-6.5256,7.33l-6.5011,7.3787-6.72,7.1955-6.6969,7.2538-3.3552,3.6329-3.4947,3.4914q-6.9826,7.0007-14.1037,13.9142c-4.837,4.5-9.8095,8.8612-14.734,13.3032-2.4878,2.1881-4.725,4.7133-7.45,6.605-2.6283,2.02-5.3877,3.8642-8.1984,5.6294s-5.5873,3.5705-8.4234,5.2931l-8.6,5.0337c-2.87,1.667-5.7176,3.3605-8.6015,4.9953l-8.7656,4.72c-2.9268,1.5587-5.824,3.16-8.77,4.6734l-8.9089,4.4012c-2.9786,1.4425-5.9092,2.9705-8.9217,4.3325l-9.0283,4.0822c-5.9765,2.801-12.1157,5.203-18.1933,7.7085l-4.5622,1.8637-4.6042,1.7336-9.2039,3.4369c-3.0545,1.1812-6.1574,2.1831-9.24,3.246l-9.25,3.1465c-6.19,1.9561-12.3774,3.9012-18.5633,5.7488-12.3809,3.6079-24.7619,7-37.1051,9.955-12.3439,3.0849-24.6487,5.6617-36.8509,8.3624l-18.229,3.868-18.099,3.7232-36.0859,7.3656-36.0423,7.5086-72.1127,14.8424-72.1488,14.61L282.8676,940.27q-72.133,14.5334-144.34,28.5849L-5.8087,997.0975Z" style="fill:#b11435"/></g></g><g id="orange_copy" data-name="orange copy"><g id="shard_01_lower-3" data-name="shard_01_lower"><path d="M862.108,611.0088a340.8816,340.8816,0,0,1-33.414,54.3525q-9.6107,12.7595-20.3714,24.5937c-7.1317,7.9119-14.761,15.36-22.6078,22.5546a337.0159,337.0159,0,0,1-51.07,38.2359,340.9929,340.9929,0,0,1-57.33,27.9976,335.4933,335.4933,0,0,0,53.6995-33.9459q12.4461-9.639,23.8068-20.33c3.8029-3.53,7.46-7.2075,11.0653-10.9l5.3191-5.6163,2.5734-2.8839,1.2843-1.4388a9.3109,9.3109,0,0,1,1.36-1.3518c8.2825-6.0652,16.44-12.44,24.1851-19.3487,7.7583-6.8915,15.2859-14.1389,22.4956-21.7682,1.7734-1.9287,3.594-3.8319,5.3417-5.796l5.2141-5.938,5.0823-6.0775q2.4594-3.1038,5-6.1807c1.63-2.0909,3.4278-4.0913,5.0757-6.1923.8439-1.0387,1.6575-2.0979,2.4558-3.1677.8111-1.0627,1.6093-2.1351,2.3468-3.243,1.5021-2.2006,3.0462-4.3866,4.4258-6.6659C859.504,615.6593,860.7936,613.3289,862.108,611.0088Z" style="fill:#d75641"/></g><g id="shard_01_upper-3" data-name="shard_01_upper"><path d="M862.108,611.0088c-1.4726,5.2075-2.7666,10.5658-4.3883,15.8159-.4072,1.3109-.7247,2.6756-1.0919,4.0177-.311,1.3738-.6051,2.7628-.8641,4.1786a35.3465,35.3465,0,0,1-2.3107,8.112,192.8916,192.8916,0,0,1-18.81,26.7,274.3049,274.3049,0,0,1-22.3153,23.77q-11.7489,11.2521-24.3427,21.4063c-2.0042,1.7929-4.0924,3.4911-6.1329,5.2393l-6.3033,5.0284c-4.25,3.2876-8.53,6.5336-12.93,9.6081q-13.1409,9.3014-27.0843,17.3169a341.7272,341.7272,0,0,1-58.219,26.5406,340.9929,340.9929,0,0,0,57.33-27.9976,337.0159,337.0159,0,0,0,51.07-38.2359c7.8468-7.1945,15.4761-14.6427,22.6078-22.5546q10.7321-11.8305,20.3714-24.5937A340.8816,340.8816,0,0,0,862.108,611.0088Z" style="fill:#d75641"/></g><g id="shard_02_lower-3" data-name="shard_02_lower"><path d="M756.7184,705.8238a333.597,333.597,0,0,1-56.87,44.3917h0a385.2292,385.2292,0,0,1-40.8456,20.95c-6.9852,3.1354-14.1083,5.95-21.2629,8.6707l-5.4076,1.93-2.7044.9633-2.73.89-5.459,1.7792-5.5085,1.6188c-14.7,4.3068-29.739,7.3055-44.7892,10.0893-15.0228,2.9569-29.9158,6.5618-44.65,10.7225q-22.1,6.246-43.7347,14.0083Q461.16,829.6541,440.02,838.6547c-28.1373,12.0866-55.6358,25.6332-82.5294,40.274,25.7062-16.8159,52.1951-32.6391,79.6076-47.1124q20.6-10.767,41.8936-20.4785,21.339-9.5961,43.4637-17.823l5.5394-2.0413c1.85-.6742,3.7185-1.2963,5.5792-1.9472,3.7243-1.2937,7.4534-2.5914,11.223-3.7781,3.7583-1.2245,7.5251-2.4424,11.3279-3.5558,3.874-.7793,7.8369-1.1314,11.766-1.6192l2.9487-.3476c.9879-.1174,1.982-.237,2.847-.3147l5.4027-.53,1.354-.1319.6773-.0659.3389-.033.4238-.0729.1853-.03.0827-.0094,2.7285-.3273,5.5359-.7241c7.3889-1.0345,14.7429-2.13,21.8666-3.62l5.3878-1.1018,5.3774-1.27,2.6953-.6352,2.6826-.712,5.3764-1.4293c7.1368-2.0595,14.2937-4.2228,21.3638-6.7242q10.6173-3.7093,21.0951-8c3.4791-1.4461,6.9521-2.9212,10.3919-4.4617,1.7185-.772,3.4373-1.5468,5.137-2.3464l2.5425-1.2029,1.2569-.6074.6232-.3047.146-.07a1.33,1.33,0,0,0-.3278.35l.7733-.5707A329.5529,329.5529,0,0,0,756.7184,705.8238Z" style="fill:#d75641"/></g><g id="shard_02_upper-3" data-name="shard_02_upper"><path d="M756.7184,705.8238a334.2309,334.2309,0,0,1-56.13,45.5908l.1877-.1386-.4311.2923-.3762.2379-.6147.383-1.2314.7586-2.4721,1.4928c-1.65.9909-3.3139,1.9537-4.98,2.9145-3.3338,1.9176-6.7033,3.77-10.088,5.5963q-10.1718,5.4456-20.6476,10.3218c-6.9647,3.2895-14.08,6.2619-21.2385,9.1437l-5.4151,2.0518-2.71,1.0243-2.7378.9515-5.4787,1.9032-5.538,1.7444c-7.3888,2.36-14.8737,4.2684-22.36,6.1069l-5.6309,1.33-2.8319.6407-2.7633.5735c-3.8068.7816-7.6251,1.561-11.3,2.3815l-5.5661,1.2167-5.543,1.3222c-1.8588.3886-3.73.7205-5.5862,1.1255l-5.57,1.212c-3.7211.7783-7.4171,1.67-11.1154,2.558-1.848.4483-3.704.8673-5.5466,1.34l-5.5238,1.4365q-22.0928,5.7708-43.8013,13.074-21.6681,7.3583-42.9436,15.92c-28.3147,11.502-56.0607,24.4911-83.245,38.5991,26.8936-14.6408,54.3921-28.1874,82.5294-40.274q21.1406-8.9763,42.7371-16.8168,21.6287-7.7251,43.7347-14.0083c14.734-4.1607,29.627-7.7656,44.65-10.7225,15.05-2.7838,30.0889-5.7825,44.7892-10.0893l5.5085-1.6188,5.459-1.7792,2.73-.89,2.7044-.9633,5.4076-1.93c7.1546-2.721,14.2777-5.5353,21.2629-8.6707a385.2292,385.2292,0,0,0,40.8456-20.95h0A333.597,333.597,0,0,0,756.7184,705.8238Z" style="fill:#d75641"/></g><g id="shard_03_lower-2" data-name="shard_03_lower"><path d="M485.4462,844.6819l18.3908-8.4385q9.2445-4.1376,18.5833-8.1175h0a38.0519,38.0519,0,0,1,11.4324-4.1362c1.98-.4252,3.9954-.7162,6.0081-1.0118,2.0139-.2909,4.0171-.6184,6.0478-.8354q6.064-.7586,12.1981-1.1682c4.089-.27,8.2033-.4093,12.3656-.3l.081.3369q-23.457,5.6321-46.6558,12.2741h0q-9.6372,2.76-19.2249,5.69l-19.1191,6.0362Z" style="fill:#d75641"/></g><g id="shard_03_upper-2" data-name="shard_03_upper"><path d="M485.5535,845.0114l21.0683-6.6284q10.5654-3.2135,21.1946-6.2116,10.6338-2.9787,21.2931-5.8689l21.363-5.628.1619.6739q-10.7088,2.6858-21.3646,5.568l-21.286,5.8475q-10.6359,2.9494-21.2212,6.0827l-21.1018,6.4943Z" style="fill:#d75641"/></g><g id="shard_04_lower-2" data-name="shard_04_lower"><path d="M869.3837,626.02l3.3-17.7234.7809-4.4295.69-4.4747c.127-.7393.2061-1.5016.2708-2.2709.0278-.7879.06-1.572.1242-2.3392.0418-.379.1073-.7461.1836-1.1079.0126-.3934.5813-.5119.8421-.7825l1.6378-1.5875a76.5357,76.5357,0,0,0,6.2-6.4978c1.8488-2.2734,3.6215-4.4865,5.3531-6.8447a143.6527,143.6527,0,0,0,9.5174-14.7648l.2892.0968q-2.75,8.211-6.07,16.2163c-2.1937,5.3415-4.74,10.5277-7.262,15.7191-2.5428,5.1825-5.0924,10.3622-7.7312,15.4968L869.6542,626.16Z" style="fill:#d75641"/></g><g id="shard_04_upper-2" data-name="shard_04_upper"><path d="M869.6542,626.16l7.8553-15.4346c2.6388-5.1346,5.1884-10.3143,7.7312-15.4968,2.5224-5.1914,5.0683-10.3776,7.262-15.7191q3.3148-8,6.07-16.2163l.2891.0967a161.6291,161.6291,0,0,1-5.0113,16.678c-.9831,2.7358-2.07,5.463-3.187,8.1406-1.1274,2.6782-2.49,5.2352-3.8712,7.7785l-1.0306,1.9094c-.32.6483-.6713,1.28-1.0407,1.9035-.7171,1.2574-1.4551,2.5034-2.1316,3.78-1.3628,2.5474-2.7679,5.0753-4.1644,7.6063l-8.5,15.1144Z" style="fill:#d75641"/></g></g><g id="purple_copy" data-name="purple copy"><g id="shard_02_lower-4" data-name="shard_02_lower"><path d="M879.05,778.23a343.2588,343.2588,0,0,0,26.3757-26.8567,336.5545,336.5545,0,0,0,23.0858-29.3707c1.9768-2.3808,4.1782-4.5888,6.194-6.9519,2.0668-2.3228,4.0847-4.6906,6.0846-7.0782q5.9928-7.1682,11.6041-14.69a343.9153,343.9153,0,0,0,20.8041-31.3718A343.6124,343.6124,0,0,1,879.05,778.23Z" style="fill:#95285b"/></g><g id="shard_02_upper-4" data-name="shard_02_upper"><path d="M879.05,778.23a345.3671,345.3671,0,0,0,28.1969-25.0173,343.3795,343.3795,0,0,0,65.9514-91.302,339.8506,339.8506,0,0,1-9.54,38.6q-2.99,9.6351-6.5934,19.2156c-1.2034,3.19-2.4448,6.383-3.7562,9.5537q-.9675,2.3905-1.9923,4.76l-1.0208,2.3783-.5183,1.1872c-.2023.3724-.2711.8534-.6825,1.0574a346.6891,346.6891,0,0,1-34.3534,22.12A339.3572,339.3572,0,0,1,879.05,778.23Z" style="fill:#95285b"/></g><g id="shard_01_lower-4" data-name="shard_01_lower"><path d="M978,718a164.1527,164.1527,0,0,0,6.3955-19.0994,127.3513,127.3513,0,0,0,4.0258-20.0961c.7744-6.9792.993-14.1365,2.46-20.1731a12.092,12.092,0,0,1,2.2695-3.6576c.89-1.12,1.797-2.23,2.6494-3.3783,1.719-2.287,3.4885-4.5429,5.1762-6.8575l5.0262-6.9773,4.8871-7.0856q4.7323-7.19,9.3766-14.471c6.1644-9.7245,12.3778-19.51,18.3331-29.5666,6.0427-10.0172,11.6272-20.3769,16.8923-30.9964,5.3879-10.5847,10.06-21.552,14.6529-32.6941,2.2741-5.5791,4.35-11.2449,6.4411-16.9506,2.0972-5.7055,4.016-11.4887,5.886-17.3244,3.8189-11.665,7.0156-23.5919,10.2008-35.735l2.6546.126c-.8413,12.3384-2.1535,24.6379-4.099,36.8325q-2.7826,18.3093-7.1606,36.31c-2.976,11.9679-6.2519,23.8664-10.2386,35.5362q-5.9235,17.52-13.3717,34.4643a407.7625,407.7625,0,0,1-35.6638,64.6643q-10.374,15.3024-22.0924,29.6333C994.897,700.0435,986.6226,709.1944,978,718Z" style="fill:#95285b"/></g><g id="shard_01_upper-4" data-name="shard_01_upper"><path d="M978,718c8.6226-8.8056,16.897-17.9565,24.7012-27.4968q11.7033-14.3115,22.0924-29.6333A405.5484,405.5484,0,0,0,1094,453l1.3273.063c-.61,12.3493-1.6916,24.6811-3.4107,36.9287q-2.4546,18.387-6.523,36.5236c-2.7657,12.06-5.8566,24.0644-9.6581,35.86q-5.6489,17.7078-12.8511,34.8925c-9.593,22.87-20.6754,45.2512-34.0624,66.33-1.6527,2.6465-3.3924,5.2365-5.0869,7.86-.84,1.317-1.7358,2.595-2.6166,3.8844a42.5292,42.5292,0,0,1-2.8265,3.7331c-4.137,4.703-8.5719,9.1463-12.9791,13.5667-4.4964,4.3482-8.9516,8.6923-13.4877,12.9336-2.2747,2.1148-4.556,4.2147-6.8838,6.2635Z" style="fill:#95285b"/></g></g></g></svg>