<svg id="bb3265da-efd2-4966-96ef-60d1f8f25722" data-name="Layer 1" xmlns="http://www.w3.org/2000/svg" xmlns:xlink="http://www.w3.org/1999/xlink" viewBox="0 0 1000 2000"><defs><linearGradient id="a94006ab-31c9-4635-ba93-db02ac353158" x1="-300.9995" y1="45.707" x2="710.1378" y2="45.707" gradientTransform="translate(306.1359 1290) rotate(90)" gradientUnits="userSpaceOnUse"><stop offset="0" stop-color="#b11435"/><stop offset="0.089" stop-color="#9b1232"/><stop offset="0.174" stop-color="#8e1130"/><stop offset="0.2507" stop-color="#89112f"/><stop offset="0.2892" stop-color="#8c112f"/><stop offset="0.7373" stop-color="#a71333"/><stop offset="1" stop-color="#b11435"/></linearGradient><radialGradient id="b8a15629-4c66-461a-903b-8e2e67792f82" cx="52.1401" cy="-76.7032" r="501.035" gradientTransform="translate(306.1359 1290) rotate(90)" gradientUnits="userSpaceOnUse"><stop offset="0" stop-color="#cb272d"/><stop offset="0.0754" stop-color="#c8252e"/><stop offset="0.6046" stop-color="#b71833"/><stop offset="1" stop-color="#b11435"/></radialGradient><radialGradient id="af800ae7-0df0-40a8-9e09-9d5c521139fd" cx="-81.3582" cy="-75.0603" r="109.2848" gradientTransform="translate(306.1359 1290) rotate(90)" gradientUnits="userSpaceOnUse"><stop offset="0" stop-color="#b11d2d"/><stop offset="0.3464" stop-color="#c43937"/><stop offset="0.7433" stop-color="#d75641"/><stop offset="0.9118" stop-color="#d65440"/></radialGradient><radialGradient id="a8a5685d-c415-4806-bb2e-2f31652fe7df" cx="10.1483" cy="66.4841" r="116.0992" gradientTransform="translate(305.8444 1289.1484) rotate(89.937)" gradientUnits="userSpaceOnUse"><stop offset="0" stop-color="#b11d2d"/><stop offset="1" stop-color="#d75641"/></radialGradient><radialGradient id="afa791a2-6e2d-407b-9e3f-87dbd89023c5" cx="1139.9637" cy="460.7027" r="114.3276" gradientTransform="matrix(0.7268, -0.6869, 0.4475, 0.4735, -721.8427, 1788.8025)" gradientUnits="userSpaceOnUse"><stop offset="0.2032" stop-color="#ffa343"/><stop offset="0.5471" stop-color="#ea7b42"/><stop offset="0.832" stop-color="#dc6041"/><stop offset="1" stop-color="#d75641"/></radialGradient><radialGradient id="e34774c4-1135-4be9-a0c3-9a3fdf2f8d7d" cx="64.3715" cy="30.6374" r="195.5397" gradientTransform="translate(306.1359 1290) rotate(90)" xlink:href="#a8a5685d-c415-4806-bb2e-2f31652fe7df"/><radialGradient id="b782e3fd-1eb1-471e-bc3c-1e001a84f3c4" cx="337.1429" cy="108.8352" r="148.4044" gradientTransform="translate(306.1359 1290) rotate(90)" xlink:href="#a8a5685d-c415-4806-bb2e-2f31652fe7df"/><radialGradient id="b6c27212-401d-48dc-857c-7ddc863b9c39" cx="206.8571" cy="55.956" r="161.7355" gradientTransform="translate(306.1359 1290) rotate(90)" xlink:href="#afa791a2-6e2d-407b-9e3f-87dbd89023c5"/><radialGradient id="a8b29301-f881-4547-b143-c647145fe970" cx="265.7039" cy="149.0067" r="24.3111" gradientTransform="translate(306.1359 1290) rotate(90)" xlink:href="#a8a5685d-c415-4806-bb2e-2f31652fe7df"/><radialGradient id="e35cfca8-52c4-4342-8bbe-6ac6a0ab8720" cx="316.8352" cy="174.1099" r="34.5585" gradientTransform="translate(306.1359 1290) rotate(90)" xlink:href="#a8a5685d-c415-4806-bb2e-2f31652fe7df"/><radialGradient id="b1d6a6c6-46e9-45da-9db9-f14b5d90b475" cx="222.2198" cy="139.7401" r="18.5829" gradientTransform="translate(306.1359 1290) rotate(90)" xlink:href="#a8a5685d-c415-4806-bb2e-2f31652fe7df"/><radialGradient id="aa6a337d-018e-4910-aca6-730a017c7b0e" cx="232.4821" cy="151.5604" r="13.9885" gradientTransform="translate(306.1359 1290) rotate(90)" xlink:href="#a8a5685d-c415-4806-bb2e-2f31652fe7df"/><radialGradient id="b4124d3d-5825-411a-9bc4-f21bb6bb7f3c" cx="221.7253" cy="139.6516" r="24.14" gradientTransform="translate(306.1359 1290) rotate(90)" xlink:href="#afa791a2-6e2d-407b-9e3f-87dbd89023c5"/><radialGradient id="e45b1576-d0b3-47fc-a072-940d426e3b69" cx="252.8495" cy="179.3317" r="31.1019" gradientTransform="translate(306.1359 1290) rotate(90)" xlink:href="#afa791a2-6e2d-407b-9e3f-87dbd89023c5"/><radialGradient id="ea694148-9ca3-421c-8be5-57c7ec683b14" cx="278.6243" cy="164.5604" r="14.3372" gradientTransform="translate(306.1359 1290) rotate(90)" xlink:href="#a8a5685d-c415-4806-bb2e-2f31652fe7df"/><radialGradient id="edc8cad5-cdeb-4568-b698-61a6c2c8bcf7" cx="288.9517" cy="184.2967" r="25.113" gradientTransform="translate(306.1359 1290) rotate(90)" xlink:href="#afa791a2-6e2d-407b-9e3f-87dbd89023c5"/><radialGradient id="a04578d4-a496-4d54-9e6a-6c6388a9e266" cx="-155.2527" cy="-65.0989" r="33.8416" gradientTransform="translate(306.1359 1290) rotate(90)" xlink:href="#a8a5685d-c415-4806-bb2e-2f31652fe7df"/><radialGradient id="ae6009ce-9915-4641-adce-a940fac9ebbe" cx="-167.0549" cy="-120.6154" r="39.8035" gradientTransform="translate(306.1359 1290) rotate(90)" xlink:href="#a8a5685d-c415-4806-bb2e-2f31652fe7df"/><radialGradient id="eac38695-403e-4f6f-a3c6-749134744051" cx="990.3015" cy="-3.757" r="29.1039" gradientTransform="matrix(0.9241, -0.3822, 0.2498, 0.6039, -520.5124, 1508.8118)" gradientUnits="userSpaceOnUse"><stop offset="0" stop-color="#ffa343"/><stop offset="0.9798" stop-color="#d75641"/></radialGradient><radialGradient id="a2fcf5ae-734c-4ce2-95d7-40b528b26e1a" cx="-210.9011" cy="0.5714" r="71.9473" gradientTransform="translate(306.1359 1290) rotate(90)" gradientUnits="userSpaceOnUse"><stop offset="0" stop-color="#522843"/><stop offset="0.2171" stop-color="#582845"/><stop offset="0.5084" stop-color="#69284b"/><stop offset="0.8404" stop-color="#852855"/><stop offset="1" stop-color="#95285b"/></radialGradient><linearGradient id="b3a7be4e-6504-4264-b661-a56642d17005" x1="-282.7445" y1="23.559" x2="-185.3861" y2="23.559" gradientTransform="translate(306.1359 1290) rotate(90)" gradientUnits="userSpaceOnUse"><stop offset="0" stop-color="#95285b"/><stop offset="0.1687" stop-color="#95284d"/><stop offset="0.3396" stop-color="#952843"/><stop offset="0.3945" stop-color="#952846"/><stop offset="0.7307" stop-color="#952856"/><stop offset="1" stop-color="#95285b"/></linearGradient><radialGradient id="f00913ff-6a5c-4f28-b9b3-66f8c61dfdcd" cx="-225.6703" cy="16.9132" fx="-185.13220217006682" fy="-5.364929112062772" r="130.124" gradientTransform="translate(306.1359 1290) rotate(90)" gradientUnits="userSpaceOnUse"><stop offset="0" stop-color="#522843"/><stop offset="1" stop-color="#95285b"/></radialGradient><radialGradient id="b9f202df-5165-4edf-86c7-12e695bb10ab" cx="-315.8681" cy="-227.8242" r="207.2276" gradientTransform="translate(306.1359 1290) rotate(90)" gradientUnits="userSpaceOnUse"><stop offset="0.0348" stop-color="#522843"/><stop offset="0.6258" stop-color="#7e2853"/><stop offset="1" stop-color="#95285b"/></radialGradient><linearGradient id="e65f1317-0679-4125-a297-d853eabef174" x1="-407.86" y1="-112.1588" x2="-277.9612" y2="-112.1588" gradientTransform="translate(306.1359 1290) rotate(90)" gradientUnits="userSpaceOnUse"><stop offset="0" stop-color="#95285b"/><stop offset="0.5134" stop-color="#95284b"/><stop offset="0.7353" stop-color="#952843"/><stop offset="0.8998" stop-color="#952850"/><stop offset="1" stop-color="#95285b"/></linearGradient><linearGradient id="f1c879a6-bae3-4a9e-b25d-169833bf3c36" x1="1189.0001" y1="1875.7749" x2="2200.1378" y2="1875.7749" gradientTransform="translate(-1139 2188.2778) rotate(-90)" gradientUnits="userSpaceOnUse"><stop offset="0" stop-color="#b11435"/><stop offset="0.0781" stop-color="#b11831"/><stop offset="0.2507" stop-color="#b11d2d"/><stop offset="1" stop-color="#b11435"/></linearGradient><radialGradient id="b2f082c7-aca3-4d4a-8b7a-ed6c17cda608" cx="1542.9369" cy="1753.2967" r="500.4468" gradientTransform="translate(-1139 2188.2778) rotate(-90)" gradientUnits="userSpaceOnUse"><stop offset="0" stop-color="#89112f"/><stop offset="0.5477" stop-color="#a11333"/><stop offset="1" stop-color="#b11435"/></radialGradient><radialGradient id="ba8d1685-34eb-4fcf-b609-56669e580351" cx="-564.8352" cy="-348.8792" r="116.0302" gradientTransform="translate(306.1359 1290) rotate(90)" xlink:href="#afa791a2-6e2d-407b-9e3f-87dbd89023c5"/><radialGradient id="edc92814-6735-484d-a424-09a146dab084" cx="-690.2418" cy="-441.4504" r="205.3736" gradientTransform="translate(306.1359 1290) rotate(90)" xlink:href="#afa791a2-6e2d-407b-9e3f-87dbd89023c5"/><radialGradient id="f1960bcc-ac81-4113-8870-64d1217325fa" cx="-454.8571" cy="-599.6923" r="300.7312" gradientTransform="translate(306.1359 1290) rotate(90)" xlink:href="#a8a5685d-c415-4806-bb2e-2f31652fe7df"/><radialGradient id="b733c0d8-288c-4807-be10-274f9e112130" cx="-662.7999" cy="-414.022" r="122.9427" gradientTransform="translate(306.1359 1290) rotate(90)" xlink:href="#afa791a2-6e2d-407b-9e3f-87dbd89023c5"/><radialGradient id="a027ff9c-d364-4534-ba16-51fd8caae728" cx="-909.011" cy="-454.9011" r="176.9197" gradientTransform="translate(306.1359 1290) rotate(90)" xlink:href="#afa791a2-6e2d-407b-9e3f-87dbd89023c5"/><radialGradient id="e144cb39-a63c-4236-8c2c-42f4964dbd89" cx="-771.7363" cy="-554.989" r="157.9824" gradientTransform="translate(306.1359 1290) rotate(90)" xlink:href="#a8a5685d-c415-4806-bb2e-2f31652fe7df"/><radialGradient id="a17e2fd1-836b-4efc-acbb-9e3c7613aaca" cx="1755.7039" cy="1979.0067" r="24.3111" gradientTransform="translate(-1139 2188.2778) rotate(-90)" xlink:href="#afa791a2-6e2d-407b-9e3f-87dbd89023c5"/><radialGradient id="fecbc17e-e3b6-41b4-abb1-e5a7eeb943aa" cx="-904.5275" cy="-550.1099" r="30.9483" gradientTransform="translate(306.1359 1290) rotate(90)" xlink:href="#afa791a2-6e2d-407b-9e3f-87dbd89023c5"/><radialGradient id="ac04402b-919f-4be1-8de4-a419ff90e23f" cx="1712.2198" cy="1969.7401" r="18.5829" gradientTransform="translate(-1139 2188.2778) rotate(-90)" xlink:href="#afa791a2-6e2d-407b-9e3f-87dbd89023c5"/><radialGradient id="b12937a9-a2ee-4b88-83e5-5192a04704ad" cx="-824.6154" cy="-532.967" r="13.3916" gradientTransform="translate(306.1359 1290) rotate(90)" xlink:href="#afa791a2-6e2d-407b-9e3f-87dbd89023c5"/><radialGradient id="afe8b326-33e2-41c7-bbc0-e0351566519f" cx="1711.7253" cy="1969.6516" r="24.14" gradientTransform="translate(-1139 2188.2778) rotate(-90)" xlink:href="#a8a5685d-c415-4806-bb2e-2f31652fe7df"/><radialGradient id="be715b43-0919-49b4-ba01-4be159b2b18c" cx="1742.8495" cy="2009.3317" r="31.1019" gradientTransform="translate(-1139 2188.2778) rotate(-90)" xlink:href="#a8a5685d-c415-4806-bb2e-2f31652fe7df"/><radialGradient id="a66ddc36-0b1c-445a-b060-a971303aa0c3" cx="-872.8791" cy="-546.5496" r="13.5285" gradientTransform="translate(306.1359 1290) rotate(90)" xlink:href="#afa791a2-6e2d-407b-9e3f-87dbd89023c5"/><radialGradient id="b1fcf5ed-d579-4ada-962a-f5e8212e634f" cx="1778.9517" cy="2014.2967" r="25.113" gradientTransform="translate(-1139 2188.2778) rotate(-90)" xlink:href="#a8a5685d-c415-4806-bb2e-2f31652fe7df"/><radialGradient id="b36a3ffb-68f3-4809-8783-a03a103cb476" cx="-474.6374" cy="-314.4615" r="87.1138" gradientTransform="translate(306.1359 1290) rotate(90)" xlink:href="#afa791a2-6e2d-407b-9e3f-87dbd89023c5"/><radialGradient id="f88ff618-1f7f-405e-88c5-c554a2d5ff16" cx="-446.9451" cy="-264.6154" r="47.9482" gradientTransform="translate(306.1359 1290) rotate(90)" xlink:href="#afa791a2-6e2d-407b-9e3f-87dbd89023c5"/><radialGradient id="a3be7259-31ff-415d-91fb-538de3023606" cx="-401.8462" cy="-319.6044" r="52.4112" gradientTransform="translate(306.1359 1290) rotate(90)" xlink:href="#a8a5685d-c415-4806-bb2e-2f31652fe7df"/><radialGradient id="f3c96f95-199b-4c18-a66f-ee8a02fddf57" cx="1279.0989" cy="1830.5714" r="71.9473" gradientTransform="translate(-1139 2188.2778) rotate(-90)" gradientUnits="userSpaceOnUse"><stop offset="0.0348" stop-color="#952843"/><stop offset="0.0709" stop-color="#952844"/><stop offset="1" stop-color="#95285b"/></radialGradient><radialGradient id="fc142e5b-e8f9-4311-9329-f0543fbc50fc" cx="-301.6264" cy="-471.5165" r="123.5187" gradientTransform="translate(306.1359 1290) rotate(90)" gradientUnits="userSpaceOnUse"><stop offset="0.3503" stop-color="#522843"/><stop offset="0.4848" stop-color="#622849"/><stop offset="0.8212" stop-color="#872856"/><stop offset="1" stop-color="#95285b"/></radialGradient><radialGradient id="b42a9cc3-8cca-47bb-90d9-9283cbe10909" cx="640.4286" cy="998.0659" r="73.0526" gradientUnits="userSpaceOnUse"><stop offset="0" stop-color="#95284b"/><stop offset="0.5031" stop-color="#95284f"/><stop offset="0.9549" stop-color="#952859"/><stop offset="1" stop-color="#95285b"/></radialGradient><radialGradient id="ed4a4961-11f3-481f-b634-7382cdfae0a4" cx="514.8901" cy="1041.3187" r="220.563" gradientUnits="userSpaceOnUse"><stop offset="0" stop-color="#95284b"/><stop offset="1" stop-color="#95285b"/></radialGradient><radialGradient id="ed793d57-75e7-4f8c-ae1b-2d8788448e3f" cx="747.2418" cy="1099.8681" r="247.8606" gradientUnits="userSpaceOnUse"><stop offset="0.0348" stop-color="#522843"/><stop offset="0.2766" stop-color="#66284a"/><stop offset="0.6258" stop-color="#7e2853"/><stop offset="1" stop-color="#95285b"/></radialGradient></defs><g id="aec82472-a36d-4b99-a922-65a66c11ee60" data-name="Layer 1"><path d="M1012-72Q920,308.5,828,689L721,867,265,1140,148,1350-17,2075Q-25,1004-33-67l871.8834,1.8Z" style="fill:#292929"/><path d="M1012-72,828,689,721,867,265,1140,148,1350-15.22,2076.7473Q-24.11,1004.8737-33-67l871.8834,1.8Z" style="fill:#1a1a1a"/></g><g id="e3dff5ad-2d4a-45a8-9cd9-11d290755ad8" data-name="right shape"><g id="a1d1a910-b86f-4ee3-8b72-4af3aa260cff" data-name="red copy 2"><path id="edf5cfae-d4f0-4836-af24-248ae0a79ada" data-name="main lower" d="M1.722,2000.1378l39.8517-141.5154q19.7241-70.7867,39.9137-141.426c6.7858-23.5322,13.313-47.1266,20.0243-70.6726l20.1428-70.6287,20.3663-70.5577,10.2671-35.2522,10.1377-35.2831c6.7036-23.5558,13.2756-46.8315,20.536-69.62,4.0572-12.7347,7.6124-22.93,11.6556-33.7544,2.45-6.56,6.0732-16.2181,11.5176-28.786,6.2573-14.4442,11.5546-24.9615,13.071-27.95,1.8928-3.73,4.3979-8.5457,10.3983-19.3744,7.362-13.2858,13.519-24.397,22.5318-39.3169,15.8237-26.1946,21.0678-32.0431,25-36,1.4294-1.4384,6.9652-5.944,18-15,17.8552-14.6533,31.9438-25.2323,37-29,11.1535-8.311,11.7321-8.345,35.0826-25.2523,5.8613-4.244,8.826-6.3189,10.5879-7.545l.0025-.0015c17.7584-9.5064,36.87-18.996,57.327-28.2012,29.4909-13.27,57.6825-24.1069,84-33l-21-53a840.3983,840.3983,0,0,0-127,70c-25.255,17.0122-45.9574,33.1556-57,42-23.5428,18.8561-39.2995,31.4762-54,47-31.9168,33.7046-46.2779,68.803-75,139a747.817,747.817,0,0,0-26,72c-4.3125,14.3246-5.8717,21.1816-19,70-6.8342,25.4137-10.2027,37.6527-13,48-19.6336,72.6272-45.9506,180.8888-59,235-12.4417,51.5915-21.1592,87.74-33,139C20.5353,1914.2074,9.1287,1966.0057,1.722,2000.1378Z" style="fill:url(#a94006ab-31c9-4635-ba93-db02ac353158)"/><path id="fcd634ac-f72c-410c-9779-4465d05aabd2" data-name="main upper" d="M1.722,2000.1378q33.4889-143.0533,68.88-285.655,35.4163-142.59,72.6537-284.7233c6.2126-23.6844,12.4861-47.3626,19.7316-70.7562,5.4125-17.4751,10.0481-30.23,11.1108-33.2164,4.0816-11.4687,16.1347-44.6038,36.0374-86.787,6.725-14.2533,13.8782-29.3347,25-49,7.62-13.473,13-24,20-33,5-7,17.2015-15.7329,38-32,8.2024-6.4153,20.0012-15.8812,34-28,0,0,19.2965-15.06,44.586-31.844,50.5307-33.536,116.53-66.0742,127.914-71.656l-19.5-48.5c-11.8751,4.8683-28.8915,12.3473-49,23,0,0-4.8525,2.5707-9.4258,5.11-25.9038,14.382-52.7178,33.984-69.5742,46.89,0,0-55.6854,39.72-113,90a123.4161,123.4161,0,0,0-17,18,126.5077,126.5077,0,0,0-13,21c-11.3883,22.4531-19.6566,42.5237-26,57-6.5292,14.9006-11.5238,26.2121-18,42-10.69,26.0608-15.0433,38.837-17.3231,45.7838-2.5848,7.876-4.5192,14.3439-5.7487,18.5633-3.6079,12.3809-7,24.7619-9.9551,37.1049-3.0848,12.3439-5.6616,24.6489-8.3623,36.851l-3.8681,18.2288-3.7231,18.0992-7.3656,36.0858-7.5087,36.0423-14.8423,72.1126-14.61,72.1489-14.4516,72.165q-14.5332,72.1332-28.5849,144.34Q15.2576,1927.8321,1.722,2000.1378Z" style="fill:url(#b8a15629-4c66-461a-903b-8e2e67792f82)"/></g><g id="f517c1f6-3f2b-4357-b00f-fb456fb10ee3" data-name="orange copy 2"><path d="M276.1359,1229c-1.2693-1.4677-2.9829-3.4911-4.97-5.9711.3314-.3585.6566-.7049.97-1.0289,2.1181-2.1892,10.32-10.3176,20-22,2.3217-2.8019,3.0024-3.7283,5-6,6.9856-7.9438,19-18,19-18a86.7058,86.7058,0,0,0,22-22,21.5953,21.5953,0,0,0,.4806,5.0366,10.8474,10.8474,0,0,1,2.1844-2.5549,69.7568,69.7568,0,0,1,6.335-3.4817,101.1427,101.1427,0,0,1,10-4c7.1394-2.6073,10.7092-3.911,11-4,7.1089-2.1766,8.0167-1.6428,13.8325-3.7056.2676-.0948,1.1188-.3985,1.1675-.2944.1526.3264-7.8693,4.0155-18,10,0,0-2.1191,1.2394-5,3-3.3914,2.0726-20.5,12.5283-33,24-21.3733,19.6156-42.3831,54.1879-43,55-.36.474-.7633.8964-.7634.8965a1.34,1.34,0,0,1-.6447.6191C281.6122,1234.9609,279.8944,1233.3456,276.1359,1229Z" style="fill:url(#af800ae7-0df0-40a8-9e09-9d5c521139fd)"/><path d="M224.1611,1302.024c1.1427-2.4162,2.3907-5.0389,4.02-8.3623q4.586-9.3534,9.2214-18.0323c16.6845-30.9452,27.05-45.4116,33.704-52.6266,3.9525,3.94,7.9049,7.8341,11.8568,11.1964l-1.0395.9837-2.8078,2.6562-5.4593,5.48c-3.5862,3.7113-7.1554,7.4737-10.5736,11.3777Q252.749,1266.35,243.454,1279.085c-2.2238,3.0506-4.24,5.9256-6.0785,8.6313-4.9332,7.2581-8.543,13.1535-11.32,17.792-10.5422,17.6118-15.5394,27.6834-15.92,27.4916C209.6314,1332.746,218.0767,1314.8889,224.1611,1302.024Z" style="fill:url(#a8a5685d-c415-4806-bb2e-2f31652fe7df)"/><path id="a558a9fe-e1d9-40b1-9841-ec687a848fd4" data-name="shard 01 upper" d="M383.1359,1141c-5.3745.7362-11.0582,1.7134-17,3a224.154,224.154,0,0,0-28,8c-10.2622,6.6707-18.7271,12.5386-25,17-19.8819,14.14-25.6641,20.2678-29,24-4.3053,4.8169-6.9288,8.61-12,16-12.4791,18.1851-17.7169,27.9386-22,36-14.73,27.7246-40.607,87.7372-40,88a63.8709,63.8709,0,0,0,3-6c6.4636-13.3469,17.0234-33.988,35-66h0c14.6766-21.3478,19.6853-26.9021,22.1855-29.2587.0342-.0322.3661-.3267.8143-.7411,1.6235-1.5,2.9584-2.8721,4-4,2.5793-3.6879,12.6989-18.0535,23-30,5.9082-6.8518,10.3543-11.1528,11.8073-12.539,1.5568-1.4852,3.7582-3.5258,7.1927-6.461,4.8846-4.1744,12.159-10.069,22-17,5.2035-3.0253,10.87-6.06,17-9A242.2129,242.2129,0,0,1,383.1359,1141Z" style="fill:url(#afa791a2-6e2d-407b-9e3f-87dbd89023c5)"/><path d="M185.2582,1473.32a317.5737,317.5737,0,0,1,11.7839-64.5809c.46-1.6053.8018-2.7493,1.0938-3.7389a438.2425,438.2425,0,0,1,28-71,299.3592,299.3592,0,0,1,19-32c11.0489-16.22,22.1668-29.1139,22.3832-28.9465.1416.11-4.29,5.8924-7.8455,10.836a293.3818,293.3818,0,0,0-28.9579,50.7449l-.5419,1.24-.5519,1.2824-1.0907,2.5925c-.7247,1.733-1.4237,3.4841-2.12,5.2346-1.3888,3.5038-2.7108,7.0379-4.0036,10.5769q-3.8449,10.6344-7.071,21.4243c-2.19,7.1726-4.039,14.417-5.7849,21.637l-1.1931,5.4336-.5942,2.7112-.5169,2.72-1.0335,5.4279-.8656,5.4309c-1.1773,7.1819-1.95,14.5767-2.661,22.0038l-.4817,5.5621-.2079,2.74-.0057.083-.022.1864-.0544.4268-.0181.34-.0362.68-.0727,1.3585-.2932,5.4207c-.04.8675-.1159,1.8658-.19,2.8579l-.2185,2.9612c-.29,3.6189-.4791,7.2585-.9759,10.8486-.3.2645-4.11,3.5068-8.9753,2.1858A9.8786,9.8786,0,0,1,185.2582,1473.32Z" style="fill:url(#e34774c4-1135-4be9-a0c3-9a3fdf2f8d7d)"/><path d="M150.1359,1597c10.1095-26.5785,16.6919-49.4268,20-61,6.7472-23.6042,11.56-44.345,15-61,.0368-.5474.0813-1.1193.1223-1.68,4.817,1.3678,9.66,2.6307,14.853,2.4944-.045.3252-.0774.6526-.128.9768-.9462,3.8481-1.9985,7.6642-3.0577,11.4724-1.021,3.8179-2.1546,7.6-3.2844,11.3774-.5691,1.8874-1.1089,3.7813-1.7018,5.659l-1.7973,5.6231q-7.2123,22.4678-15.908,44.2-8.7468,21.7057-18.6294,42.7479c-21.17,45.209-42.8872,81.9649-43.5911,81.589C111.355,1679.1089,131.0054,1647.2954,150.1359,1597Z" style="fill:url(#b782e3fd-1eb1-471e-bc3c-1e001a84f3c4)"/><path id="f8de23e7-36a4-4239-bf8c-eafa3c60d541" data-name="shard 02 upper" d="M267.5191,1273.0536l.0046-.0062a39.3544,39.3544,0,0,0-2.8015,3.0709c-9.6536,11.2851-14.48,16.9277-20.303,24.769a335.327,335.327,0,0,0-19.9962,30.2343l.13-.1939-.2732.4435-1.2812,2.28-1.3833,2.5348c-.918,1.6917-1.8072,3.3962-2.6944,5.1025-1.77,3.4143-3.4734,6.8614-5.15,10.3228q-4.9962,10.4-9.41,21.0786c-2.9822,7.1017-5.6411,14.34-8.2075,21.6176l-1.8134,5.5-.905,2.7517-.8311,2.7769-1.6621,5.5566-1.5009,5.6089c-2.0346,7.4847-3.6148,15.0459-5.1246,22.605l-1.0831,5.6833-.5165,2.8573-.4522,2.7857c-.6146,3.8372-1.2266,7.6859-1.8858,11.3934l-.9724,5.6139-1.0789,5.5954c-.307,1.8739-.5569,3.758-.8805,5.63l-.9676,5.6176c-.615,3.7515-1.3443,7.4829-2.07,11.2166-.3671,1.8658-.7047,3.7381-1.0961,5.6l-1.194,5.5813q-4.8,22.3239-11.1487,44.3305-6.405,21.9686-14.03,43.5976c-17.9567,51.0907-35.5833,84.5385-34.927,84.8512.6828.3256,20.6107-35.4485,38.1224-81.46,7.0658-18.5652,13.6688-38.9056,15-43,1.9948-6.1354,7.1028-22.0359,13-43,4.0641-14.4471,7.3715-27.2766,10-38,.2784-5.6916.8256-13.61,2-23,3.4889-27.8937,9.9982-48.4341,14-61a405.6191,405.6191,0,0,1,23-56,322.4738,322.4738,0,0,1,18-31c2.18-3.2382,4.126-6.1287,7-10C256.9405,1286.5282,267.3569,1273.25,267.5191,1273.0536Z" style="fill:url(#b6c27212-401d-48dc-857c-7ddc863b9c39)"/><path d="M146.1359,1549a125.1558,125.1558,0,0,0,3-15,5.604,5.604,0,0,1,1,0,6.6246,6.6246,0,0,1,4,2,118.8483,118.8483,0,0,1-10,31l-3-3A125.1419,125.1419,0,0,0,146.1359,1549Z" style="fill:url(#a8b29301-f881-4547-b143-c647145fe970)"/><path d="M123.7345,1608.067l-.3245-.1216c2.99-8.39,5.297-14.8491,6.7259-18.9454.5913-1.6949,1.398-3.309,2-5,1.0983-3.0852,1.844-5.8722,3.2782-6.0544a2.3087,2.3087,0,0,1,.7218.0544,3.2964,3.2964,0,0,1,2.0048,1.5724q-1.2751,2.6175-2.5758,5.2522-1.2937,2.6223-2.6014,5.2352Z" style="fill:url(#e35cfca8-52c4-4342-8bbe-6ac6a0ab8720)"/><path d="M155.6762,1506.6267c.3923-1.8225.8681-3.9889,1.4121-7.0273q.61-3.41,1.0476-6.5994h0a37.48,37.48,0,0,1,1.0252,7.655c.0327,1.0985-.0461,2.5409-.221,5.38a93.5537,93.5537,0,0,1-1.2291,12.1922c-.2187,1.1809-.43,2.1441-.5751,2.7732l-2-1-2-1C154.1812,1513.6725,155.0557,1509.509,155.6762,1506.6267Z" style="fill:url(#b1d6a6c6-46e9-45da-9db9-f14b5d90b475)"/><path d="M151.1359,1519a4.5677,4.5677,0,0,1,2-1,8.92,8.92,0,0,1,1,0h0s.8309.6434.93.7207a11.7239,11.7239,0,0,1,2.07,2.2793A12.7465,12.7465,0,0,1,151.1359,1519Z" style="fill:url(#aa6a337d-018e-4910-aca6-730a017c7b0e)"/><path d="M152.1359,1515c2.0732-8.1783,2.32-8.4576,4-15,.4384-1.7075.65-3.2291,1.5984-6.1793.2536-.7891.3639-.8267.4016-.8207.2034.032.0973,1.7827,0,3a138.2934,138.2934,0,0,1-3,18c-.2076.8656-.5488,2.2645-1,4l-3,1C151.3725,1518.04,151.7153,1516.6592,152.1359,1515Z" style="fill:url(#b4124d3d-5825-411a-9bc4-f21bb6bb7f3c)"/><path d="M141.9464,1551.35l4.2061-16.8529a8.2553,8.2553,0,0,1,3.9834-.4971c-.3827,2.5431-.9948,5.9807-2,10-.3254,1.3014-1.3006,5.1239-3,10-1.0012,2.8728-2.3055,6.2612-4,10h-3c.7835-1.9941,1.552-4.1829,2.2569-6.5571C141.0279,1555.3032,141.5369,1553.2638,141.9464,1551.35Z" style="fill:url(#e45b1576-d0b3-47fc-a072-940d426e3b69)"/><path d="M138.1359,1564a7.1606,7.1606,0,0,1,1.6484-.3058h1c.48,0,.8258.5635.93.7207A20.5071,20.5071,0,0,0,144.1359,1567,9.4876,9.4876,0,0,1,138.1359,1564Z" style="fill:url(#ea694148-9ca3-421c-8be5-57c7ec683b14)"/><path d="M123.41,1607.9454l-.3245-.1214,7.4043-20.8q1.5522-4.4895,3.0541-8.9953a3.9522,3.9522,0,0,1,2.592-.0286S131.7623,1588.2917,123.41,1607.9454Z" style="fill:url(#edc8cad5-cdeb-4568-b698-61a6c2c8bcf7)"/><path d="M389.1359,1129c-4.8255.2574-8.14.7295-8.1406.7295a154.8594,154.8594,0,0,0-19.5083,4.67A97.6444,97.6444,0,0,1,391.1359,1123a8.2249,8.2249,0,0,1,2.5473,6.0388c-.151-.0118-.3284-.0254-.5473-.0388A33.7423,33.7423,0,0,0,389.1359,1129Z" style="fill:url(#a04578d4-a496-4d54-9e6a-6c6388a9e266)"/><path d="M391.1359,1123c2.1736-1.68,4.5046-3.356,7-5a115.8658,115.8658,0,0,1,26.0773-12.79l.0967.2891a143.6524,143.6524,0,0,0-14.7647,9.5175c-2.3582,1.7316-4.5713,3.5043-6.8448,5.353a76.5438,76.5438,0,0,0-6.4978,6.2006l-1.5875,1.6378-.7825.842c-.0408-.0034-.1-.0078-.1494-.0117a20.81,20.81,0,0,0-3.3866-5.8581C390.5767,1123.12,390.8609,1123.0569,391.1359,1123Z" style="fill:url(#ae6009ce-9915-4641-adce-a940fac9ebbe)"/><path id="b3f3bb98-63aa-4735-b8b6-694a21ba0506" data-name="shard 04 upper" d="M361.487,1134.3993A82.5776,82.5776,0,0,1,391.1359,1124c1.2174-1.0494,2.9088-2.4489,5-4a91.2732,91.2732,0,0,1,13-8,111.4345,111.4345,0,0,1,15.2179-6.519l-.0968-.2891A153.1864,153.1864,0,0,0,408.1359,1109c-4.8077,1.4119-8.2453,2.7153-9,3a125.2234,125.2234,0,0,0-17,8A132.3133,132.3133,0,0,0,361.487,1134.3993Z" style="fill:url(#eac38695-403e-4f6f-a3c6-749134744051)"/></g><g id="aa9fa321-54fe-4f99-9ecd-def033bd27e0" data-name="purple copy 2"><path id="facb8d22-95a0-4721-98c1-ccdbec687df9" data-name="shard 02 lower" d="M225.7538,1104.6139l-.0058.008c.0005,0,.06-.075.1781-.222,8.5758-10.6835,25.9377-26.901,25.9378-26.9011,10.523-9.7951,17.0284-15.85,26.272-23.4988,7.6094-6.2961,9.2514-7.199,16.1247-13.0632,0,0,6.0388-5.114,10.96-8.7179,1.8395-1.3472,3.2768-2.344,4.1808-2.9727.3273-.2275.57-.3963.6037-.42,1.4183-.9839,9.3592-6.7234,30.1308-21.8264l-10,4c-.8536.1984-2.2683.5366-4,1a127.37,127.37,0,0,0-54,30c-1.7651,1.6867-3.0546,3.02-4,4-4.7316,4.9036-10.3565,11.37-21,27C243.41,1078.4722,225.8016,1104.5505,225.7538,1104.6139Z" style="fill:url(#a2fcf5ae-734c-4ce2-95d7-40b528b26e1a)"/><path id="bf423534-3d12-4053-ac02-005cf8c96f87" data-name="shard 02 upper-2" d="M225.7538,1104.6139c8.7365-13.15,16.7919-24.0868,23.3821-32.6139,14.8282-19.1862,22.9858-27.1406,33-34,1.59-1.0892,3.4143-2.2789,8-5A543.0079,543.0079,0,0,1,339.4,1007.2555c-16.1156,2.9921-28.3435,5.418-34.2641,6.7445a111.7354,111.7354,0,0,0-17,5,105.8,105.8,0,0,0-11,5,33.1671,33.1671,0,0,0-9,6c-.3544.3289-.6864.6639-1,1A263.9212,263.9212,0,0,0,225.7538,1104.6139Z" style="fill:url(#b3a7be4e-6504-4264-b661-a56642d17005)"/><path d="M320.8306,979.4064c12.8434-10.1383,20.5776-16.2564,25.6819-20.0932a63.6509,63.6509,0,0,1,6.6442,31.67l-.0208.0164-11,2c-9.1584,1.6652-20.2239,3.9137-25,5-7.9795,1.8149-20.4252,5.5356-37,14C289.7741,1004.1663,303.755,992.8857,320.8306,979.4064Z" style="fill:url(#f00913ff-6a5c-4f28-b9b3-66f8c61dfdcd)"/><path d="M350.0248,956.7368a407.79,407.79,0,0,1,63.9522-36.9255q16.7856-7.7472,34.1953-14.0452c11.5894-4.215,23.4214-7.7236,35.3286-10.9339q17.883-4.7479,36.1621-7.8714c12.1541-2.1846,24.4255-3.7376,36.745-4.8208l.1781,2.6515c-12.0783,3.4228-23.94,6.8529-35.528,10.9-5.7979,1.984-11.5423,4.016-17.2057,6.2247-2.1356.8329-9.5229,3.646-16.821,6.7724-12.0408,5.1582-20.7432,9.7969-32.8955,16.3114-4.6032,2.4677-15.7194,8.49-30,17-8.7816,5.233-17.6949,10.5445-29.365,18.3868-14.3935,9.6725-25.6957,18.2995-32.635,23.6132-3.7251,2.8524-6.8075,5.2679-8.9792,6.9836-4.3006-9.6868-3.4907-21.2519-6.6442-31.67C347.8451,958.3116,349.0084,957.4568,350.0248,956.7368Z" style="fill:url(#b9f202df-5165-4edf-86c7-12e695bb10ab)"/><path id="a846c921-6b53-49e1-b437-0277d1bd7a68" data-name="shard 01 upper-2" d="M280.1359,1012c.5106.557,6.21-4.981,12.76-10.062A140.0562,140.0562,0,0,1,324.1359,984c.2044-.0879,1.7643-.7131,4.8809-1.9712,8.0405-3.2457,8.9322-3.5978,10.1191-4.0288a93.3733,93.3733,0,0,1,10-3,66.222,66.222,0,0,1,9.03-9.199s.4772-.4015.97-.801c24.38-19.7512,61-38,61-38a446.238,446.238,0,0,1,62-26,434.9676,434.9676,0,0,1,74.3611-17.5343l-.089-1.3257c-12.335.852-24.6432,2.1754-36.8547,4.1344,0,0-18.0328,2.8-36.3886,7.2384C399.2015,913.8163,351.136,946,351.1359,946c-24.14,16.0932-49.8257,38.7537-69.0813,62.812C281.4471,1009.571,279.8057,1011.64,280.1359,1012Z" style="fill:url(#e65f1317-0679-4125-a297-d853eabef174)"/></g></g><g id="ea55b918-a4a6-45fe-abad-a0758f0b0170" data-name="right shape copy"><g id="face9cef-444e-495a-b08c-2f93bb9a77fa" data-name="red copy 3"><path id="fc0c08ba-b66e-4246-964d-959e224d3345" data-name="main lower-2" d="M995.4139-11.86,955.5623,129.6553q-19.7243,70.7868-39.9138,141.4261c-6.7858,23.5322-13.313,47.1265-20.0243,70.6726l-20.1427,70.6286-20.3663,70.5579L844.848,518.1927,834.71,553.4758c-6.7036,23.5558-13.2756,46.8315-20.536,69.62-4.0572,12.7348-7.6123,22.93-11.6556,33.7544-2.45,6.56-6.0731,16.2182-11.5175,28.786-6.2574,14.4442-11.5547,24.9617-13.071,27.95-1.8927,3.73-4.3979,8.5456-10.3983,19.3744-7.362,13.2857-13.519,24.3969-22.5318,39.3169-15.8238,26.1946-21.0677,32.0431-25,36-1.4294,1.4383-6.9651,5.9439-18,15-17.8553,14.6533-31.9438,25.2323-37,29-11.1535,8.311-11.732,8.3449-35.0826,25.2523-5.8614,4.2441-8.8261,6.3188-10.588,7.545l-.0024.0016c-17.718,9.5078-36.83,19.0028-57.327,28.2011C532.5143,926.51,504.3583,937.2448,478.1359,946L499,999.2778a840.4119,840.4119,0,0,0,127-70c25.255-17.0122,45.9574-33.1557,57-42,23.5428-18.8561,39.3-31.4762,54-47,31.9169-33.7046,46.2779-68.803,75-139a747.79,747.79,0,0,0,26-72c4.3125-14.3246,5.8717-21.1817,19-70,6.8342-25.4137,10.2028-37.6527,13-48,19.6337-72.6272,45.9506-180.8888,59-235,12.4417-51.5916,21.1592-87.74,33-139C976.6006,74.07,988.0072,22.272,995.4139-11.86Z" style="fill:url(#f1c879a6-bae3-4a9e-b25d-169833bf3c36)"/><path id="a5df4a61-baf2-4af3-a8b9-93f784d56b8f" data-name="main upper-2" d="M995.4139-11.86q-33.4889,143.0535-68.88,285.655Q891.1176,416.385,853.88,558.5181c-6.2126,23.6845-12.4861,47.3628-19.7316,70.7563-5.4125,17.4751-10.0481,30.23-11.1108,33.2164C818.9562,673.96,806.9031,707.0944,787,749.2778c-6.725,14.2533-13.8782,29.3347-25,49-7.62,13.4731-13,24-20,33-5,7-17.2015,15.7329-38,32-8.2024,6.4153-20.0011,15.8813-34,28,0,0-19.2964,15.06-44.586,31.844-50.5307,33.536-116.5295,66.0741-127.914,71.656L518.1359,1042A337.568,337.568,0,0,0,570,1018.2778c2.4883-1.3965,4.2706-2.4331,5.4262-3.11,10.7188-6.2792,28.29-17.443,69.5738-46.89,0,0,55.6854-39.72,113-90a123.4161,123.4161,0,0,0,17-18,126.5036,126.5036,0,0,0,13-21c11.3884-22.4532,19.6566-42.5237,26-57,6.5293-14.9007,11.5238-26.2122,18-42,10.69-26.0608,15.0433-38.8371,17.3231-45.7838,2.5848-7.876,4.5192-14.3439,5.7488-18.5635,3.6079-12.3809,7-24.7617,9.955-37.1049,3.0849-12.3438,5.6617-24.6488,8.3623-36.8509l3.8681-18.2289,3.7231-18.0991,7.3657-36.0858,7.5086-36.0424,14.8423-72.1127,14.61-72.1488,14.4516-72.1651q14.5332-72.1332,28.5849-144.34Q981.8786,60.4458,995.4139-11.86Z" style="fill:url(#b2f082c7-aca3-4d4a-8b7a-ed6c17cda608)"/></g><g id="afc17b14-2e2e-4d43-befd-99510b047429" data-name="orange copy 3"><path d="M721.0386,759.3256c1.268,1.4688,2.98,3.4939,4.9644,5.9757-.3318.3582-.6574.7046-.971,1.028-2.12,2.1874-10.3294,10.308-20.0206,21.9814-2.3243,2.8-3.0058,3.7254-5.0057,5.9953-6.9929,7.9373-19.0167,17.9821-19.0167,17.9821a86.7062,86.7062,0,0,0-22.0206,21.98,21.5919,21.5919,0,0,0-.4759-5.0371,10.8569,10.8569,0,0,1-2.1867,2.5529,69.772,69.772,0,0,1-6.3384,3.4757,101.1228,101.1228,0,0,1-10.0037,3.9907c-7.1419,2.6006-10.7128,3.9009-11.0038,3.99-7.1109,2.17-8.0183,1.6353-13.8359,3.6926-.2677.0948-1.1192.3976-1.1678.2933-.1522-.3266,7.8731-4.0081,18.0094-9.9831,0,0,2.12-1.2374,5.0028-2.9953,3.3934-2.0695,20.5121-12.5092,33.0224-23.9691,21.3918-19.5956,42.4339-54.1482,43.0516-54.96.36-.4737.7642-.8957.7642-.8958a1.34,1.34,0,0,1,.6454-.6186C715.568,753.36,717.2842,754.9765,721.0386,759.3256Z" style="fill:url(#ba8d1685-34eb-4fcf-b609-56669e580351)"/><path d="M772.9749,686.2537c-1.1428,2.4163-2.3908,5.0391-4.02,8.3623q-4.5859,9.3534-9.2215,18.0325c-16.6844,30.9452-27.05,45.4116-33.7039,52.6266-3.9525-3.94-7.905-7.8341-11.8569-11.1964l1.04-.9837,2.8078-2.6562,5.4592-5.48c3.5863-3.7113,7.1556-7.4738,10.5737-11.3777q10.3339-11.6536,19.6291-24.3882c2.2239-3.0507,4.2394-5.9257,6.0785-8.6315,4.9333-7.258,8.543-13.1534,11.32-17.792,10.5421-17.6118,15.5394-27.6832,15.92-27.4915C787.5045,655.5318,779.0592,673.3889,772.9749,686.2537Z" style="fill:url(#edc92814-6735-484d-a424-09a146dab084)"/><path id="ed37f5e1-2834-4fac-a1e0-085a2d496c18" data-name="shard 01 upper-3" d="M614,847.2778c5.3745-.7362,11.0583-1.7134,17-3a224.21,224.21,0,0,0,28-8c10.2622-6.6707,18.7271-12.5386,25-17,19.882-14.14,25.6642-20.2679,29-24,4.3054-4.8169,6.9288-8.61,12-16,12.4791-18.1851,17.7169-27.9386,22-36,14.73-27.7246,40.6071-87.7372,40-88a63.8588,63.8588,0,0,0-3,6c-6.4635,13.3469-17.0234,33.9879-35,66h0c-14.6766,21.3477-19.6853,26.9021-22.1855,29.2587-.0342.0322-.3661.3268-.8143.7411-1.6234,1.5-2.9583,2.8722-4,4-2.5792,3.688-12.6989,18.0536-23,30-5.9082,6.8518-10.3541,11.1528-11.8073,12.539-1.5568,1.4853-3.7581,3.5258-7.1927,6.461-4.8845,4.1744-12.159,10.0691-22,17-5.2034,3.0254-10.87,6.06-17,9A242.1938,242.1938,0,0,1,614,847.2778Z" style="fill:url(#f1960bcc-ac81-4113-8870-64d1217325fa)"/><path d="M811.8778,514.9579a317.5884,317.5884,0,0,1-11.7839,64.581c-.46,1.6053-.8018,2.7492-1.0938,3.7389a438.23,438.23,0,0,1-28,71,299.3493,299.3493,0,0,1-19,32c-11.0489,16.22-22.1667,29.1139-22.3832,28.9464-.1417-.11,4.29-5.8925,7.8456-10.8361A293.3826,293.3826,0,0,0,766.42,653.6432q.2709-.62.5419-1.24l.5518-1.2823,1.0907-2.5925c.7246-1.7331,1.4237-3.4842,2.12-5.2346,1.3889-3.5038,2.7109-7.0379,4.0037-10.5771q3.8451-10.6345,7.071-21.4243c2.19-7.1726,4.039-14.417,5.7849-21.6369l1.1932-5.4336.5941-2.7112.5169-2.7205,1.0334-5.4277.8656-5.4309c1.1775-7.1818,1.95-14.5767,2.6611-22.0037l.4817-5.5621.2079-2.74.0057-.083.0219-.1864c.0219-.1715.0543-.4266.0543-.4266l.0182-.34.0363-.68.0727-1.3586.2931-5.4206c.04-.8676.1159-1.8659.19-2.8579l.2186-2.9612q.1488-2.6336.41-5.4352.2877-3.0462.6768-5.877a18.712,18.712,0,0,1,14.7419,2.9579Z" style="fill:url(#b733c0d8-288c-4807-be10-274f9e112130)"/><path d="M847,391.2778c-10.11,26.5785-16.6918,49.4267-20,61-6.7471,23.6042-11.56,44.3449-15,61-.0367.5473-.0812,1.1192-.1222,1.68-4.817-1.3678-9.66-2.6306-14.853-2.4943.045-.3252.0774-.6526.128-.9768.9462-3.8481,1.9984-7.6642,3.0576-11.4725,1.021-3.8178,2.1547-7.6,3.2844-11.3773.569-1.8873,1.109-3.7813,1.7017-5.659l1.7975-5.6231q7.212-22.4679,15.9079-44.2,8.7465-21.7059,18.63-42.748c21.17-45.209,42.887-81.9647,43.5911-81.589C885.781,309.1689,866.1306,340.9824,847,391.2778Z" style="fill:url(#a027ff9c-d364-4534-ba16-51fd8caae728)"/><path id="ba4d9146-2c19-47c7-97f3-c8d23db87459" data-name="shard 02 upper-3" d="M729.6169,715.2242l-.0047.0062a39.3165,39.3165,0,0,0,2.8015-3.0709c9.6536-11.2852,14.48-16.9277,20.3031-24.7691a335.3512,335.3512,0,0,0,19.9961-30.2341l-.13.1937.2731-.4434q.64-1.14,1.2811-2.2806l1.3835-2.5348c.9179-1.6915,1.8072-3.3961,2.6942-5.1024,1.77-3.4143,3.4734-6.8614,5.15-10.3228q4.996-10.4,9.41-21.0787c2.9822-7.1016,5.6412-14.3394,8.2074-21.6174l1.8135-5.5.905-2.7517.831-2.7769,1.6621-5.5566,1.501-5.6089c2.0347-7.4848,3.6148-15.0459,5.1245-22.605l1.0832-5.6834.5164-2.8573.4523-2.7856c.6145-3.8373,1.2265-7.6859,1.8857-11.3934l.9725-5.6139,1.0789-5.5955c.307-1.8739.5569-3.7579.88-5.63l.9676-5.6176c.6151-3.7514,1.3444-7.4829,2.07-11.2165.3671-1.8659.7048-3.7382,1.0962-5.6l1.1939-5.5813q4.8-22.3239,11.1488-44.33,6.4047-21.9689,14.0294-43.5978c17.9567-51.0907,35.5834-84.5383,34.927-84.8512-.6828-.3255-20.6106,35.4485-38.1224,81.46-7.0658,18.5652-13.6688,38.9055-15,43-1.9948,6.1353-7.1027,22.0359-13,43-4.064,14.447-7.3714,27.2766-10,38-.2783,5.6916-.8255,13.61-2,23-3.4889,27.8936-9.9981,48.4341-14,61a405.6067,405.6067,0,0,1-23,56,322.42,322.42,0,0,1-18,31c-2.18,3.2381-4.1259,6.1286-7,10C740.1954,701.75,729.779,715.028,729.6169,715.2242Z" style="fill:url(#e144cb39-a63c-4236-8c2c-42f4964dbd89)"/><path d="M851,439.2778a125.1558,125.1558,0,0,0-3,15,5.6417,5.6417,0,0,1-1,0,6.6254,6.6254,0,0,1-4-2,118.8483,118.8483,0,0,1,10-31l3,3A125.1715,125.1715,0,0,0,851,439.2778Z" style="fill:url(#a17e2fd1-836b-4efc-acbb-9e3c7613aaca)"/><path d="M873.4015,380.2108l.3244.1215c-2.99,8.39-5.2969,14.8492-6.7259,18.9455-.5912,1.6949-1.398,3.3089-2,5-1.0983,3.0852-1.844,5.8722-3.2782,6.0544a2.3181,2.3181,0,0,1-.7218-.0544,3.2957,3.2957,0,0,1-2.0048-1.5724q1.2753-2.6175,2.5758-5.2522,1.2936-2.6223,2.6015-5.2352Z" style="fill:url(#fecbc17e-e3b6-41b4-abb1-e5a7eeb943aa)"/><path d="M841.46,481.6511c-.3924,1.8225-.8682,3.9889-1.4121,7.0273q-.6105,3.41-1.0477,6.5994h0a37.4749,37.4749,0,0,1-1.0251-7.6551c-.0328-1.0985.0461-2.5409.2209-5.38a93.5175,93.5175,0,0,1,1.2291-12.1921c.2187-1.1809.43-2.1442.5751-2.7732l2,1,2,1C842.9548,474.6053,842.08,478.7687,841.46,481.6511Z" style="fill:url(#ac04402b-919f-4be1-8de4-a419ff90e23f)"/><path d="M846,469.2778a4.5677,4.5677,0,0,1-2,1,8.92,8.92,0,0,1-1,0h0s-.8308-.6435-.93-.7207a11.73,11.73,0,0,1-2.07-2.2793A12.7468,12.7468,0,0,1,846,469.2778Z" style="fill:url(#b12937a9-a2ee-4b88-83e5-5192a04704ad)"/><path d="M845,473.2778c-2.0732,8.1783-2.32,8.4576-4,15-.4384,1.7075-.65,3.2291-1.5984,6.1793-.2535.7891-.3639.8267-.4016.8207-.2034-.032-.0973-1.7827,0-3a138.3245,138.3245,0,0,1,3-18c.2077-.8656.5488-2.2646,1-4l3-1C845.7634,470.2377,845.4206,471.6186,845,473.2778Z" style="fill:url(#afe8b326-33e2-41c7-bbc0-e0351566519f)"/><path d="M855.19,436.9278l-4.2061,16.8529a8.2555,8.2555,0,0,1-3.9834.4971c.3828-2.5431.9948-5.9807,2-10,.3255-1.3014,1.3006-5.1239,3-10,1.0012-2.8728,2.3055-6.2613,4-10h3c-.7835,1.9941-1.552,4.1828-2.2568,6.5571C856.108,432.9745,855.599,435.014,855.19,436.9278Z" style="fill:url(#be715b43-0919-49b4-ba01-4be159b2b18c)"/><path d="M859,424.2778a7.17,7.17,0,0,1-1.6483.3058h-1c-.4805,0-.8259-.5635-.93-.7207A20.5225,20.5225,0,0,0,853,421.2778,9.4874,9.4874,0,0,1,859,424.2778Z" style="fill:url(#a66ddc36-0b1c-445a-b060-a971303aa0c3)"/><path d="M873.7259,380.3323l.3245.1215-7.4043,20.8q-1.5522,4.49-3.054,8.9955a3.9518,3.9518,0,0,1-2.5921.0286Z" style="fill:url(#b1fcf5ed-d579-4ada-962a-f5e8212e634f)"/><path d="M608,859.2778c4.8256-.2575,8.1406-.7295,8.1406-.7295a154.8594,154.8594,0,0,0,19.5083-4.67A97.647,97.647,0,0,1,606,865.2778a8.2249,8.2249,0,0,1-2.5473-6.0388c.1511.0119.3285.0253.5473.0388A33.7849,33.7849,0,0,0,608,859.2778Z" style="fill:url(#b36a3ffb-68f3-4809-8783-a03a103cb476)"/><path d="M606,865.2778c-2.1735,1.68-4.5045,3.3559-7,5a115.8626,115.8626,0,0,1-26.0772,12.79l-.0968-.2891a143.6637,143.6637,0,0,0,14.7648-9.5174c2.3582-1.7317,4.5712-3.5043,6.8447-5.3531a76.5438,76.5438,0,0,0,6.4978-6.2006l1.5876-1.6378.7824-.8421c.0409.0035.0995.0078.1494.0118a20.809,20.809,0,0,0,3.3867,5.8581C606.5593,865.1575,606.2751,865.2209,606,865.2778Z" style="fill:url(#f88ff618-1f7f-405e-88c5-c554a2d5ff16)"/><path id="bed46f37-99b1-4bf5-973f-35c44590a6ea" data-name="shard 04 upper-2" d="M635.6489,853.8785A82.577,82.577,0,0,1,606,864.2778c-1.2173,1.0493-2.9088,2.4488-5,4a91.2822,91.2822,0,0,1-13,8,111.435,111.435,0,0,1-15.2178,6.519l.0967.2891A153.2172,153.2172,0,0,0,589,879.2778c4.8077-1.412,8.2453-2.7154,9-3a125.2531,125.2531,0,0,0,17-8A132.3086,132.3086,0,0,0,635.6489,853.8785Z" style="fill:url(#a3be7259-31ff-415d-91fb-538de3023606)"/></g><g id="a95b4ebb-3d84-45db-8e43-b1c014a991d2" data-name="purple copy 3"><path id="ad4c6e71-b826-4750-978f-26db9ea292f3" data-name="shard 02 lower-2" d="M771.3821,883.6639l.0058-.0081s-.06.0752-.1781.2221c-8.5757,10.6834-25.9377,26.901-25.9377,26.9011-10.523,9.795-17.0285,15.85-26.2721,23.4988-7.6094,6.2961-9.2513,7.1989-16.1247,13.0631,0,0-6.0388,5.1141-10.96,8.7179-1.84,1.3473-3.2769,2.344-4.1809,2.9725-.3273.2276-.57.3965-.6037.42-1.4182.9838-9.3592,6.7232-30.1308,21.8264l10-4c.8536-.1984,2.2683-.5367,4-1a127.3725,127.3725,0,0,0,54-30c1.7651-1.6868,3.0546-3.02,4-4,4.7317-4.9037,10.3566-11.37,21-27C753.7263,909.8056,771.3344,883.7272,771.3821,883.6639Z" style="fill:url(#f3c96f95-199b-4c18-a66f-ee8a02fddf57)"/><path id="b7738c66-043c-4bfa-8fcc-671ebd58e771" data-name="shard 02 upper-4" d="M771.3821,883.6639c-8.7365,13.15-16.7918,24.0868-23.3821,32.6139-14.8282,19.1861-22.9857,27.1406-33,34-1.59,1.0891-3.4142,2.2788-8,5a542.9676,542.9676,0,0,1-49.264,25.7445c16.1155-2.9921,28.3434-5.4181,34.264-6.7445a111.7467,111.7467,0,0,0,17-5,105.8206,105.8206,0,0,0,11-5,33.1671,33.1671,0,0,0,9-6c.3544-.3289.6864-.664,1-1A263.9212,263.9212,0,0,0,771.3821,883.6639Z" style="fill:url(#fc142e5b-e8f9-4311-9329-f0543fbc50fc)"/><path d="M676.3053,1008.8713c-12.8434,10.1385-20.5775,16.2565-25.6819,20.0933a44.0613,44.0613,0,0,1-6.6441-31.6705l.0207-.0163,11-2c9.1585-1.6653,20.224-3.9137,25-5,7.98-1.815,20.4252-5.5356,37-14C707.3619,984.1115,693.381,995.392,676.3053,1008.8713Z" style="fill:url(#b42a9cc3-8cca-47bb-90d9-9283cbe10909)"/><path d="M647.1112,1031.541a407.7823,407.7823,0,0,1-63.9522,36.9256q-16.7856,7.7469-34.1954,14.045c-11.5894,4.2148-23.4213,7.7235-35.3285,10.934q-17.8831,4.7476-36.1622,7.8713c-12.1541,2.1846-24.4255,3.7377-36.745,4.8209l-.178-2.6515c12.0783-3.4228,23.94-6.853,35.528-10.9,5.7978-1.984,11.5423-4.016,17.2056-6.2247,2.1358-.833,9.5229-3.646,16.8211-6.7725,12.0407-5.1582,20.7432-9.7969,32.8955-16.3113,4.6032-2.4676,15.72-8.49,30-17,8.7816-5.233,17.695-10.5445,29.3651-18.3868,14.3935-9.6724,25.6956-18.3,32.6349-23.6131,3.7251-2.8524,6.8076-5.268,8.9793-6.9837,4.3006,9.6869,3.4907,21.252,6.6441,31.67C649.2908,1029.9662,648.1275,1030.821,647.1112,1031.541Z" style="fill:url(#ed4a4961-11f3-481f-b634-7382cdfae0a4)"/><path id="a0ce1dee-d6ed-40d4-b6ab-7938dfa31529" data-name="shard 01 upper-4" d="M717,976.2778c-.51-.557-6.21,4.9809-12.76,10.062a140.06,140.06,0,0,1-31.24,17.938c-.2044.0879-1.7643.713-4.8809,1.9712-8.04,3.2456-8.9322,3.5977-10.1191,4.0288a93.3963,93.3963,0,0,1-10,3,66.2212,66.2212,0,0,1-9.03,9.1989s-.4772.4015-.97.8011c-24.38,19.7511-61,38-61,38a446.2553,446.2553,0,0,1-62,26,434.9538,434.9538,0,0,1-74.3611,17.5343l.089,1.3257c12.335-.852,24.6433-2.1754,36.8547-4.1344,0,0,18.0328-2.8,36.3887-7.2384C597.9344,1074.4615,646,1042.2778,646,1042.2778c24.14-16.0932,49.8257-38.7537,69.0813-62.812C715.6888,978.7068,717.33,976.6381,717,976.2778Z" style="fill:url(#ed793d57-75e7-4f8c-ae1b-2d8788448e3f)"/></g></g></svg>